<svg width="322" height="557" viewBox="0 0 322 557" fill="none" xmlns="http://www.w3.org/2000/svg">
<g opacity="0.15">
<path d="M496 556.92H180.301V148.55H495.858L496 556.92ZM217.969 519.493H458.332V185.977H217.969V519.493Z" fill="white"/>
<path d="M178.965 0C232.419 1.34457 283.156 23.6919 320.056 62.144C356.099 99.8907 375.623 150.289 374.354 202.307C372.998 253.253 351.365 301.585 314.199 336.707C277.765 370.996 229.13 389.525 178.965 388.23C129.908 386.887 83.3897 366.266 49.6147 330.888C16.6125 296.25 -1.20859 250.016 0.0637331 202.335C1.44995 155.748 21.376 111.609 55.471 79.6008C88.7931 48.4057 133.2 31.6052 178.965 32.8798C134.29 34.2276 91.9758 53.1216 61.2989 85.4197C31.4603 117 15.4229 159.037 16.6944 202.335C18.0333 244.581 36.1803 284.575 67.1551 313.544C97.3869 341.635 137.595 356.669 178.965 355.35C219.256 354.018 257.37 336.86 284.946 307.641C311.712 279.154 326.024 241.287 324.746 202.335C323.429 164.499 307.073 128.725 279.261 102.848C265.813 90.4249 250.034 80.7553 232.825 74.3915C215.616 68.0278 197.315 65.0947 178.965 65.7596V0Z" fill="white"/>
</g>
</svg>
