<svg width="14" height="18" viewBox="0 0 14 18" fill="none" xmlns="http://www.w3.org/2000/svg">
<path d="M10.26 16.0001C9.71525 15.996 9.1729 15.9276 8.64421 15.7964C6.81847 15.3558 4.9384 14.2384 3.35119 12.6498C1.76398 11.0612 0.645128 9.18077 0.204623 7.35676C-0.259213 5.43804 0.0716011 3.7965 1.13508 2.73302L1.43873 2.42937C1.71424 2.15442 2.08757 2 2.47679 2C2.86602 2 3.23935 2.15442 3.51485 2.42937L5.25981 4.17398C5.53493 4.44939 5.68947 4.82275 5.68947 5.21204C5.68947 5.60132 5.53493 5.97469 5.25981 6.2501L4.22906 7.2805C4.7232 8.14758 5.39527 9.01536 6.18957 9.80966C6.98388 10.604 7.85235 11.2764 8.71908 11.7705L9.74948 10.7398C9.88579 10.6034 10.0476 10.4953 10.2257 10.4215C10.4038 10.3477 10.5947 10.3097 10.7875 10.3097C10.9803 10.3097 11.1712 10.3477 11.3494 10.4215C11.5275 10.4953 11.6893 10.6034 11.8256 10.7398L13.5702 12.4844C13.8454 12.7597 14 13.133 14 13.5223C14 13.9115 13.8454 14.2848 13.5702 14.5602L13.2662 14.8638C12.5165 15.6149 11.4788 16.0001 10.26 16.0001ZM2.47679 3.04399C2.4212 3.04371 2.3661 3.05453 2.31474 3.07582C2.26337 3.09711 2.21677 3.12843 2.17767 3.16796L1.87367 3.47161C1.07728 4.268 0.844661 5.56096 1.21866 7.11022C1.61459 8.7514 2.63384 10.4567 4.08838 11.9109C5.54292 13.365 7.24783 14.3833 8.88937 14.7806C10.439 15.1546 11.7312 14.922 12.5276 14.1256L12.8313 13.8219C12.9106 13.7425 12.9552 13.6349 12.9552 13.5226C12.9552 13.4104 12.9106 13.3027 12.8313 13.2233L11.087 11.4787C11.0076 11.3994 10.9 11.3548 10.7877 11.3548C10.6755 11.3548 10.5678 11.3994 10.4884 11.4787L9.18222 12.7849C9.10385 12.8633 9.00255 12.9148 8.893 12.9318C8.78344 12.9488 8.67131 12.9305 8.57283 12.8796C7.50204 12.3259 6.42254 11.5198 5.45099 10.5482C4.47944 9.5767 3.67504 8.49789 3.11997 7.4271C3.06899 7.32866 3.05066 7.21655 3.06763 7.10699C3.08459 6.99744 3.13597 6.89612 3.21434 6.81771L4.52088 5.51151C4.60022 5.43211 4.64478 5.32446 4.64478 5.21221C4.64478 5.09997 4.60022 4.99231 4.52088 4.91291L2.77627 3.16796C2.73704 3.1285 2.69037 3.09722 2.63896 3.07594C2.58755 3.05466 2.53243 3.0438 2.47679 3.04399Z" fill="#2AB8C4"/>
<path d="M10.8182 9.72052C10.6797 9.72052 10.5468 9.66549 10.4488 9.56753C10.3509 9.46958 10.2959 9.33672 10.2959 9.19818C10.2948 8.28184 9.9304 7.40331 9.28248 6.75532C8.63456 6.10733 7.75607 5.7428 6.83972 5.7417C6.70119 5.7417 6.56833 5.68667 6.47037 5.58871C6.37241 5.49075 6.31738 5.35789 6.31738 5.21936C6.31738 5.08083 6.37241 4.94797 6.47037 4.85001C6.56833 4.75205 6.70119 4.69702 6.83972 4.69702C9.32152 4.69702 11.3405 6.71673 11.3405 9.19818C11.3405 9.33672 11.2855 9.46958 11.1875 9.56753C11.0896 9.66549 10.9567 9.72052 10.8182 9.72052Z" fill="#2AB8C4"/>
<path d="M13.0259 9.72051C12.8874 9.72051 12.7546 9.66548 12.6566 9.56752C12.5586 9.46956 12.5036 9.3367 12.5036 9.19817C12.5036 6.07494 9.96156 3.53393 6.83972 3.53393C6.70119 3.53393 6.56833 3.4789 6.47037 3.38095C6.37241 3.28299 6.31738 3.15013 6.31738 3.0116C6.31738 2.87306 6.37241 2.7402 6.47037 2.64225C6.56833 2.54429 6.70119 2.48926 6.83972 2.48926C10.5389 2.48926 13.5483 5.49897 13.5483 9.19817C13.5483 9.3367 13.4933 9.46956 13.3953 9.56752C13.2973 9.66548 13.1645 9.72051 13.0259 9.72051Z" fill="#2AB8C4"/>
</svg>
