<svg width="250" height="531" viewBox="0 0 250 531" fill="none" xmlns="http://www.w3.org/2000/svg">
<g opacity="0.05">
<path d="M472.915 531H171.909V141.636H472.78L472.915 531ZM207.824 495.314H437V177.321H207.824V495.314Z" fill="white"/>
<path d="M170.635 0C221.602 1.28199 269.977 22.5893 305.16 59.2516C339.525 95.2416 358.141 143.294 356.931 192.891C355.638 241.466 335.012 287.549 299.576 321.036C264.837 353.729 218.466 371.396 170.635 370.161C123.862 368.881 79.5085 349.219 47.3055 315.488C15.8393 282.462 -1.15234 238.38 0.0607669 192.918C1.38246 148.499 20.3811 106.415 52.8893 75.896C84.6604 46.1528 127.001 30.1343 170.635 31.3495C128.04 32.6345 87.695 50.6492 58.4459 81.4441C29.996 111.555 14.7051 151.635 15.9174 192.918C17.194 233.198 34.4964 271.33 64.0296 298.951C92.8543 325.735 131.191 340.069 170.635 338.812C209.051 337.541 245.392 321.182 271.684 293.323C297.205 266.161 310.85 230.057 309.632 192.918C308.376 156.843 292.781 122.734 266.263 98.0615C253.442 86.2163 238.397 76.9967 221.989 70.9292C205.581 64.8617 188.131 62.065 170.635 62.699V0Z" fill="white"/>
</g>
</svg>
