<svg width="62" height="62" viewBox="0 0 62 62" fill="none" xmlns="http://www.w3.org/2000/svg">
<path d="M57 50H41C40.448 50 40 49.6864 40 49.3V36.7C40 36.3136 40.448 36 41 36H57C57.552 36 58 36.3136 58 36.7V49.3C58 49.6864 57.552 50 57 50Z" fill="#2AB8C4"/>
<path d="M39.2368 23C39.2368 21.895 39.7314 21 40.3421 21H42V5C42 4.448 41.7524 4 41.4474 4H21.5526C21.2476 4 21 4.448 21 5V25C21 25.552 21.2476 26 21.5526 26H39.2368V23Z" fill="#2AB8C4"/>
<path d="M59 20H46V3C46 1.346 44.654 0 43 0H3C1.346 0 0 1.346 0 3V33C0 34.654 1.346 36 3 36H15V40H13C12.448 40 12 40.448 12 41C12 41.552 12.448 42 13 42H33C33.552 42 34 41.552 34 41C34 40.448 33.552 40 33 40H31V36H36V59C36 60.654 37.346 62 39 62H59C60.654 62 62 60.654 62 59V23C62 21.346 60.654 20 59 20ZM38 28H60V52H38V28ZM60 23V26H38V23C38 22.449 38.449 22 39 22H59C59.551 22 60 22.449 60 23ZM3 2H43C43.551 2 44 2.449 44 3V20H39C37.346 20 36 21.346 36 23V28H2V3C2 2.449 2.449 2 3 2ZM29 40H17V36H29V40ZM3 34C2.449 34 2 33.551 2 33V30H36V34H3ZM59 60H39C38.449 60 38 59.551 38 59V54H60V59C60 59.551 59.551 60 59 60Z" fill="#1F1C2D"/>
<path d="M52 56H46C45.448 56 45 56.448 45 57C45 57.552 45.448 58 46 58H52C52.552 58 53 57.552 53 57C53 56.448 52.552 56 52 56Z" fill="#1F1C2D"/>
<path d="M57 50C57.5523 50 58 49.5523 58 49C58 48.4477 57.5523 48 57 48C56.4477 48 56 48.4477 56 49C56 49.5523 56.4477 50 57 50Z" fill="#1F1C2D"/>
<path d="M14 10C14.5523 10 15 9.55228 15 9C15 8.44772 14.5523 8 14 8C13.4477 8 13 8.44772 13 9C13 9.55228 13.4477 10 14 10Z" fill="#1F1C2D"/>
<path d="M18 10C18.5523 10 19 9.55228 19 9C19 8.44772 18.5523 8 18 8C17.4477 8 17 8.44772 17 9C17 9.55228 17.4477 10 18 10Z" fill="#1F1C2D"/>
<path d="M22 10H38.586L37.293 11.293C36.902 11.684 36.902 12.316 37.293 12.707C37.488 12.902 37.744 13 38 13C38.256 13 38.512 12.902 38.707 12.707L41.707 9.70701C42.098 9.31601 42.098 8.68401 41.707 8.29301L38.707 5.29301C38.316 4.90201 37.684 4.90201 37.293 5.29301C36.902 5.68401 36.902 6.31601 37.293 6.70701L38.586 8.00001H22C21.448 8.00001 21 8.44801 21 9.00001C21 9.55201 21.448 10 22 10Z" fill="#1F1C2D"/>
<path d="M32 20C32.5523 20 33 19.5523 33 19C33 18.4477 32.5523 18 32 18C31.4477 18 31 18.4477 31 19C31 19.5523 31.4477 20 32 20Z" fill="#1F1C2D"/>
<path d="M28 20C28.5523 20 29 19.5523 29 19C29 18.4477 28.5523 18 28 18C27.4477 18 27 18.4477 27 19C27 19.5523 27.4477 20 28 20Z" fill="#1F1C2D"/>
<path d="M7.29301 22.707C7.48801 22.902 7.74401 23 8.00001 23C8.25601 23 8.51201 22.902 8.70701 22.707C9.09801 22.316 9.09801 21.684 8.70701 21.293L7.41401 20H24C24.552 20 25 19.552 25 19C25 18.448 24.552 18 24 18H7.41401L8.70701 16.707C9.09801 16.316 9.09801 15.684 8.70701 15.293C8.31601 14.902 7.68401 14.902 7.29301 15.293L4.29301 18.293C3.90201 18.684 3.90201 19.316 4.29301 19.707L7.29301 22.707Z" fill="#1F1C2D"/>
<path d="M57 30C56.448 30 56 30.448 56 31V45C56 45.552 56.448 46 57 46C57.552 46 58 45.552 58 45V31C58 30.448 57.552 30 57 30Z" fill="#1F1C2D"/>
</svg>
