<svg width="22" height="22" viewBox="0 0 22 22" xmlns="http://www.w3.org/2000/svg">
<path d="M10.9975 11.2602C12.135 11.3008 13.2423 10.8894 14.0772 10.1159C14.9122 9.3424 15.4069 8.26976 15.4531 7.13252C15.4072 5.99497 14.9127 4.92189 14.0777 4.14798C13.2428 3.37406 12.1353 2.96229 10.9975 3.00272C9.85981 2.96239 8.7524 3.3742 7.91745 4.14809C7.0825 4.92199 6.58795 5.99501 6.54194 7.13252C6.58824 8.26975 7.08295 9.34238 7.9179 10.1159C8.75284 10.8894 9.86009 11.3008 10.9975 11.2602ZM10.9975 5.42282C11.4686 5.4061 11.9271 5.57656 12.2728 5.89695C12.6185 6.21734 12.8233 6.66157 12.8423 7.13252C12.8068 7.59739 12.5971 8.0317 12.2551 8.34856C11.9131 8.66543 11.464 8.84147 10.9978 8.84147C10.5316 8.84147 10.0825 8.66543 9.74053 8.34856C9.39852 8.0317 9.18877 7.59739 9.15324 7.13252C9.17228 6.66165 9.37698 6.21746 9.72258 5.89708C10.0682 5.5767 10.5266 5.40619 10.9975 5.42282ZM15.2932 16.9402C15.4131 17.0479 15.509 17.1797 15.5745 17.327C15.64 17.4742 15.6737 17.6336 15.6735 17.7948C15.6732 17.956 15.6389 18.1153 15.5729 18.2623C15.5069 18.4094 15.4106 18.5408 15.2903 18.6481L15.2895 18.6489C15.0364 18.8767 14.7079 19.0027 14.3674 19.0025C14.0269 19.0024 13.6985 18.8761 13.4456 18.6481L10.9971 16.3797L8.55004 18.6479C8.29676 18.8761 7.96795 19.0024 7.62705 19.0024C7.28614 19.0025 6.9573 18.8763 6.70394 18.6482C6.58361 18.5405 6.48735 18.4087 6.42143 18.2613C6.35552 18.1139 6.32143 17.9543 6.3214 17.7928C6.32137 17.6313 6.3554 17.4717 6.42127 17.3242C6.48713 17.1768 6.58335 17.0449 6.70364 16.9372L9.19434 14.6284C8.28473 14.4374 7.4115 14.1023 6.60769 13.6356C6.46537 13.5587 6.34074 13.4528 6.24182 13.3248C6.14291 13.1968 6.07189 13.0495 6.03335 12.8924C5.99482 12.7353 5.98961 12.5718 6.01807 12.4126C6.04653 12.2533 6.10802 12.1018 6.19859 11.9677L6.19939 11.9665C6.39836 11.6908 6.69294 11.4992 7.0256 11.4291C7.35826 11.359 7.7051 11.4154 7.99839 11.5873C8.9116 12.1099 9.94549 12.3848 10.9976 12.3848C12.0498 12.3848 13.0837 12.1099 13.9969 11.5873L13.998 11.5869C14.2915 11.4151 14.6385 11.359 14.9711 11.4294C15.3038 11.4998 15.5983 11.6918 15.797 11.9677C15.8875 12.1018 15.949 12.2534 15.9774 12.4127C16.0058 12.572 16.0005 12.7354 15.9619 12.8926C15.9233 13.0497 15.8522 13.197 15.7532 13.325C15.6542 13.4529 15.5296 13.5588 15.3872 13.6356C14.5833 14.1025 13.7099 14.4376 12.8001 14.6284L15.2904 16.9376L15.2932 16.9402Z"/>
</svg>
