<svg width="14" height="18" viewBox="0 0 14 18" fill="none" xmlns="http://www.w3.org/2000/svg">
  <path d="M13.5324 15.2689C13.4803 15.3672 13.4132 15.4568 13.3337 15.5346C12.7277 16.1106 12.0449 16.6 11.3048 16.9889C11.0895 17.0834 10.8683 17.1637 10.6425 17.2292L10.1886 17.1379C9.98045 17.0518 9.76705 16.9675 9.56616 16.8722C8.66399 16.4207 7.84244 15.8234 7.13459 15.1045C5.90826 13.9149 4.88868 12.5606 3.94379 11.1418C3.072 9.86543 2.32562 8.50775 1.71507 7.08773C1.30146 6.09034 0.97488 5.07163 0.902764 3.98398C0.885227 3.71618 0.89686 3.44664 0.8938 3.18432L0.987116 2.72299C1.32714 2.20977 1.82439 1.87741 2.3366 1.5666C2.71626 1.33985 3.10006 1.13336 3.48942 0.92994C3.6503 0.845305 3.82913 0.800491 4.01092 0.799259C4.1927 0.798026 4.37212 0.840411 4.53414 0.922857C4.72537 1.006 4.87626 1.16096 4.95428 1.35434C5.36678 2.37375 5.77024 3.39711 6.21063 4.40167C6.30332 4.60117 6.33792 4.82275 6.31046 5.041C6.283 5.25926 6.19459 5.46537 6.05538 5.63569C5.91804 5.8269 5.7578 6.00242 5.60568 6.1833C5.42844 6.39252 5.25079 6.60324 5.06433 6.80521C5.02889 6.83295 5.00545 6.87324 4.99886 6.91777C4.99227 6.96229 5.00303 7.00765 5.02892 7.04447C5.35286 7.62078 5.65038 8.21235 5.99993 8.77639C6.63515 9.84359 7.36086 10.8543 8.16907 11.7972C8.20145 11.8458 8.25042 11.881 8.30682 11.8961C8.36322 11.9112 8.4232 11.9052 8.47553 11.8794C8.90282 11.7307 9.33407 11.5912 9.76818 11.4587C10.0765 11.3452 10.4163 11.3519 10.7198 11.4777C10.8117 11.5191 10.8957 11.5761 10.968 11.6463C11.8018 12.4703 12.6327 13.2968 13.4609 14.1256C13.7284 14.3887 13.7561 14.8745 13.5324 15.2689Z" fill="#2AB8C4"/>
</svg>
