<svg width="432" height="563" viewBox="0 0 432 563" fill="none" xmlns="http://www.w3.org/2000/svg">
  <g>
    <path d="M500 562.099H181.755V150.435H499.857L500 562.099ZM219.727 524.37H462.029V188.165H219.727V524.37Z"/>
    <path d="M180.408 0.6875C234.293 2.04292 285.44 24.5705 322.637 63.3326C358.971 101.384 378.653 152.189 377.373 204.626C376.006 255.983 354.199 304.705 316.733 340.11C280.005 374.675 230.978 393.354 180.408 392.049C130.955 390.695 84.0622 369.907 50.0148 334.244C16.7465 299.327 -1.21834 252.72 0.0642471 204.654C1.46164 157.692 21.5484 113.197 55.9184 80.9302C89.5091 49.4835 134.274 32.5476 180.408 33.8325C135.373 35.1911 92.7175 54.2375 61.7932 86.7961C31.714 118.631 15.5472 161.007 16.8291 204.654C18.1788 247.241 36.4721 287.557 67.6967 316.761C98.1723 345.078 138.705 360.233 180.408 358.904C221.024 357.56 259.446 340.264 287.244 310.809C314.226 282.092 328.653 243.92 327.365 204.654C326.037 166.513 309.549 130.45 281.513 104.365C267.957 91.8416 252.051 82.094 234.703 75.679C217.355 69.2639 198.906 66.3071 180.408 66.9774V0.6875Z"/>
  </g>
</svg>
