<svg width="15" height="15" viewBox="0 0 15 15" xmlns="http://www.w3.org/2000/svg">
<path d="M6.81998 0C5.32374 0 4.09795 1.22965 4.09795 2.7289C2.93779 2.71601 1.81382 2.7289 0.662191 2.7289C-0.259646 2.79461 -0.191889 4.11909 0.696747 4.0926H1.3746V12.2725C1.3746 13.7718 2.60171 15 4.09795 15H10.9043C12.4006 15 13.6211 13.7718 13.6211 12.2725V4.0926H14.3042C15.2319 4.11321 15.2319 2.70828 14.3042 2.7289C13.1659 2.72686 12.0434 2.7289 10.9043 2.7289C10.9043 1.22965 9.67723 0 8.18099 0H6.81998ZM6.81998 1.36512H8.18099C8.94677 1.36512 9.54333 1.96159 9.54333 2.7289H5.45896C5.45896 1.96159 6.0542 1.36512 6.81998 1.36512ZM2.73561 4.0926H12.26V12.2725C12.26 13.0398 11.6701 13.6363 10.9043 13.6363H4.09795C3.33217 13.6363 2.73561 13.0398 2.73561 12.2725V4.0926ZM4.76517 6.12631C4.38932 6.13404 4.09058 6.44489 4.09795 6.82149V10.9074C4.11765 11.7966 5.43927 11.7966 5.45896 10.9074V6.82149C5.46655 6.43445 5.15144 6.11871 4.76517 6.12631ZM7.48852 6.12631C7.11215 6.13404 6.81261 6.44437 6.81998 6.82149V10.9074C6.79948 11.8369 8.2015 11.8369 8.18099 10.9074V6.82149C8.18855 6.43499 7.87427 6.11948 7.48852 6.12631ZM10.2105 6.12631C9.8347 6.13404 9.53596 6.44489 9.54333 6.82149V10.9074C9.56304 11.7966 10.8846 11.7966 10.9043 10.9074V6.82149C10.9119 6.43445 10.5968 6.11871 10.2105 6.12631Z" fill="#1F1C2D"/>
</svg>
