<svg width="16" height="16" viewBox="0 0 16 16" xmlns="http://www.w3.org/2000/svg">
<path d="M15.8253 13.296L9.13466 1.55814C9.02091 1.35742 8.85595 1.19048 8.65661 1.07432C8.45728 0.95817 8.2307 0.896973 7.99999 0.896973C7.76929 0.896973 7.54271 0.95817 7.34337 1.07432C7.14404 1.19048 6.97908 1.35742 6.86533 1.55814L0.174731 13.296C0.0603197 13.4942 5.87889e-05 13.719 4.29929e-08 13.9478C-5.87029e-05 14.1766 0.0600867 14.4014 0.174397 14.5997C0.288707 14.7979 0.453158 14.9626 0.651237 15.0771C0.849316 15.1917 1.07405 15.2521 1.30287 15.2523H14.7036C14.9319 15.251 15.1558 15.1897 15.353 15.0747C15.5502 14.9597 15.7137 14.7949 15.8272 14.5969C15.9408 14.3988 16.0003 14.1745 16 13.9462C15.9997 13.7179 15.9394 13.4937 15.8253 13.296ZM1.29635 13.9481L7.99999 2.21024L14.7036 13.9481H1.29635Z" fill="#1F1C2D"/>
<path d="M8.00025 10.6875C7.8273 10.6875 7.66144 10.7562 7.53914 10.8785C7.41685 11.0008 7.34814 11.1667 7.34814 11.3396V11.9917C7.34814 12.1647 7.41685 12.3305 7.53914 12.4528C7.66144 12.5751 7.8273 12.6438 8.00025 12.6438C8.1732 12.6438 8.33906 12.5751 8.46136 12.4528C8.58365 12.3305 8.65235 12.1647 8.65235 11.9917V11.3396C8.65235 11.1667 8.58365 11.0008 8.46136 10.8785C8.33906 10.7562 8.1732 10.6875 8.00025 10.6875Z" fill="#1F1C2D"/>
<path d="M7.34814 5.47046V9.3831C7.34814 9.55604 7.41685 9.72191 7.53914 9.8442C7.66144 9.9665 7.8273 10.0352 8.00025 10.0352C8.1732 10.0352 8.33906 9.9665 8.46136 9.8442C8.58365 9.72191 8.65235 9.55604 8.65235 9.3831V5.47046C8.65235 5.29752 8.58365 5.13165 8.46136 5.00936C8.33906 4.88706 8.1732 4.81836 8.00025 4.81836C7.8273 4.81836 7.66144 4.88706 7.53914 5.00936C7.41685 5.13165 7.34814 5.29752 7.34814 5.47046Z" fill="#1F1C2D"/>
</svg>
