<svg width="33" height="25" viewBox="0 0 33 25" xmlns="http://www.w3.org/2000/svg">
<path d="M16.3739 13.312C16.1261 13.3418 15.8958 13.455 15.7208 13.6331L12.7874 16.5693C12.6749 16.6691 12.584 16.791 12.5203 16.9274C12.4567 17.0638 12.4217 17.2118 12.4174 17.3623C12.4132 17.5127 12.4398 17.6625 12.4956 17.8022C12.5515 17.942 12.6354 18.0688 12.7421 18.1749C12.8488 18.2809 12.9761 18.364 13.1162 18.4188C13.2562 18.4737 13.406 18.4992 13.5563 18.4938C13.7066 18.4885 13.8542 18.4523 13.99 18.3876C14.1258 18.3229 14.2468 18.231 14.3458 18.1176L15.3999 17.0625V23.8563C15.3979 24.0022 15.4248 24.1471 15.4792 24.2825C15.5335 24.4179 15.6142 24.5411 15.7166 24.645C15.8189 24.7489 15.9409 24.8314 16.0753 24.8878C16.2098 24.9441 16.3542 24.9731 16.4999 24.9731C16.6457 24.9731 16.79 24.9441 16.9245 24.8878C17.059 24.8314 17.181 24.7489 17.2833 24.645C17.3857 24.5411 17.4664 24.4179 17.5207 24.2825C17.5751 24.1471 17.602 24.0022 17.5999 23.8563V17.0625L18.6541 18.1176C18.753 18.231 18.8741 18.3229 19.0099 18.3876C19.1457 18.4523 19.2933 18.4885 19.4436 18.4938C19.5938 18.4992 19.7436 18.4737 19.8837 18.4188C20.0237 18.364 20.151 18.2809 20.2578 18.1749C20.3645 18.0688 20.4484 17.942 20.5042 17.8022C20.5601 17.6625 20.5867 17.5127 20.5824 17.3623C20.5782 17.2118 20.5432 17.0638 20.4795 16.9274C20.4159 16.791 20.325 16.6691 20.2124 16.5693L17.2791 13.6331C17.1623 13.5146 17.0201 13.4241 16.8634 13.3685C16.7066 13.3129 16.5392 13.2935 16.3739 13.312Z" fill="#2AB8C4"/>
<path d="M13.9333 0C9.00559 0 5.48169 4.14356 5.47708 8.55611C2.35128 9.11038 0 11.906 0 15.0478C0 19.0355 3.08574 22.0211 6.6 22.0211H10.2667C10.4124 22.0232 10.5571 21.9962 10.6924 21.9418C10.8277 21.8874 10.9508 21.8066 11.0546 21.7042C11.1584 21.6017 11.2408 21.4796 11.2971 21.345C11.3534 21.2104 11.3823 21.066 11.3823 20.92C11.3823 20.7741 11.3534 20.6297 11.2971 20.4951C11.2408 20.3604 11.1584 20.2384 11.0546 20.1359C10.9508 20.0335 10.8277 19.9527 10.6924 19.8983C10.5571 19.8439 10.4124 19.8169 10.2667 19.819H6.6C4.32117 19.819 2.2 17.9201 2.2 15.0478C2.2 12.7944 4.19532 10.6435 6.6 10.6435C6.75803 10.6436 6.91422 10.6095 7.05792 10.5437C7.20162 10.4779 7.32947 10.3818 7.43276 10.2621C7.53606 10.1424 7.61237 10.0018 7.65651 9.84991C7.70064 9.69803 7.71157 9.5384 7.68854 9.38191C7.19931 5.89477 9.92917 2.20211 13.9333 2.20211C15.1337 2.20211 16.1752 2.50074 17.0615 3.00496C17.3152 3.14945 17.6159 3.18712 17.8974 3.10969C18.1789 3.03226 18.4181 2.84606 18.5625 2.59207C18.7069 2.33807 18.7445 2.03708 18.6671 1.75531C18.5898 1.47354 18.4038 1.23407 18.15 1.08959C16.9469 0.405067 15.5144 0 13.9333 0ZM22.5385 3.54402C21.6861 3.5597 20.8329 3.75535 20.0406 4.15189C19.8999 4.20915 19.7726 4.29493 19.6667 4.40385C19.5608 4.51277 19.4785 4.64246 19.4251 4.78476C19.3717 4.92705 19.3483 5.07888 19.3564 5.23067C19.3645 5.38246 19.4039 5.53092 19.4722 5.66672C19.5404 5.80252 19.636 5.92271 19.7529 6.01972C19.8698 6.11673 20.0055 6.18846 20.1515 6.2304C20.2974 6.27233 20.4505 6.28357 20.601 6.26339C20.7515 6.24321 20.8962 6.19205 21.026 6.11315C22.1484 5.55145 23.5008 5.62899 24.5552 6.26225C25.6096 6.89551 26.4 8.04382 26.4 9.90949C26.4018 10.1684 26.4947 10.4184 26.6623 10.6155C26.8299 10.8127 27.0616 10.9444 27.3167 10.9876C29.3209 11.3242 30.8 13.3752 30.8 15.4148C30.8 17.8699 28.9142 19.819 25.6667 19.819H22.7333C22.5876 19.8169 22.4429 19.8439 22.3076 19.8983C22.1723 19.9527 22.0492 20.0335 21.9454 20.1359C21.8416 20.2384 21.7592 20.3604 21.7029 20.4951C21.6466 20.6297 21.6177 20.7741 21.6177 20.92C21.6177 21.066 21.6466 21.2104 21.7029 21.345C21.7592 21.4796 21.8416 21.6017 21.9454 21.7042C22.0492 21.8066 22.1723 21.8874 22.3076 21.9418C22.4429 21.9962 22.5876 22.0232 22.7333 22.0211H25.6667C29.8763 22.0211 33 19.0739 33 15.4148C33 12.6139 31.2296 9.90546 28.4969 9.03783C28.2466 6.93132 27.1686 5.26494 25.6781 4.36981C24.8303 3.86065 23.8772 3.58607 22.9052 3.54402C22.7837 3.53876 22.6603 3.54178 22.5385 3.54402Z" fill="#1F1C2D"/>
</svg>
