<svg width="140" height="35" viewBox="0 0 140 35" fill="none" xmlns="http://www.w3.org/2000/svg">
<path d="M108.186 11.9702H105.917L104.78 13.9275L105.917 15.8848H108.186L109.322 13.9275L108.186 11.9702Z" fill="#17E2D7"/>
<path d="M108.11 19.0869H105.995V31.9171H108.11V19.0869Z"/>
<path d="M65.1754 18.5779C64.082 18.578 63.0039 18.8348 62.0289 19.3275C61.0538 19.8202 60.2091 20.5348 59.5635 21.4134C58.9178 22.292 58.4894 23.3098 58.3129 24.3842C58.1364 25.4585 58.2168 26.5592 58.5477 27.5968C58.8786 28.6344 59.4506 29.5797 60.2172 30.356C60.9838 31.1323 61.9235 31.7176 62.96 32.0645C63.9964 32.4115 65.1004 32.5102 66.1824 32.3527C67.2643 32.1952 68.2938 31.7859 69.1871 31.158L67.9659 29.4335C67.1509 30.0102 66.1753 30.3189 65.1754 30.3165C64.0772 30.3142 63.0122 29.941 62.1547 29.2577C61.2973 28.5745 60.6982 27.6217 60.4554 26.5554H72.1299V25.5017C72.1281 23.6659 71.3948 21.9059 70.091 20.6078C68.7872 19.3098 67.0193 18.5797 65.1754 18.5779ZM60.4554 24.4532C60.6964 23.3851 61.2955 22.4306 62.154 21.7466C63.0125 21.0626 64.0793 20.69 65.1789 20.69C66.2785 20.69 67.3453 21.0626 68.2038 21.7466C69.0623 22.4306 69.6614 23.3851 69.9024 24.4532H60.4554Z"/>
<path d="M85.1298 25.602C85.1412 26.1621 85.0402 26.7188 84.8328 27.2396C84.6254 27.7603 84.3157 28.2346 83.9219 28.6347C83.528 29.0348 83.058 29.3527 82.5392 29.5697C82.0205 29.7867 81.4635 29.8984 80.9008 29.8984C80.3381 29.8984 79.7811 29.7867 79.2623 29.5697C78.7436 29.3527 78.2735 29.0348 77.8797 28.6347C77.4859 28.2346 77.1762 27.7603 76.9688 27.2396C76.7614 26.7188 76.6604 26.1621 76.6718 25.602V19.0869H74.5586V25.602C74.5586 27.2769 75.2269 28.8832 76.4164 30.0675C77.606 31.2518 79.2194 31.9171 80.9017 31.9171C82.584 31.9171 84.1973 31.2518 85.3869 30.0675C86.5765 28.8832 87.2447 27.2769 87.2447 25.602V19.0869H85.1298V25.602Z"/>
<path d="M96.0142 19.0869C94.3328 19.0892 92.7209 19.7553 91.5321 20.9392C90.3433 22.123 89.6747 23.728 89.6729 25.402V31.9171H91.7861V25.402C91.8085 24.3001 92.2639 23.2509 93.0545 22.4795C93.8452 21.7081 94.908 21.276 96.0151 21.276C97.1221 21.276 98.185 21.7081 98.9756 22.4795C99.7663 23.2509 100.222 24.3001 100.244 25.402V31.9171H102.357V25.402C102.355 23.7277 101.687 22.1225 100.497 20.9386C99.3082 19.7547 97.6959 19.0887 96.0142 19.0869Z"/>
<path d="M133.657 19.0869C131.975 19.0892 130.363 19.7553 129.175 20.9392C127.986 22.123 127.317 23.728 127.315 25.402V31.9171H129.429V25.402C129.429 24.2856 129.874 23.2149 130.667 22.4254C131.46 21.636 132.535 21.1925 133.657 21.1925C134.778 21.1925 135.854 21.636 136.647 22.4254C137.439 23.2149 137.885 24.2856 137.885 25.402V31.9171H140V25.402C139.998 23.7277 139.329 22.1225 138.14 20.9386C136.951 19.7547 135.338 19.0887 133.657 19.0869Z"/>
<path d="M118.164 18.5779C116.789 18.5779 115.444 18.984 114.301 19.7448C113.157 20.5056 112.266 21.5869 111.739 22.8521C111.213 24.1172 111.075 25.5094 111.344 26.8525C111.612 28.1956 112.274 29.4293 113.247 30.3976C114.22 31.3659 115.459 32.0253 116.808 32.2925C118.157 32.5596 119.555 32.4225 120.826 31.8985C122.097 31.3744 123.183 30.487 123.947 29.3484C124.711 28.2098 125.119 26.8711 125.119 25.5017C125.117 23.6659 124.384 21.9059 123.08 20.6078C121.776 19.3098 120.008 18.5797 118.164 18.5779ZM118.164 30.3199C117.207 30.3199 116.272 30.0373 115.476 29.5079C114.68 28.9785 114.06 28.226 113.693 27.3456C113.327 26.4651 113.231 25.4964 113.418 24.5617C113.605 23.6271 114.066 22.7685 114.742 22.0947C115.419 21.4209 116.282 20.962 117.22 20.7761C118.159 20.5901 119.132 20.6856 120.017 21.0502C120.901 21.4149 121.657 22.0325 122.188 22.8248C122.72 23.6172 123.004 24.5487 123.004 25.5017C123 26.7781 122.489 28.0012 121.582 28.9034C120.675 29.8057 119.447 30.3137 118.164 30.3165V30.3199Z"/>
<path d="M55.6049 20.3473C55.603 18.8611 55.0095 17.4363 53.9542 16.385C52.899 15.3338 51.4682 14.742 49.9754 14.7393H42.5879V32.0048H44.7115V25.9553H49.9997L53.6372 32.0514L55.4628 30.9719L52.2012 25.5001C53.2119 25.0657 54.0727 24.3464 54.6775 23.4307C55.2823 22.5151 55.6047 21.4432 55.6049 20.3473ZM49.9754 23.8411H44.7115V16.8535H49.9754C50.9062 16.8535 51.7988 17.2216 52.4569 17.8768C53.115 18.532 53.4847 19.4207 53.4847 20.3473C53.4847 21.2739 53.115 22.1626 52.4569 22.8178C51.7988 23.473 50.9062 23.8411 49.9754 23.8411Z"/>
<path d="M30.2207 34.8276H10.9854V9.89673H30.212L30.2207 34.8276ZM13.2804 32.5427H27.9256V12.1817H13.2804V32.5427Z" fill="#90A5B2"/>
<path d="M10.9042 0.828125C14.1611 0.910211 17.2525 2.27451 19.5008 4.622C21.6969 6.92643 22.8865 10.0032 22.8091 13.1789C22.7265 16.2891 21.4084 19.2398 19.1439 21.384C16.924 23.4773 13.9608 24.6085 10.9042 24.5295C7.91519 24.4475 5.08087 23.1885 3.02299 21.0288C1.01219 18.9141 -0.0736386 16.0915 0.00388322 13.1806C0.0883443 10.3365 1.30242 7.64185 3.37981 5.68773C5.4101 3.78328 8.1158 2.75762 10.9042 2.83543C8.18219 2.91771 5.60402 4.07118 3.7349 6.04298C1.91685 7.97095 0.939704 10.5373 1.01718 13.1806C1.09876 15.7597 2.20444 18.2013 4.09172 19.9699C5.93372 21.6849 8.38356 22.6027 10.9042 22.5222C13.3591 22.4408 15.6814 21.3933 17.3616 19.6095C18.9924 17.8704 19.8644 15.5586 19.7866 13.1806C19.7063 10.8708 18.7097 8.68674 17.0152 7.10699C16.1958 6.34854 15.2344 5.75821 14.1859 5.36971C13.1374 4.98121 12.0222 4.80214 10.9042 4.84273V0.828125Z" fill="#17E2D7"/>
</svg>
