<svg width="39" height="52" viewBox="0 0 39 52" fill="none" xmlns="http://www.w3.org/2000/svg">
<path d="M3.11188 30.0779L3.20938 30.2188C3.32854 30.3977 3.45313 30.5711 3.57771 30.7609L17.6935 51.0546C17.8966 51.3464 18.1672 51.5848 18.4822 51.7494C18.7972 51.914 19.1473 52 19.5027 52C19.8581 52 20.2082 51.914 20.5232 51.7494C20.8382 51.5848 21.1088 51.3464 21.3119 51.0546L35.3952 30.7771C35.5306 30.5874 35.6606 30.4031 35.7906 30.2351L35.8773 30.105C37.7803 27.1585 38.8543 23.7531 38.9862 20.2473C39.1181 16.7414 38.303 13.2649 36.6267 10.1835C34.9505 7.10221 32.475 4.5301 29.461 2.73797C26.447 0.945846 23.0059 0 19.5 0C15.9941 0 12.553 0.945846 9.53896 2.73797C6.52495 4.5301 4.04953 7.10221 2.37327 10.1835C0.697004 13.2649 -0.118084 16.7414 0.0138057 20.2473C0.145695 23.7531 1.21968 27.1585 3.12271 30.105L3.11188 30.0779ZM19.5027 11.394C21.1097 11.394 22.6806 11.8708 24.0167 12.7642C25.3529 13.6576 26.3943 14.9274 27.0092 16.4131C27.6242 17.8987 27.7851 19.5335 27.4716 21.1107C27.1581 22.6878 26.3843 24.1366 25.2479 25.2736C24.1116 26.4107 22.6639 27.1851 21.0878 27.4988C19.5117 27.8125 17.8781 27.6515 16.3934 27.0361C14.9088 26.4207 13.6398 25.3786 12.747 24.0416C11.8542 22.7045 11.3777 21.1326 11.3777 19.5245C11.3777 17.3682 12.2337 15.3001 13.7575 13.7754C15.2812 12.2506 17.3478 11.394 19.5027 11.394Z" fill="#2AB8C4"/>
</svg>
