<svg width="69" height="67" viewBox="0 0 69 67" fill="none" xmlns="http://www.w3.org/2000/svg">
<path fill-rule="evenodd" clip-rule="evenodd" d="M46.5665 59.0594C59.4731 52.4764 64.9309 37.6343 60.7184 24.0057C59.7667 20.9267 64.5692 19.6221 65.5141 22.6794C69.8328 36.6517 65.3238 51.8543 53.4809 60.6128C32.8651 75.8593 2.89016 62.1757 0.19785 36.8487C-2.72622 9.3413 27.3606 -8.77443 50.7786 4.38071C53.5746 5.95138 51.0642 10.2595 48.2684 8.68898C35.2603 1.38156 18.6431 4.56522 10.0459 17.0609C2.6754 27.7734 3.53103 42.5011 12.0407 52.3099C20.5265 62.0912 35.0381 64.9395 46.5665 59.0594ZM31.7416 40.9484L64.8488 2.26627C66.9381 -0.174861 70.4405 3.36993 68.3655 5.7943L33.54 46.4843C32.6974 47.4687 30.8734 47.4335 30.0232 46.4843L15.2723 30.0156C13.1373 27.6319 16.6452 24.094 18.7891 26.4875L31.7416 40.9484Z" fill="#2AB8C4"/>
</svg>
