<svg width="22" height="22" viewBox="0 0 22 22" xmlns="http://www.w3.org/2000/svg">
<path fill-rule="evenodd" clip-rule="evenodd" d="M20.8979 15.847C20.8791 15.7953 20.8535 15.7466 20.8217 15.7026C20.2803 14.7958 19.6128 13.9795 18.8414 13.2811L18.8109 13.2651V13.2491H18.7805C18.3387 12.8 18.0645 12.4954 17.9426 12.351C17.7406 12.1095 17.682 11.7701 17.7903 11.4691C18.0554 10.954 18.372 10.4701 18.7347 10.0258C19.0242 9.64089 19.2375 9.33622 19.405 9.09572C20.6085 7.42789 21.1264 6.35348 20.974 5.88848L20.9131 5.77615C20.8258 5.68473 20.7143 5.62323 20.5932 5.59982C20.3745 5.53857 20.146 5.52756 19.923 5.56773L16.922 5.58373C16.851 5.56607 16.7766 5.57173 16.7087 5.59982C16.6624 5.60707 16.6165 5.61782 16.5716 5.6319L16.526 5.6479L16.4802 5.69598C16.4371 5.72456 16.4007 5.7629 16.3736 5.80823C16.326 5.86415 16.2898 5.92965 16.267 6.00073C15.9578 6.84789 15.586 7.66823 15.155 8.45422C14.896 8.90322 14.6523 9.30414 14.439 9.62489C14.2781 9.8838 14.1 10.1303 13.9058 10.3626C13.7822 10.5001 13.6499 10.6287 13.5098 10.7475C13.433 10.8164 13.3364 10.856 13.2356 10.8597L13.0528 10.8116C12.9582 10.7466 12.8798 10.6586 12.8243 10.555C12.7615 10.4186 12.7203 10.2724 12.7024 10.1221C12.6872 9.94564 12.672 9.8013 12.672 9.67297V9.15981C12.6872 8.93531 12.6872 8.77497 12.6872 8.69481C12.6872 8.42214 12.6872 8.11748 12.7024 7.79673C12.7176 7.47606 12.7176 7.21948 12.7329 7.02698V6.41765C12.733 6.2514 12.7227 6.08531 12.7024 5.92048C12.6738 5.80073 12.6382 5.6829 12.5958 5.56773C12.5457 5.46506 12.4725 5.37698 12.3826 5.31115C12.2736 5.24398 12.1554 5.19523 12.0321 5.16681C11.5671 5.05973 11.0915 5.01132 10.6155 5.02248C9.77989 4.9544 8.93948 5.04123 8.13248 5.27907C7.98081 5.36298 7.84623 5.4774 7.7364 5.61581C7.61456 5.77615 7.59931 5.8564 7.69073 5.8724C8.03115 5.9019 8.34756 6.06848 8.57423 6.33748L8.63514 6.48181C8.69981 6.64106 8.74589 6.80798 8.77231 6.9789C8.83331 7.24173 8.86906 7.51039 8.87889 7.78073C8.90956 8.23448 8.90956 8.69006 8.87889 9.14381C8.83323 9.52864 8.80273 9.81731 8.77231 10.0258C8.75106 10.2031 8.70489 10.3761 8.63514 10.539C8.57423 10.6672 8.52856 10.7475 8.51331 10.7795L8.45239 10.8436C8.36406 10.8752 8.27148 10.8915 8.17814 10.8917C8.04615 10.8795 7.91973 10.8296 7.81256 10.7475C7.65906 10.6161 7.5164 10.4712 7.38606 10.3145C7.19615 10.0863 7.02782 9.83922 6.8834 9.57681C6.70057 9.25606 6.50257 8.87122 6.30448 8.43823L6.1369 8.11747C6.03032 7.90898 5.89323 7.62039 5.7104 7.21948C5.52765 6.81856 5.36007 6.44973 5.22299 6.0969C5.18224 5.95356 5.09624 5.82906 4.97924 5.74415L4.91832 5.71206C4.87057 5.66631 4.81307 5.63331 4.75074 5.61581C4.67665 5.58698 4.60015 5.56557 4.52224 5.55165L1.65841 5.56773C1.44049 5.53748 1.22141 5.6144 1.06433 5.77615L1.03383 5.84031C1.00458 5.89365 0.993829 5.95598 1.00341 6.01673C1.00475 6.11631 1.02541 6.21456 1.06433 6.3054C1.47558 7.33173 1.93258 8.32597 2.42007 9.28814C2.90749 10.2503 3.33407 11.0041 3.69965 11.5974C4.06524 12.1907 4.43082 12.7199 4.7964 13.2491C5.16199 13.7783 5.42099 14.099 5.54282 14.2434C5.63199 14.3573 5.72873 14.4645 5.83223 14.564L6.09123 14.8206C6.32207 15.0503 6.56623 15.2645 6.8224 15.4621C7.14231 15.7026 7.5079 15.9432 7.90398 16.1837C8.33531 16.4378 8.79614 16.6319 9.27498 16.761C9.76539 16.9049 10.2746 16.9645 10.7831 16.9375H11.9865C12.1926 16.9387 12.3906 16.8519 12.5349 16.6969L12.5806 16.6488C12.6583 16.4905 12.6951 16.3135 12.6872 16.1356C12.6793 15.8554 12.7049 15.5752 12.7634 15.3017C12.7912 15.0994 12.8531 14.9039 12.9461 14.7245C13.0009 14.6065 13.0729 14.4982 13.1594 14.4037C13.2132 14.3418 13.2747 14.2879 13.3422 14.2434C13.3658 14.2285 13.3916 14.2176 13.4184 14.2113C13.6294 14.1622 13.85 14.2218 14.0125 14.3716C14.2511 14.5555 14.4661 14.7711 14.6523 15.013C14.8503 15.2536 15.0788 15.5423 15.353 15.863C15.5785 16.1134 15.823 16.344 16.0842 16.5525L16.2975 16.6809C16.4668 16.7915 16.652 16.8727 16.8458 16.9214C17.0301 16.9957 17.2297 17.0178 17.4247 16.9855L20.0905 16.9375C20.3005 16.947 20.5095 16.903 20.6998 16.8091C20.821 16.7476 20.9141 16.638 20.9588 16.5045C20.9869 16.3838 20.9921 16.2585 20.974 16.1356C20.9536 16.038 20.9282 15.9416 20.8979 15.847Z"/>
</svg>
