<svg width="432" height="561" viewBox="0 0 432 561" fill="none" xmlns="http://www.w3.org/2000/svg">
<g opacity="0.15">
<path d="M500 561.412H181.755V149.748H499.857L500 561.412ZM219.727 523.682H462.029V187.477H219.727V523.682Z" fill="white"/>
<path d="M180.408 0C234.293 1.35542 285.44 23.883 322.637 62.6451C358.971 100.696 378.653 151.501 377.373 203.938C376.006 255.295 354.199 304.017 316.733 339.423C280.005 373.988 230.978 392.666 180.408 391.361C130.955 390.007 84.0622 369.219 50.0148 333.557C16.7465 298.64 -1.21834 252.032 0.0642471 203.967C1.46164 157.004 21.5484 112.509 55.9184 80.2427C89.5091 48.796 134.274 31.8601 180.408 33.145C135.373 34.5036 92.7175 53.55 61.7932 86.1086C31.714 117.944 15.5472 160.319 16.8291 203.967C18.1788 246.553 36.4721 286.87 67.6967 316.073C98.1723 344.39 138.705 359.546 180.408 358.216C221.024 356.873 259.446 339.576 287.244 310.122C314.226 281.405 328.653 243.233 327.365 203.967C326.037 165.826 309.549 129.763 281.513 103.678C267.957 91.1541 252.051 81.4065 234.703 74.9915C217.355 68.5764 198.906 65.6196 180.408 66.2899V0Z" fill="white"/>
</g>
</svg>
