<svg width="18" height="30" viewBox="0 0 18 30" fill="none" xmlns="http://www.w3.org/2000/svg">
<path fill-rule="evenodd" clip-rule="evenodd" d="M16 21V9C16 5.13401 12.866 2 9 2C5.13401 2 2 5.13401 2 9V21C2 24.866 5.13401 28 9 28C12.866 28 16 24.866 16 21ZM9 0C4.02944 0 0 4.02944 0 9V21C0 25.9706 4.02944 30 9 30C13.9706 30 18 25.9706 18 21V9C18 4.02944 13.9706 0 9 0Z" fill="#1F1C2D"/>
<path fill-rule="evenodd" clip-rule="evenodd" d="M9 6C9.55228 6 10 6.44772 10 7L10 11C10 11.5523 9.55228 12 9 12C8.44772 12 8 11.5523 8 11L8 7C8 6.44772 8.44772 6 9 6Z" fill="#2AB8C4"/>
</svg>
