<svg width="64" height="64" viewBox="0 0 64 64" fill="none" xmlns="http://www.w3.org/2000/svg">
<path d="M32.394 28C33.692 28 34.935 28.384 36 29.06V12C36 11.447 35.553 11 35 11H29C28.447 11 28 11.447 28 12V28.986C29.335 28.358 30.821 28 32.394 28Z" fill="#2AB8C4"/>
<path d="M39.48 31.633H39.499C41.325 29.503 44.002 28.134 47 28.021V17C47 16.447 46.553 16 46 16H40C39.447 16 39 16.447 39 17V31.382C39.162 31.462 39.327 31.539 39.48 31.633Z" fill="#2AB8C4"/>
<path d="M17.394 28C19.647 28 21.75 29.126 23 31C23.35 31.087 23.684 31.209 24 31.36L24.746 31.373C24.827 31.285 24.917 31.207 25 31.123V17C25 16.447 24.553 16 24 16H18C17.447 16 17 16.447 17 17V28.02C17.132 28.015 17.261 28 17.394 28Z" fill="#2AB8C4"/>
<path d="M53 31C55.351 31.588 57 33.7 57 36.123V37H58V12C58 11.447 57.553 11 57 11H51C50.447 11 50 11.447 50 12V28.534C51.203 29.039 52.255 29.883 53 31Z" fill="#2AB8C4"/>
<path d="M7.1 37C7.629 33.07 10.352 29.84 14 28.578V12C14 11.447 13.553 11 13 11H7C6.447 11 6 11.447 6 12V37H7.1Z" fill="#2AB8C4"/>
<path d="M10 7C10.768 7 11.461 6.702 11.992 6.226L18.047 9.529C18.023 9.683 18 9.839 18 10C18 11.654 19.346 13 21 13C22.654 13 24 11.654 24 10C24 9.839 23.977 9.683 23.952 9.529L30.007 6.226C30.539 6.702 31.232 7 32 7C32.794 7 33.512 6.685 34.049 6.18L40.04 9.604C40.023 9.734 40 9.864 40 10C40 11.654 41.346 13 43 13C44.654 13 46 11.654 46 10C46 9.864 45.977 9.734 45.96 9.603L51.951 6.179C52.488 6.685 53.206 7 54 7C55.654 7 57 5.654 57 4C57 2.346 55.654 1 54 1C52.346 1 51 2.346 51 4C51 4.136 51.023 4.266 51.04 4.397L45.049 7.82C44.512 7.315 43.794 7 43 7C42.206 7 41.488 7.315 40.951 7.82L34.96 4.397C34.977 4.266 35 4.136 35 4C35 2.346 33.654 1 32 1C30.346 1 29 2.346 29 4C29 4.161 29.023 4.317 29.048 4.471L22.993 7.774C22.461 7.298 21.768 7 21 7C20.232 7 19.539 7.298 19.008 7.774L12.953 4.471C12.977 4.317 13 4.161 13 4C13 2.346 11.654 1 10 1C8.346 1 7 2.346 7 4C7 5.654 8.346 7 10 7ZM54 3C54.551 3 55 3.449 55 4C55 4.551 54.551 5 54 5C53.449 5 53 4.551 53 4C53 3.449 53.449 3 54 3ZM43 9C43.551 9 44 9.449 44 10C44 10.551 43.551 11 43 11C42.449 11 42 10.551 42 10C42 9.449 42.449 9 43 9ZM32 3C32.551 3 33 3.449 33 4C33 4.551 32.551 5 32 5C31.449 5 31 4.551 31 4C31 3.449 31.449 3 32 3ZM21 9C21.551 9 22 9.449 22 10C22 10.551 21.551 11 21 11C20.449 11 20 10.551 20 10C20 9.449 20.449 9 21 9ZM10 3C10.551 3 11 3.449 11 4C11 4.551 10.551 5 10 5C9.449 5 9 4.551 9 4C9 3.449 9.449 3 10 3Z" fill="#1F1C2D"/>
<path d="M62.961 61.725L61.966 58.243C61.243 55.712 59.19 53.819 56.609 53.303L51 52.18V52C51 51.974 50.987 51.952 50.985 51.927C52.843 50.854 54.227 49.058 54.756 46.924C56.601 46.568 58 44.947 58 43V36.123C58 33.365 56.215 30.956 53.614 30.135C52.158 28.165 49.86 27 47.395 27C44.33 27 41.425 28.241 39.289 30.409C39.068 30.31 38.849 30.209 38.614 30.135C37.158 28.165 34.86 27 32.395 27C29.225 27 26.355 28.304 24.288 30.4C24.068 30.301 23.845 30.207 23.615 30.134C22.158 28.165 19.86 27 17.395 27C11.111 27 5.99999 32.111 5.99999 38.395V43C5.99999 44.947 7.39899 46.568 9.24399 46.924C9.77399 49.058 11.157 50.854 13.015 51.927C13.013 51.952 13 51.974 13 52V52.18L7.39199 53.302C4.80999 53.818 2.75699 55.711 2.03399 58.242L1.03899 61.724C0.952988 62.026 1.01299 62.35 1.20199 62.601C1.39099 62.852 1.68599 63 1.99999 63H17H47H62C62.314 63 62.609 62.853 62.798 62.602C62.987 62.351 63.048 62.027 62.961 61.725ZM47 51C44.204 51 41.799 49.027 41.177 46.347C42.272 45.633 43 44.402 43 43V40.42C44.054 40.007 45.029 39.385 45.828 38.586L46.094 38.32L46.2 38.4C48.169 39.877 50.552 40.769 53 40.961V45C53 48.309 50.309 51 47 51ZM43 52.18L39.5 52.88L36 52.18V52C36 51.974 35.987 51.952 35.985 51.927C37.594 50.997 38.847 49.526 39.498 47.761C40.153 49.53 41.414 50.995 43.015 51.922C43.014 51.949 43 51.972 43 52V52.18ZM24.501 52.88L21 52.18V52C21 51.972 20.986 51.949 20.984 51.922C22.585 50.995 23.846 49.53 24.501 47.761C25.153 49.525 26.405 50.997 28.014 51.927C28.013 51.952 28 51.974 28 52V52.18L24.501 52.88ZM24 44.722C23.405 44.375 23 43.737 23 43C23 42.263 23.405 41.625 24 41.278V44.722ZM26 45V40.94C27.823 40.721 29.51 39.904 30.828 38.586L31.094 38.32L31.2 38.4C33.169 39.877 35.552 40.769 38 40.961V45C38 48.309 35.309 51 32 51C28.691 51 26 48.309 26 45ZM41 43C41 43.737 40.595 44.375 40 44.722V41.278C40.595 41.625 41 42.263 41 43ZM55 44.722V41.278C55.595 41.625 56 42.263 56 43C56 43.737 55.595 44.375 55 44.722ZM47.395 29C49.317 29 51.102 29.955 52.168 31.555C52.306 31.762 52.516 31.91 52.757 31.971C54.667 32.448 56 34.155 56 36.123V39.556C55.409 39.212 54.732 39 54 39C51.636 39 49.292 38.219 47.4 36.8L46.6 36.2C46.202 35.901 45.645 35.941 45.293 36.293L44.414 37.172C43.998 37.588 43.516 37.936 43 38.219V36.123C43 34.326 42.233 32.686 40.985 31.528C42.717 29.911 45 29 47.395 29ZM32.395 29C34.317 29 36.102 29.955 37.168 31.555C37.306 31.762 37.516 31.91 37.757 31.971C39.667 32.448 41 34.155 41 36.123V39.556C40.409 39.212 39.732 39 39 39C36.636 39 34.292 38.219 32.4 36.8L31.6 36.2C31.202 35.901 30.644 35.941 30.293 36.293L29.414 37.172C28.235 38.351 26.667 39 25 39C24.268 39 23.591 39.212 23 39.556V38.394C23 33.214 27.214 29 32.395 29ZM17.395 29C19.317 29 21.102 29.955 22.168 31.555C22.306 31.762 22.516 31.91 22.758 31.971C22.822 31.987 22.88 32.019 22.943 32.038C21.717 33.854 21 36.042 21 38.395V38.576C19.705 38.207 18.477 37.608 17.4 36.8L16.6 36.2C16.202 35.901 15.644 35.941 15.293 36.293L14.414 37.172C13.235 38.351 11.667 39 9.99999 39C9.26799 39 8.59099 39.212 7.99999 39.556V38.394C7.99999 33.214 12.214 29 17.395 29ZM7.99999 43C7.99999 42.263 8.40499 41.625 8.99999 41.278V44.722C8.40499 44.375 7.99999 43.737 7.99999 43ZM11 45V40.94C12.823 40.721 14.51 39.904 15.828 38.586L16.094 38.32L16.2 38.4C17.622 39.467 19.271 40.213 21 40.625V43C21 44.402 21.728 45.633 22.823 46.347C22.201 49.027 19.796 51 17 51C13.691 51 11 48.309 11 45ZM3.95699 58.792C4.47399 56.984 5.93999 55.631 7.78399 55.263L14.197 53.98C14.664 53.887 15 53.477 15 53V52.737C15.641 52.903 16.308 53 17 53C17.688 53 18.357 52.906 19 52.738V53C19 53.477 19.336 53.887 19.804 53.98L20.321 54.083C18.746 54.971 17.549 56.439 17.034 58.242L16.246 61H3.32599L3.95699 58.792ZM40.781 61L39.97 57.757C39.836 57.221 39.291 56.895 38.757 57.029C38.221 57.163 37.896 57.706 38.029 58.242L38.719 61H25.281L25.97 58.243C26.104 57.707 25.778 57.164 25.242 57.03C24.709 56.896 24.163 57.222 24.029 57.758L23.219 61H18.326L18.957 58.792C19.474 56.984 20.94 55.631 22.784 55.263L29.197 53.98C29.664 53.887 30 53.477 30 53V52.737C30.641 52.903 31.308 53 32 53C32.692 53 33.359 52.903 34 52.737V53C34 53.477 34.336 53.887 34.804 53.98L41.217 55.263C43.061 55.632 44.527 56.984 45.044 58.792L45.674 61H40.781ZM47.754 61L46.966 58.243C46.451 56.44 45.254 54.973 43.679 54.084L44.196 53.981C44.664 53.887 45 53.477 45 53V52.738C45.643 52.906 46.312 53 47 53C47.692 53 48.359 52.903 49 52.737V53C49 53.477 49.336 53.887 49.804 53.98L56.217 55.263C58.061 55.632 59.527 56.984 60.044 58.792L60.674 61H47.754Z" fill="#1F1C2D"/>
</svg>
