<svg width="64" height="64" viewBox="0 0 64 64" fill="none" xmlns="http://www.w3.org/2000/svg">
<path d="M16 40H10C9.448 40 9 39.552 9 39V33C9 32.448 9.448 32 10 32H16C16.552 32 17 32.448 17 33V39C17 39.552 16.552 40 16 40Z" fill="#2AB8C4"/>
<path d="M16 50H10C9.448 50 9 49.552 9 49V43C9 42.448 9.448 42 10 42H16C16.552 42 17 42.448 17 43V49C17 49.552 16.552 50 16 50Z" fill="#2AB8C4"/>
<path d="M44 31H40C39.447 31 39 30.0315 39 28.8333V20.1667C39 18.9685 39.447 18 40 18H44C44.553 18 45 18.9685 45 20.1667V28.8333C45 30.0315 44.553 31 44 31Z" fill="#2AB8C4"/>
<path d="M27.8333 12H19.1667C17.9685 12 17 11.404 17 10.6667V5.33333C17 4.596 17.9685 4 19.1667 4H27.8333C29.0315 4 30 4.596 30 5.33333V10.6667C30 11.404 29.0315 12 27.8333 12Z" fill="#2AB8C4"/>
<path d="M9.29301 36.707L11.293 38.707C11.488 38.902 11.744 39 12 39C12.256 39 12.512 38.902 12.707 38.707L17.707 33.707C18.098 33.316 18.098 32.684 17.707 32.293C17.316 31.902 16.684 31.902 16.293 32.293L12 36.586L10.707 35.293C10.316 34.902 9.68401 34.902 9.29301 35.293C8.90201 35.684 8.90201 36.316 9.29301 36.707Z" fill="#1F1C2D"/>
<path d="M16.293 42.293L12 46.586L10.707 45.293C10.316 44.902 9.68401 44.902 9.29301 45.293C8.90201 45.684 8.90201 46.316 9.29301 46.707L11.293 48.707C11.488 48.902 11.744 49 12 49C12.256 49 12.512 48.902 12.707 48.707L17.707 43.707C18.098 43.316 18.098 42.684 17.707 42.293C17.316 41.902 16.684 41.902 16.293 42.293Z" fill="#1F1C2D"/>
<path d="M21 35H28C28.552 35 29 34.552 29 34C29 33.448 28.552 33 28 33H21C20.448 33 20 33.448 20 34C20 34.552 20.448 35 21 35Z" fill="#1F1C2D"/>
<path d="M21 39H28C28.552 39 29 38.552 29 38C29 37.448 28.552 37 28 37H21C20.448 37 20 37.448 20 38C20 38.552 20.448 39 21 39Z" fill="#1F1C2D"/>
<path d="M21 45H28C28.552 45 29 44.552 29 44C29 43.448 28.552 43 28 43H21C20.448 43 20 43.448 20 44C20 44.552 20.448 45 21 45Z" fill="#1F1C2D"/>
<path d="M21 49H28C28.552 49 29 48.552 29 48C29 47.448 28.552 47 28 47H21C20.448 47 20 47.448 20 48C20 48.552 20.448 49 21 49Z" fill="#1F1C2D"/>
<path d="M62 37C62.552 37 63 36.552 63 36V2C63 1.448 62.552 1 62 1H15C14.448 1 14 1.448 14 2V17C14 17.039 14.018 17.072 14.022 17.109C13.483 17.658 13.02 18.286 12.681 19H10C9.448 19 9 19.448 9 20V21H6C3.243 21 1 23.243 1 26V58C1 60.757 3.243 63 6 63H32C34.757 63 37 60.757 37 58V55H59C61.206 55 63 53.206 63 51V50.364C63 46.303 59.697 43 55.636 43C53.669 43 51.82 43.766 50.429 45.157L49.121 46.465C48.776 46.81 48.317 47 47.829 47C46.82 47 46 46.18 46 45.171V44C46 43.448 45.552 43 45 43C44.448 43 44 43.448 44 44V45.171C44 45.837 44.186 46.454 44.486 47H37V37H62ZM61 35H37V26C37 23.586 35.279 21.566 33 21.101V3H42V8C42 8.552 42.448 9 43 9H55C55.552 9 56 8.552 56 8V3H61V35ZM50 49V53H39V49H50ZM37 52.912L32.539 51L37 49.088V52.912ZM10 29H28C28.552 29 29 28.552 29 28V27H31V49.484L29.606 50.081C29.238 50.238 29 50.6 29 51C29 51.4 29.238 51.762 29.606 51.919L31 52.516V57H7V27H9V28C9 28.552 9.448 29 10 29ZM33 48.626V26C33 25.448 32.552 25 32 25H29V23H32C33.654 23 35 24.346 35 26V47.769L33 48.626ZM51 4C50.448 4 50 4.448 50 5V7H48V5C48 4.448 47.552 4 47 4C46.448 4 46 4.448 46 5V7H44V3H54V7H52V5C52 4.448 51.552 4 51 4ZM16 3H31V21H29V20C29 19.448 28.552 19 28 19H25.319C24.17 16.581 21.714 15 19 15C17.938 15 16.92 15.249 16 15.688V3ZM11 21H13.349C13.773 21 14.15 20.733 14.292 20.334C14.998 18.34 16.89 17 19 17C21.11 17 23.002 18.34 23.708 20.334C23.85 20.733 24.228 21 24.651 21H27V27H11V21ZM32 61H6C4.346 61 3 59.654 3 58V26C3 24.346 4.346 23 6 23H9V25H6C5.448 25 5 25.448 5 26V58C5 58.552 5.448 59 6 59H32C32.552 59 33 58.552 33 58V53.374L35 54.231V58C35 59.654 33.654 61 32 61ZM59 53H52V49H59C60.103 49 61 49.897 61 51C61 52.103 60.103 53 59 53ZM55.636 45C57.36 45 58.879 45.831 59.861 47.099C59.583 47.037 59.296 47 59 47H51.414L51.843 46.571C52.856 45.558 54.203 45 55.636 45Z" fill="#1F1C2D"/>
<path d="M48 25C47.448 25 47 25.448 47 26C47 26.552 47.448 27 48 27H58C58.552 27 59 26.552 59 26C59 25.448 58.552 25 58 25H48Z" fill="#1F1C2D"/>
<path d="M54 29H48C47.448 29 47 29.448 47 30C47 30.552 47.448 31 48 31H54C54.552 31 55 30.552 55 30C55 29.448 54.552 29 54 29Z" fill="#1F1C2D"/>
<path d="M58 31C58.5523 31 59 30.5523 59 30C59 29.4477 58.5523 29 58 29C57.4477 29 57 29.4477 57 30C57 30.5523 57.4477 31 58 31Z" fill="#1F1C2D"/>
</svg>
