<svg display="none" xmlns="http://www.w3.org/2000/svg">
<style type="text/css">
      <symbol id="mac" viewBox="0 0 13.802 13.802">
      <g>
         <path fill="white" d="M10.668,7.333c-0.018-1.749,1.426-2.586,1.49-2.628c-0.811-1.185-2.073-1.348-2.524-1.366
            c-1.073-0.11-2.096,0.632-2.642,0.632c-0.544,0-1.386-0.617-2.277-0.601C3.543,3.388,2.464,4.052,1.86,5.1
            c-1.217,2.112-0.312,5.24,0.874,6.955c0.58,0.838,1.272,1.779,2.179,1.746c0.874-0.035,1.204-0.566,2.261-0.566
            s1.354,0.566,2.278,0.549c0.941-0.018,1.536-0.855,2.111-1.695c0.666-0.973,0.94-1.916,0.957-1.963
            C12.498,10.114,10.687,9.421,10.668,7.333z"/>
         <path fill="white" d="M8.93,2.204C9.411,1.621,9.737,0.809,9.648,0C8.953,0.028,8.114,0.461,7.615,1.045
            C7.168,1.562,6.779,2.387,6.883,3.18C7.657,3.241,8.449,2.786,8.93,2.204z"/>
      </g>
      </symbol>

   <symbol id="android2" viewBox="0 0 22 28">>
      <path fill="#fff" d="M7.703 7.547c0.344 0 0.609-0.281 0.609-0.609s-0.266-0.609-0.609-0.609c-0.328 0-0.594 0.281-0.594 0.609s0.266 0.609 0.594 0.609zM14.297 7.547c0.328 0 0.594-0.281 0.594-0.609s-0.266-0.609-0.594-0.609c-0.344 0-0.609 0.281-0.609 0.609s0.266 0.609 0.609 0.609zM1.609 10.422c0.875 0 1.594 0.719 1.594 1.594v6.719c0 0.891-0.703 1.609-1.594 1.609s-1.609-0.719-1.609-1.609v-6.719c0-0.875 0.719-1.594 1.609-1.594zM18.172 10.719v10.406c0 0.953-0.766 1.719-1.703 1.719h-1.172v3.547c0 0.891-0.719 1.609-1.609 1.609s-1.609-0.719-1.609-1.609v-3.547h-2.156v3.547c0 0.891-0.719 1.609-1.609 1.609-0.875 0-1.594-0.719-1.594-1.609l-0.016-3.547h-1.156c-0.953 0-1.719-0.766-1.719-1.719v-10.406h14.344zM14.547 4.391c2.188 1.125 3.672 3.281 3.672 5.766h-14.453c0-2.484 1.484-4.641 3.687-5.766l-1.109-2.047c-0.063-0.109-0.031-0.25 0.078-0.313 0.109-0.047 0.25-0.016 0.313 0.094l1.125 2.063c0.953-0.422 2.016-0.656 3.141-0.656s2.188 0.234 3.141 0.656l1.125-2.063c0.063-0.109 0.203-0.141 0.313-0.094 0.109 0.063 0.141 0.203 0.078 0.313zM22 12.016v6.719c0 0.891-0.719 1.609-1.609 1.609-0.875 0-1.594-0.719-1.594-1.609v-6.719c0-0.891 0.719-1.594 1.594-1.594 0.891 0 1.609 0.703 1.609 1.594z"></path>
   </symbol>

   <symbol id="windows" xmlns="http://www.w3.org/2000/svg" viewBox="0 0 26 28">
      <path fill="white" d="M10.656 15.719v10.172l-10.656-1.469v-8.703h10.656zM10.656 4.109v10.297h-10.656v-8.828zM26 15.719v12.281l-14.172-1.953v-10.328h14.172zM26 2v12.406h-14.172v-10.453z"></path>
   </symbol>
</svg>
