<svg width="4" height="9" viewBox="0 0 4 9" fill="none" xmlns="http://www.w3.org/2000/svg">
<path d="M2.02542 8.01815C1.63269 8.01815 1.43633 7.78906 1.43633 7.33088C1.43633 7.20815 1.45678 7.03633 1.49769 6.81542L2.00087 4.26269C2.02542 4.14815 2.03769 4.05406 2.03769 3.98042C2.03769 3.87406 2.01723 3.79633 1.97633 3.74724C1.93542 3.68997 1.88223 3.66133 1.81678 3.66133C1.64496 3.66133 1.41178 3.82497 1.11723 4.15224C1.10905 4.16042 1.09678 4.16451 1.08042 4.16451C1.04769 4.16451 1.02314 4.15224 1.00678 4.12769C0.990416 4.09497 0.990416 4.06633 1.00678 4.04178C1.30133 3.69815 1.56723 3.4486 1.80451 3.29315C2.04178 3.13769 2.27496 3.05997 2.50405 3.05997C2.89678 3.05997 3.09314 3.27269 3.09314 3.69815C3.09314 3.83724 3.07678 3.97633 3.04405 4.11542L2.5286 6.81542C2.51223 6.88906 2.50405 6.98315 2.50405 7.09769C2.50405 7.29406 2.56542 7.39224 2.68814 7.39224C2.76996 7.39224 2.85996 7.35542 2.95814 7.28179C3.06451 7.20815 3.19133 7.10178 3.3386 6.96269C3.35496 6.94633 3.37132 6.93815 3.38769 6.93815C3.41223 6.93815 3.43269 6.95451 3.44905 6.98724C3.46542 7.01178 3.46133 7.03633 3.43678 7.06088C3.1586 7.38815 2.90905 7.62951 2.68814 7.78497C2.47542 7.94042 2.25451 8.01815 2.02542 8.01815ZM2.84769 1.7836C2.63496 1.7836 2.46314 1.72224 2.33223 1.59951C2.20951 1.4686 2.14814 1.29269 2.14814 1.07178C2.14814 0.875421 2.20951 0.715876 2.33223 0.593148C2.46314 0.470421 2.63496 0.409058 2.84769 0.409058C3.06042 0.409058 3.22405 0.470421 3.3386 0.593148C3.46133 0.715876 3.52269 0.875421 3.52269 1.07178C3.52269 1.30088 3.46133 1.47678 3.3386 1.59951C3.22405 1.72224 3.06042 1.7836 2.84769 1.7836Z" fill="white"/>
</svg>
