<svg display="none"  xmlns="http://www.w3.org/2000/svg">
<style type="text/css">

   <!-- burger -->
   <symbol id="burger-off" viewBox="0 0 29 24">
      <g>
         <path d="M2 2H27" stroke="#4479BC" stroke-width="3" stroke-linecap="round" stroke-linejoin="round"></path>
         <path d="M2 12H27" stroke="#4479BC" stroke-width="3" stroke-linecap="round" stroke-linejoin="round"></path>
         <path d="M2 22H27" stroke="#4479BC" stroke-width="3" stroke-linecap="round" stroke-linejoin="round"></path>
      </g>
   </symbol>

   <symbol id="burger-on" width="23" height="19" viewBox="0 0 23 19">
      <path d="M1 17.2142L21.5004 1.3047M1.00013 1.3042L21.4791 17.2427" stroke="#4479BC" stroke-width="2" stroke-linecap="round" stroke-linejoin="round"/>
   </symbol>

   <!-- search -->
   <symbol id="search" viewBox="0 0 25 25">
      <path fill-rule="evenodd" clip-rule="evenodd" d="M18.5197 16.1211L25 22.6014L22.6014 25L16.1211 18.5197C11.7977 21.5959 5.83834 20.8456 2.41235 16.7939C-1.01364 12.7421 -0.762975 6.74091 2.98897 2.98897C6.74091 -0.762975 12.7421 -1.01364 16.7939 2.41235C20.8456 5.83834 21.5959 11.7977 18.5197 16.1211ZM10.2366 2.32402C5.86665 2.32402 2.32412 5.86654 2.32412 10.2365C2.3291 14.6043 5.86871 18.144 10.2366 18.1489C14.6065 18.1489 18.149 14.6064 18.149 10.2365C18.149 5.86654 14.6065 2.32402 10.2366 2.32402Z" fill="#111111"></path>
   </symbol>

   <symbol id="search-white" viewBox="0 0 25 25">
      <path fill-rule="evenodd" clip-rule="evenodd" d="M14.8158 12.8969L20 18.0811L18.0811 20L12.8969 14.8158C9.4382 17.2767 4.67067 16.6765 1.92988 13.4351C-0.810911 10.1937 -0.61038 5.39272 2.39117 2.39117C5.39272 -0.61038 10.1937 -0.810911 13.4351 1.92988C16.6765 4.67067 17.2767 9.4382 14.8158 12.8969ZM8.18934 1.85913C4.6934 1.85913 1.85937 4.69315 1.85937 8.1891C1.86336 11.6834 4.69505 14.5151 8.18934 14.5191C11.6853 14.5191 14.5193 11.685 14.5193 8.1891C14.5193 4.69315 11.6853 1.85913 8.18934 1.85913Z" fill="white"/>
   </symbol>

   <!-- viber -->
   <symbol id="viber" viewBox="0 0 32 32">
      <path fill="#fff" d="M15.197 0.003c-2.567 0.035-8.089 0.456-11.179 3.287-2.293 2.28-3.095 5.641-3.188 9.804-0.080 4.147-0.173 11.933 7.333 14.055v3.227c0 0-0.051 1.293 0.803 1.56 1.053 0.333 1.653-0.665 2.653-1.732l1.867-2.107c5.133 0.427 9.067-0.559 9.52-0.705 1.040-0.333 6.908-1.081 7.868-8.869 0.987-8.041-0.48-13.108-3.12-15.401l-0.013-0.003c-0.8-0.733-4-3.067-11.16-3.093 0 0-0.528-0.033-1.384-0.021zM15.287 2.265c0.727-0.004 1.173 0.027 1.173 0.027 6.053 0.013 8.948 1.84 9.628 2.453 2.227 1.905 3.371 6.475 2.533 13.189-0.8 6.507-5.56 6.92-6.44 7.2-0.373 0.12-3.84 0.973-8.203 0.693 0 0-3.252 3.921-4.265 4.935-0.16 0.173-0.347 0.227-0.467 0.2-0.173-0.040-0.227-0.253-0.213-0.547l0.027-5.359c-6.361-1.76-5.988-8.403-5.921-11.869 0.080-3.467 0.733-6.309 2.667-8.229 2.609-2.36 7.3-2.68 9.481-2.693zM15.767 5.732c-0 0-0.001 0-0.001 0-0.22 0-0.399 0.178-0.399 0.399 0 0 0 0 0 0v0c0 0.221 0.179 0.4 0.4 0.4v0c0.043-0.001 0.093-0.001 0.143-0.001 2.034 0 3.88 0.809 5.232 2.123l-0.002-0.002c1.453 1.413 2.161 3.307 2.188 5.787 0 0.221 0.179 0.4 0.4 0.4v0-0.012c0.221 0 0.4-0.179 0.4-0.4v0c0.005-0.109 0.008-0.236 0.008-0.364 0-2.326-0.923-4.436-2.423-5.985l0.002 0.002c-1.587-1.547-3.589-2.347-5.948-2.347zM10.495 6.652c-0.054-0.008-0.116-0.013-0.18-0.013-0.236 0-0.457 0.064-0.646 0.176l0.006-0.003h-0.016c-0.547 0.32-1.051 0.72-1.531 1.253-0.36 0.427-0.561 0.852-0.615 1.265-0.009 0.064-0.014 0.137-0.014 0.212 0 0.182 0.029 0.357 0.084 0.521l-0.003-0.012 0.027 0.013c0.458 1.331 0.998 2.476 1.646 3.549l-0.046-0.082c0.895 1.608 1.922 2.996 3.101 4.237l-0.008-0.009 0.040 0.053 0.053 0.040 0.080 0.080c1.236 1.174 2.628 2.205 4.136 3.053l0.104 0.054c1.76 0.96 2.829 1.413 3.469 1.6v0.013c0.187 0.053 0.357 0.080 0.531 0.080 0.57-0.043 1.079-0.274 1.471-0.631l-0.002 0.002c0.52-0.467 0.933-0.984 1.24-1.531v-0.013c0.307-0.573 0.2-1.121-0.24-1.495-0.845-0.742-1.782-1.421-2.781-2.007l-0.085-0.046c-0.68-0.373-1.373-0.147-1.653 0.227l-0.6 0.759c-0.307 0.373-0.867 0.32-0.867 0.32l-0.016 0.013c-4.16-1.067-5.267-5.279-5.267-5.279s-0.053-0.573 0.333-0.867l0.747-0.6c0.36-0.293 0.613-0.987 0.227-1.667-0.631-1.084-1.31-2.022-2.071-2.887l0.017 0.020c-0.166-0.204-0.399-0.349-0.665-0.399l-0.007-0.001zM16.459 7.839c-0.22 0.001-0.399 0.18-0.399 0.4s0.179 0.4 0.4 0.4c0 0 0.001 0 0.001 0h-0c1.388 0.025 2.636 0.607 3.532 1.532l0.001 0.001c0.75 0.825 1.209 1.926 1.209 3.134 0 0.103-0.003 0.205-0.010 0.306l0.001-0.014c0.001 0.22 0.18 0.399 0.4 0.399 0 0 0 0 0 0v0l0.013 0.016c0 0 0 0 0 0 0.221 0 0.4-0.179 0.4-0.4 0-0 0-0.001 0-0.001v0c0.040-1.587-0.453-2.92-1.427-3.987s-2.333-1.667-4.067-1.787c-0.008-0.001-0.018-0.001-0.028-0.001s-0.020 0-0.029 0.001l0.001-0zM17.112 9.997c-0.004-0-0.008-0-0.012-0-0.225 0-0.407 0.182-0.407 0.408 0 0.221 0.176 0.401 0.395 0.407h0.001c1.32 0.067 1.96 0.733 2.040 2.107 0.007 0.215 0.184 0.387 0.4 0.387 0 0 0 0 0 0h0.013c0.215-0.007 0.388-0.183 0.388-0.4 0-0.009-0-0.019-0.001-0.028l0 0.001c-0.093-1.787-1.067-2.788-2.8-2.881-0.002-0-0.005-0-0.008-0s-0.006 0-0.008 0h0z"></path>
   </symbol>


   <symbol id="phone" viewBox="0 0 20 20" width="10" height="10" >
      <path fill="#fff" d="M14.859 5.981c0.943 0.184 1.74 0.683 2.31 1.374 0.42 0.51 0.716 1.124 0.852 1.793 0.109 0.541 0.637 0.891 1.178 0.782s0.891-0.637 0.782-1.178c-0.2-0.992-0.64-1.907-1.269-2.669-0.854-1.036-2.057-1.789-3.47-2.064-0.542-0.106-1.067 0.248-1.173 0.79s0.248 1.067 0.79 1.173zM14.94 1.994c2 0.222 3.743 1.162 5.005 2.544 1.118 1.224 1.858 2.794 2.062 4.519 0.065 0.548 0.562 0.941 1.11 0.876s0.941-0.562 0.876-1.11c-0.253-2.147-1.176-4.106-2.571-5.634-1.578-1.728-3.762-2.906-6.261-3.183-0.549-0.061-1.043 0.335-1.104 0.883s0.335 1.043 0.883 1.104zM23 16.92c0.016-0.714-0.236-1.404-0.673-1.943-0.46-0.566-1.129-0.967-1.925-1.080-0.8-0.098-1.695-0.314-2.586-0.646-0.433-0.159-0.893-0.218-1.344-0.174-0.663 0.064-1.307 0.349-1.819 0.855l-0.72 0.72c-1.77-1.117-3.36-2.667-4.583-4.589l0.726-0.726c0.322-0.33 0.563-0.726 0.707-1.156 0.212-0.632 0.214-1.336-0.039-2.011-0.289-0.753-0.518-1.644-0.644-2.595-0.104-0.714-0.456-1.345-0.963-1.804-0.539-0.486-1.256-0.779-2.027-0.771h-2.996c-0.088 0-0.182 0.004-0.273 0.012-0.824 0.075-1.542 0.478-2.033 1.066s-0.758 1.367-0.683 2.199c0.3 3.076 1.365 6.243 3.216 9.102 1.502 2.413 3.648 4.623 6.298 6.306 2.568 1.697 5.684 2.862 9.086 3.231 0.092 0.009 0.191 0.013 0.288 0.013 0.828-0.003 1.578-0.343 2.118-0.887s0.873-1.297 0.87-2.121zM21 16.92v3c0.001 0.28-0.109 0.53-0.29 0.712s-0.429 0.295-0.706 0.296c-3.149-0.336-5.961-1.391-8.263-2.912-2.428-1.543-4.359-3.537-5.702-5.694-1.697-2.62-2.655-5.481-2.924-8.238-0.024-0.268 0.064-0.526 0.229-0.724s0.403-0.33 0.678-0.355l3.088-0.005c0.271-0.003 0.507 0.094 0.687 0.256 0.17 0.154 0.288 0.366 0.323 0.608 0.142 1.072 0.408 2.117 0.757 3.025 0.081 0.216 0.080 0.447 0.010 0.658-0.049 0.145-0.131 0.281-0.242 0.395l-1.262 1.261c-0.324 0.324-0.379 0.814-0.162 1.201 1.584 2.785 3.839 4.957 6.381 6.378 0.397 0.222 0.882 0.144 1.195-0.166l1.27-1.27c0.166-0.164 0.377-0.257 0.598-0.279 0.152-0.015 0.31 0.005 0.459 0.060 1.022 0.381 2.070 0.636 3.034 0.754 0.241 0.034 0.462 0.166 0.615 0.355 0.147 0.181 0.231 0.412 0.226 0.682z"></path>
   </symbol>

   <symbol id="info" viewBox="0 0 4 9" width="4" height="9" >
      <path d="M2.02542 8.01815C1.63269 8.01815 1.43633 7.78906 1.43633 7.33088C1.43633 7.20815 1.45678 7.03633 1.49769 6.81542L2.00087 4.26269C2.02542 4.14815 2.03769 4.05406 2.03769 3.98042C2.03769 3.87406 2.01723 3.79633 1.97633 3.74724C1.93542 3.68997 1.88223 3.66133 1.81678 3.66133C1.64496 3.66133 1.41178 3.82497 1.11723 4.15224C1.10905 4.16042 1.09678 4.16451 1.08042 4.16451C1.04769 4.16451 1.02314 4.15224 1.00678 4.12769C0.990416 4.09497 0.990416 4.06633 1.00678 4.04178C1.30133 3.69815 1.56723 3.4486 1.80451 3.29315C2.04178 3.13769 2.27496 3.05997 2.50405 3.05997C2.89678 3.05997 3.09314 3.27269 3.09314 3.69815C3.09314 3.83724 3.07678 3.97633 3.04405 4.11542L2.5286 6.81542C2.51223 6.88906 2.50405 6.98315 2.50405 7.09769C2.50405 7.29406 2.56542 7.39224 2.68814 7.39224C2.76996 7.39224 2.85996 7.35542 2.95814 7.28179C3.06451 7.20815 3.19133 7.10178 3.3386 6.96269C3.35496 6.94633 3.37132 6.93815 3.38769 6.93815C3.41223 6.93815 3.43269 6.95451 3.44905 6.98724C3.46542 7.01178 3.46133 7.03633 3.43678 7.06088C3.1586 7.38815 2.90905 7.62951 2.68814 7.78497C2.47542 7.94042 2.25451 8.01815 2.02542 8.01815ZM2.84769 1.7836C2.63496 1.7836 2.46314 1.72224 2.33223 1.59951C2.20951 1.4686 2.14814 1.29269 2.14814 1.07178C2.14814 0.875421 2.20951 0.715876 2.33223 0.593148C2.46314 0.470421 2.63496 0.409058 2.84769 0.409058C3.06042 0.409058 3.22405 0.470421 3.3386 0.593148C3.46133 0.715876 3.52269 0.875421 3.52269 1.07178C3.52269 1.30088 3.46133 1.47678 3.3386 1.59951C3.22405 1.72224 3.06042 1.7836 2.84769 1.7836Z" fill="white"/>
   </symbol>

   <symbol id="size" width="16" height="16" viewBox="0 0 16 16" >
      <g clip-path="url(#clip0)">
      <path d="M15.3044 0H4.86971C4.58159 0 4.34796 0.233592 4.34796 0.521747V11.3043C4.34796 11.5924 4.58155 11.826 4.86971 11.826H15.3044C15.5926 11.826 15.8262 11.5924 15.8262 11.3043V0.521716C15.8262 0.233592 15.5926 0 15.3044 0ZM14.7827 4.17388H13.2175C12.9294 4.17388 12.6958 4.40747 12.6958 4.69563C12.6958 4.98378 12.9293 5.21738 13.2175 5.21738H14.7827V10.7826H8.17403V9.21735C8.17403 8.92923 7.94044 8.69561 7.65229 8.69561C7.36413 8.69561 7.13054 8.9292 7.13054 9.21735V10.7826H5.39142V1.04346H7.13054V6.78255C7.13054 7.07068 7.36413 7.3043 7.65229 7.3043C7.94044 7.3043 8.17403 7.07071 8.17403 6.78255V5.21734H10.7827C11.0708 5.21734 11.3045 4.98375 11.3045 4.6956C11.3045 4.40744 11.0709 4.17385 10.7827 4.17385H8.17403V1.04346H14.7827V4.17388H14.7827Z" fill="#4479BC"/>
      <path d="M15.6733 14.0657L14.6299 13.0223C14.4262 12.8186 14.0959 12.8186 13.8921 13.0223C13.6884 13.2261 13.6884 13.5564 13.8921 13.7602L14.0449 13.913H4.04239L4.1952 13.7602C4.39895 13.5564 4.39895 13.2261 4.19523 13.0224C3.99151 12.8186 3.66114 12.8186 3.45739 13.0224L2.41402 14.0658C2.20886 14.2707 2.2124 14.6024 2.41402 14.8038L3.45739 15.8472C3.66111 16.051 3.99148 16.051 4.19523 15.8472C4.39898 15.6435 4.39898 15.3131 4.19523 15.1094L4.04239 14.9565H14.0449L13.8921 15.1093C13.6883 15.3131 13.6883 15.6434 13.8921 15.8472C14.0958 16.0509 14.4262 16.051 14.6299 15.8472L15.6733 14.8038C15.8768 14.6005 15.8763 14.2685 15.6733 14.0657Z" fill="#4479BC"/>
      <path d="M2.41397 10.9354L2.26113 11.0882V1.78133L2.41397 1.93414C2.61769 2.13789 2.94806 2.13793 3.15181 1.93414C3.35556 1.73043 3.35559 1.40005 3.15181 1.19631L2.10832 0.152812C1.9046 -0.0509372 1.57423 -0.0509372 1.37048 0.152812L0.327018 1.19627C0.123269 1.39999 0.123238 1.73036 0.327018 1.93411C0.530735 2.13786 0.861108 2.13786 1.06486 1.93411L1.21767 1.7813V11.0882L1.06486 10.9353C0.86114 10.7316 0.530766 10.7316 0.327018 10.9353C0.123269 11.1391 0.123238 11.4694 0.327018 11.6732L1.37048 12.7166C1.5742 12.9204 1.90457 12.9204 2.10832 12.7166L3.15178 11.6732C3.35553 11.4695 3.35556 11.1391 3.15178 10.9353C2.9481 10.7317 2.61772 10.7317 2.41397 10.9354Z" fill="#4479BC"/>
   </g>
   </symbol>

   <symbol id="stairs" width="16" height="16" viewBox="0 0 16 16" >
      <g clip-path="url(#clip0)">
      <path d="M14.0943 8.84131H11.7198C11.3746 8.84131 11.0948 9.12112 11.0948 9.46631C11.0948 9.81149 11.3746 10.0913 11.7198 10.0913H12.5859L9.58779 13.0894C9.3437 13.3335 9.3437 13.7292 9.58779 13.9732C9.83186 14.2173 10.2276 14.2174 10.4717 13.9733L13.4698 10.9752V11.8413C13.4698 12.1865 13.7496 12.4663 14.0948 12.4663C14.44 12.4663 14.7198 12.1865 14.7198 11.8413V9.46631C14.7198 9.46621 14.7198 9.46612 14.7198 9.46603C14.7196 9.1264 14.4436 8.84106 14.0943 8.84131Z" fill="#4479BC"/>
      <path d="M15.375 1.84375H11.6875C11.3423 1.84375 11.0625 2.12356 11.0625 2.46875V5.53125H8.00003C7.65488 5.53125 7.37503 5.81106 7.37503 6.15625V9.21875H4.31253C3.96734 9.21875 3.68753 9.49856 3.68753 9.84375V12.9062H0.625C0.279813 12.9062 0 13.1861 0 13.5312C0 13.8764 0.279813 14.1562 0.625 14.1562H4.31253C4.47828 14.1562 4.63728 14.0904 4.75447 13.9732C4.87169 13.856 4.93753 13.697 4.93753 13.5312L4.9375 10.4688H8.00003C8.16578 10.4688 8.32478 10.4029 8.44197 10.2857C8.55919 10.1685 8.62503 10.0095 8.62503 9.84375L8.625 6.78125H11.6875C11.8533 6.78125 12.0122 6.71541 12.1294 6.59819C12.2467 6.481 12.3125 6.322 12.3125 6.15625L12.3125 3.09375H15.375C15.7202 3.09375 16 2.81394 16 2.46875C16 2.12356 15.7202 1.84375 15.375 1.84375Z" fill="#4479BC"/>
   </g>
   </symbol>

   <symbol id="house" width="16" height="16" viewBox="0 0 16 16" >
      <g clip-path="url(#clip0)">
         <path d="M15.9954 6.92143C15.9666 6.5468 15.7936 6.20593 15.5085 5.96155L14.1245 4.7753V1.40445C14.1245 1.14557 13.9146 0.93573 13.6558 0.93573H11.7809C11.522 0.93573 11.3184 1.14561 11.3184 1.40445V2.3647L8.94617 0.342978C8.41585 -0.111366 7.64607 -0.111304 7.11744 0.341635L0.491087 5.96149C-0.0949457 6.46362 -0.170977 7.34971 0.339024 7.94503C0.727744 8.39706 1.3504 8.54118 1.88121 8.35462V15.5291C1.88121 15.788 2.08484 15.9979 2.34368 15.9979H13.6558C13.9146 15.9979 14.1245 15.788 14.1245 15.5291V8.35471C14.6724 8.54846 15.282 8.38609 15.661 7.9444C15.9053 7.65915 16.0241 7.29584 15.9954 6.92143ZM12.2496 1.87317H13.1933V3.97174L12.2496 3.1682V1.87317ZM9.91217 15.0604H6.09357V11.3043H9.91217V15.0604ZM13.1933 15.0604H10.8434V10.8418C10.8434 10.5829 10.6335 10.3731 10.3747 10.3731H5.62482C5.36594 10.3731 5.16235 10.583 5.16235 10.8418V15.0604H2.81244V7.68043L8.02942 3.25502L13.1933 7.67606V15.0604H13.1933ZM14.9493 7.33415C14.7831 7.52784 14.4876 7.55624 14.2881 7.38512L8.33601 2.28311C8.16117 2.1332 7.90335 2.13258 7.72776 2.28154C7.60091 2.38911 1.73646 7.36381 1.71165 7.38487C1.51534 7.55284 1.21846 7.52993 1.05037 7.3344C0.882088 7.13799 0.904838 6.84146 1.0994 6.67471L7.72579 1.05482C7.90266 0.903323 8.15935 0.903292 8.3361 1.05476L14.8984 6.67337C15.0946 6.84149 15.1173 7.13805 14.9493 7.33415Z" fill="#4479BC"/>
         <path d="M8.5 13.1854C8.75887 13.1854 8.96872 12.9755 8.96872 12.7166C8.96872 12.4578 8.75887 12.2479 8.5 12.2479C8.24113 12.2479 8.03128 12.4578 8.03128 12.7166C8.03128 12.9755 8.24113 13.1854 8.5 13.1854Z" fill="#4479BC"/>
      </g>
   </symbol>
   <symbol id="reviews-arrow" width="13" height="8" viewBox="0 0 13 8" >
      <path d="M1 4H12M12 4L7 7M12 4L7 1" stroke="black" stroke-opacity="0.6" stroke-linecap="round" stroke-linejoin="round"/>
   </symbol>

   <symbol id="facebook" width="9" height="15" viewBox="0 0 9 15">
      <path d="M2.77187 15V8.29102H0.375V5.625H2.77187V3.52441C2.77187 1.24219 4.25938 0 6.43125 0C7.47188 0 8.36562 0.0732422 8.625 0.105469V2.49023H7.11875C5.9375 2.49023 5.70937 3.01758 5.70937 3.78809V5.625H8.375L8.00938 8.29102H5.70937V15" fill="#181818"/>
         <mask id="mask0" mask-type="alpha" maskUnits="userSpaceOnUse" x="0" y="0" width="9" height="15">
            <path d="M2.77187 15V8.29102H0.375V5.625H2.77187V3.52441C2.77187 1.24219 4.25938 0 6.43125 0C7.47188 0 8.36562 0.0732422 8.625 0.105469V2.49023H7.11875C5.9375 2.49023 5.70937 3.01758 5.70937 3.78809V5.625H8.375L8.00938 8.29102H5.70937V15" fill="white"/>
               </mask>
         <g mask="url(#mask0)">
      </g>
   </symbol>

   <symbol id="twiter" width="15" height="13" viewBox="0 0 15 13">
      <path d="M13.4581 3.09568C13.4676 3.23154 13.4676 3.36742 13.4676 3.50328C13.4676 7.64703 10.3744 12.4216 4.72081 12.4216C2.97905 12.4216 1.36104 11.9072 0 11.0145C0.247471 11.0436 0.485391 11.0533 0.742383 11.0533C2.17954 11.0533 3.50253 10.5584 4.559 9.7141C3.20748 9.68497 2.07486 8.78247 1.68463 7.5403C1.875 7.56939 2.06534 7.58881 2.26523 7.58881C2.54124 7.58881 2.81728 7.54998 3.07424 7.48208C1.66562 7.19092 0.609111 5.92937 0.609111 4.40578V4.36698C1.01836 4.59988 1.49429 4.74545 1.99869 4.76483C1.17064 4.20197 0.628154 3.24125 0.628154 2.15435C0.628154 1.5721 0.78041 1.03836 1.04692 0.572544C2.56025 2.4746 4.83501 3.71674 7.38574 3.85262C7.33816 3.61972 7.3096 3.37713 7.3096 3.13452C7.3096 1.40712 8.68017 0 10.3838 0C11.269 0 12.0685 0.37847 12.63 0.989846C13.3248 0.853991 13.991 0.59196 14.5812 0.232907C14.3527 0.960751 13.8673 1.57213 13.2296 1.96028C13.8483 1.89238 14.4479 1.71766 14.9999 1.47508C14.5812 2.09613 14.0577 2.64926 13.4581 3.09568Z" fill="black"/>
         <mask id="mask0" mask-type="alpha" maskUnits="userSpaceOnUse" x="0" y="0" width="15" height="13">
            <path d="M13.4581 3.09568C13.4676 3.23154 13.4676 3.36742 13.4676 3.50328C13.4676 7.64703 10.3744 12.4216 4.72081 12.4216C2.97905 12.4216 1.36104 11.9072 0 11.0145C0.247471 11.0436 0.485391 11.0533 0.742383 11.0533C2.17954 11.0533 3.50253 10.5584 4.559 9.7141C3.20748 9.68497 2.07486 8.78247 1.68463 7.5403C1.875 7.56939 2.06534 7.58881 2.26523 7.58881C2.54124 7.58881 2.81728 7.54998 3.07424 7.48208C1.66562 7.19092 0.609111 5.92937 0.609111 4.40578V4.36698C1.01836 4.59988 1.49429 4.74545 1.99869 4.76483C1.17064 4.20197 0.628154 3.24125 0.628154 2.15435C0.628154 1.5721 0.78041 1.03836 1.04692 0.572544C2.56025 2.4746 4.83501 3.71674 7.38574 3.85262C7.33816 3.61972 7.3096 3.37713 7.3096 3.13452C7.3096 1.40712 8.68017 0 10.3838 0C11.269 0 12.0685 0.37847 12.63 0.989846C13.3248 0.853991 13.991 0.59196 14.5812 0.232907C14.3527 0.960751 13.8673 1.57213 13.2296 1.96028C13.8483 1.89238 14.4479 1.71766 14.9999 1.47508C14.5812 2.09613 14.0577 2.64926 13.4581 3.09568Z" fill="white"/></mask>
      <g mask="url(#mask0)"></g>
   </symbol>

   <symbol id="vkontacte" width="18" height="10" viewBox="0 0 18 10">
      <path fill-rule="evenodd" clip-rule="evenodd" d="M15.2082 6.35846C15.7943 6.93074 16.413 7.46917 16.9387 8.09917C17.1709 8.37912 17.3908 8.66802 17.559 8.99292C17.7973 9.45477 17.5815 9.96302 17.1673 9.9906L14.593 9.98944C13.9291 10.0445 13.3994 9.77723 12.954 9.32327C12.5976 8.96023 12.2675 8.57385 11.9248 8.19856C11.7843 8.04517 11.6373 7.90084 11.4616 7.78675C11.1101 7.55864 10.8051 7.62849 10.6043 7.99501C10.3997 8.3678 10.3534 8.7806 10.3333 9.19607C10.3057 9.80226 10.1225 9.96163 9.51354 9.98938C8.21221 10.0507 6.97719 9.85387 5.8299 9.1974C4.8184 8.61867 4.03403 7.80167 3.35132 6.87674C2.02207 5.07571 1.00413 3.09667 0.089243 1.06218C-0.116691 0.603809 0.0339132 0.357757 0.539661 0.349048C1.37948 0.332734 2.21918 0.333895 3.05998 0.347887C3.40131 0.35288 3.62727 0.548653 3.75907 0.87111C4.21343 1.98833 4.7694 3.05127 5.46726 4.03652C5.65311 4.29883 5.84261 4.56114 6.11247 4.74576C6.41101 4.95019 6.6383 4.88243 6.77875 4.54987C6.86787 4.33901 6.90688 4.11188 6.92697 3.88603C6.99351 3.10903 7.00227 2.33337 6.88558 1.5591C6.81393 1.07588 6.54175 0.763063 6.05958 0.671621C5.81352 0.625 5.85016 0.533442 5.9693 0.392999C6.17622 0.150778 6.37083 0 6.75878 0H9.66815C10.1262 0.0903971 10.2279 0.296157 10.2906 0.757025L10.2931 3.98874C10.2881 4.16715 10.3822 4.69659 10.7036 4.81468C10.9608 4.89875 11.1303 4.69299 11.2846 4.5299C11.9812 3.79058 12.4784 2.91686 12.9225 2.01213C13.1196 1.61432 13.2891 1.20117 13.4533 0.788377C13.575 0.48206 13.766 0.33134 14.111 0.338017L16.9111 0.340513C16.9941 0.340513 17.0782 0.341733 17.1586 0.355493C17.6304 0.435904 17.7597 0.638876 17.614 1.09963C17.3844 1.82252 16.9376 2.42493 16.5008 3.03013C16.0338 3.67627 15.5344 4.30028 15.0713 4.95025C14.6459 5.54378 14.6796 5.84295 15.2082 6.35846Z" fill="#181818"/>
   </symbol>

   <symbol id="instagram" width="15" height="15" viewBox="0 0 15 15">
      <path d="M7.49941 9.00144C8.32687 9.00144 9.00147 8.32805 9.00147 7.49999C9.00147 7.17311 8.89452 6.87131 8.71749 6.62479C8.44469 6.24656 8.0012 5.99854 7.50032 5.99854C6.99913 5.99854 6.55595 6.24626 6.28254 6.62449C6.10491 6.87101 5.99887 7.17281 5.99857 7.49968C5.99766 8.32775 6.67165 9.00144 7.49941 9.00144Z" fill="#181818"/>
      <path d="M10.7787 5.66315V4.40459V4.21729L10.5905 4.21789L9.33252 4.22182L9.33735 5.66798L10.7787 5.66315Z" fill="#181818"/>
      <path d="M7.5 0C3.36452 0 0 3.36452 0 7.5C0 11.6352 3.36452 15 7.5 15C11.6352 15 15 11.6352 15 7.5C15 3.36452 11.6358 0 7.5 0ZM11.7654 6.62481V10.1171C11.7654 11.0267 11.0258 11.766 10.1168 11.766H4.88319C3.97386 11.766 3.23461 11.0267 3.23461 10.1171V6.62481V4.88349C3.23461 3.97416 3.97386 3.23492 4.88319 3.23492H10.1165C11.0258 3.23492 11.7654 3.97416 11.7654 4.88349V6.62481Z" fill="#181818"/>
      <path d="M9.83311 7.49995C9.83311 8.786 8.78663 9.83309 7.49997 9.83309C6.21332 9.83309 5.16714 8.786 5.16714 7.49995C5.16714 7.19059 5.22877 6.89484 5.33873 6.62476H4.06537V10.1171C4.06537 10.5684 4.43182 10.9339 4.88286 10.9339H10.1162C10.5666 10.9339 10.9337 10.5684 10.9337 10.1171V6.62476H9.65971C9.77058 6.89484 9.83311 7.19059 9.83311 7.49995Z" fill="#181818"/>
   </symbol>

   <symbol id="rotate" width="16" height="16" viewBox="0 0 16 16">
      <path fill-rule="evenodd" clip-rule="evenodd" d="M10.925 14.3879L14.388 10.9249C15.168 10.1459 15.168 8.87686 14.388 8.09686L7.90298 1.61186C7.12298 0.831855 5.85498 0.831855 5.07498 1.61186L1.61198 5.07486C0.831978 5.85386 0.831978 7.12286 1.61198 7.90286L8.09698 14.3879C8.87698 15.1679 10.145 15.1679 10.925 14.3879ZM9.511 12.9739L3.026 6.48888L6.489 3.02588L12.975 9.50988L9.511 12.9739Z" fill="#181818"/>
      <path d="M6 16H5C2.243 16 0 13.757 0 11V10H2V11C2 12.654 3.346 14 5 14H6V16Z" fill="#181818"/>
      <path d="M10 0H11C13.757 0 16 2.243 16 5V6H14V5C14 3.346 12.654 2 11 2H10V0Z" fill="#181818"/>
   </symbol>

   <symbol id="shape" width="16" height="14" viewBox="0 0 16 14">
      <path fill-rule="evenodd" clip-rule="evenodd" d="M15 0H1C0.448 0 0 0.447 0 1V13C0 13.553 0.448 14 1 14H15C15.552 14 16 13.553 16 13V1C16 0.447 15.552 0 15 0ZM14 5.72314V12.0001H2V5.72314L7.504 8.86814C7.812 9.04414 8.189 9.04414 8.496 8.86814L14 5.72314ZM8 6.849L14 3.42V2H2V3.42L8 6.849Z" fill="#181818"/>
   </symbol>

   <symbol id="pin" width="14" height="17" viewBox="0 0 14 17">
      <path d="M7 9C8.10457 9 9 8.10457 9 7C9 5.89543 8.10457 5 7 5C5.89543 5 5 5.89543 5 7C5 8.10457 5.89543 9 7 9Z" fill="#181818"/>
      <path fill-rule="evenodd" clip-rule="evenodd" d="M5.59106 15.0688C5.99516 15.427 6.27478 15.6748 6.3 15.7C6.7 16.1 7.3 16.1 7.7 15.8C7.75 15.75 8.77502 14.825 9.80003 13.9C10.825 12.975 11.85 12.05 11.9 12C13.3 10.7 14 8.9 14 7C14 3.1 10.9 0 7 0C3.1 0 0 3.1 0 7C0 8.9 0.7 10.7 2.1 11.9C2.1 11.9748 4.3928 14.0068 5.59106 15.0688ZM7 13.7001L3.6 10.7001C2.6 9.7001 2 8.4001 2 7.0001C2 4.2001 4.2 2.1001 7 2.1001C9.8 2.1001 12 4.3001 12 7.1001C12 8.5001 11.4 9.7001 10.4 10.7001L7 13.7001Z" fill="#181818"/>
   </symbol>

   <symbol id="callback" width="22" height="22" viewBox="0 0 22 22" fill="none" xmlns="http://www.w3.org/2000/svg">
      <path d="M7.19955 8.57529L6.46524 9.09963L6.9116 9.8838C8.14734 12.0548 9.94523 13.8527 12.1162 15.0884L12.9004 15.5348L13.4247 14.8004L14.5051 13.2874C14.5051 13.2874 14.5051 13.2873 14.5052 13.2873C14.5367 13.2431 14.5834 13.212 14.6364 13.1999C14.6894 13.1878 14.745 13.1955 14.7927 13.2216L14.7933 13.222C16.6456 14.2342 18.691 14.843 20.7953 15.0084C20.8511 15.0128 20.9031 15.0381 20.941 15.0792C20.9789 15.1202 21 15.1741 21 15.23V15.2301V20.6837V20.6839C21 20.7389 20.9796 20.792 20.9427 20.8328C20.9059 20.8737 20.8552 20.8994 20.8004 20.905L20.7992 20.9051C20.1867 20.9687 19.5685 21 18.9444 21C9.03451 21 1 12.9655 1 3.05556C1 2.43151 1.03132 1.81332 1.09488 1.20077L1.09501 1.19956C1.10062 1.14482 1.12634 1.09412 1.16718 1.05725C1.20803 1.02039 1.2611 0.999988 1.31612 1H1.31633H6.76989H6.77001C6.82592 0.999993 6.87977 1.02106 6.92083 1.05899C6.9619 1.09692 6.98715 1.14894 6.99157 1.20467C7.15697 3.30896 7.7658 5.35443 8.77804 7.20667L8.7784 7.20732C8.8045 7.255 8.81223 7.3106 8.8001 7.36358C8.78799 7.41656 8.75688 7.46326 8.71266 7.49484C8.71265 7.49485 8.71264 7.49486 8.71262 7.49487L7.19955 8.57529Z" stroke="#4479BC" stroke-width="2"/>
   </symbol>

   <symbol id="viber-phone" width="20px" height="20px" viewBox="0 0 20 20">
      <g id="layer101" fill="#ffffff" stroke="none">
         <path d="M13.9333 17.28 c-0.7867 -0.2533 -2.3867 -1.08 -3.6667 -1.92 -3.1333 -2.0267 -5.32 -4.5067 -6.9733 -7.8933 -0.6933 -1.4267 -0.9067 -2.44 -0.7067 -3.2533 0.2 -0.8133 1.5733 -1.8133 2.4533 -1.8133 0.24 0 0.5867 0.1733 0.9333 0.48 0.76 0.64 2.04 2.5867 2.12 3.2267 0.0533 0.4533 0 0.5467 -0.68 1.24 -0.5067 0.5067 -0.7467 0.8667 -0.7467 1.0933 0 0.56 0.88 2.12 1.6267 2.8667 0.9067 0.92 2.1067 1.64 2.84 1.7333 0.5467 0.0533 0.6 0.0267 1.2533 -0.64 0.6667 -0.68 0.6933 -0.6933 1.28 -0.6267 0.64 0.0667 1.6 0.6533 2.9733 1.7867 0.6267 0.5333 0.6933 0.6533 0.6933 1.12 0 0.6667 -0.2267 1.12 -0.8933 1.7333 -0.8933 0.8533 -1.6667 1.12 -2.5067 0.8667z"/>
         <path d="M16.6267 9.7733 c-0.0267 -0.0667 -0.0933 -0.48 -0.1467 -0.9333 -0.2 -1.8 -0.92 -3.3067 -2.0933 -4.36 -0.8933 -0.8 -1.8533 -1.1733 -4.2133 -1.6267 -0.3333 -0.0667 -0.4267 -0.52 -0.1333 -0.6133 0.08 -0.04 0.6133 -0.0133 1.16 0.04 3.24 0.36 6 3.4133 6 6.68 0 0.8133 -0.0267 0.9067 -0.2533 0.9067 -0.1467 0 -0.2933 -0.04 -0.32 -0.0933z"/>
         <path d="M14.7467 8.9067 c-0.4 -2.0667 -0.64 -2.6 -1.52 -3.2667 -0.32 -0.24 -0.92 -0.5333 -1.3333 -0.64 -1.3733 -0.3733 -1.4267 -0.4 -1.4267 -0.6667 0 -0.24 0.08 -0.2667 0.6933 -0.2533 1.3467 0.04 2.9467 1.0533 3.6933 2.36 0.3733 0.64 0.68 1.96 0.56 2.44 -0.1067 0.4267 -0.5867 0.44 -0.6667 0.0267z"/>
         <path d="M13.0133 8.5067 c-0.0267 -0.0933 -0.12 -0.4267 -0.2 -0.7333 -0.1733 -0.6133 -0.6133 -1.0133 -1.3467 -1.2 -0.64 -0.1733 -0.6533 -0.6267 -0.0267 -0.68 1.0133 -0.1067 2.2267 1.1467 2.1333 2.2 -0.0267 0.36 -0.1067 0.52 -0.28 0.5467 -0.12 0.0267 -0.2533 -0.0267 -0.28 -0.1333z"/>
      </g>
   </symbol>
   <symbol id="viber-phone-window" width="20px" height="20px" viewBox="0 0 20 20">
      <g id="layer101" fill="#ffffff" stroke="none">
         <path d="M10.45 12.96 c-0.59 -0.19 -1.79 -0.81 -2.75 -1.44 -2.35 -1.52 -3.99 -3.38 -5.23 -5.92 -0.52 -1.07 -0.68 -1.83 -0.53 -2.44 0.15 -0.61 1.18 -1.36 1.84 -1.36 0.18 0 0.44 0.13 0.7 0.36 0.57 0.48 1.53 1.94 1.59 2.42 0.04 0.34 0 0.41 -0.51 0.93 -0.38 0.38 -0.56 0.65 -0.56 0.82 0 0.42 0.66 1.59 1.22 2.15 0.68 0.69 1.58 1.23 2.13 1.3 0.41 0.04 0.45 0.02 0.94 -0.48 0.5 -0.51 0.52 -0.52 0.96 -0.47 0.48 0.05 1.2 0.49 2.23 1.34 0.47 0.4 0.52 0.49 0.52 0.84 0 0.5 -0.17 0.84 -0.67 1.3 -0.67 0.64 -1.25 0.84 -1.88 0.65z"/>
         <path d="M12.47 7.33 c-0.02 -0.05 -0.07 -0.36 -0.11 -0.7 -0.15 -1.35 -0.69 -2.48 -1.57 -3.27 -0.67 -0.6 -1.39 -0.88 -3.16 -1.22 -0.25 -0.05 -0.32 -0.39 -0.1 -0.46 0.06 -0.03 0.46 -0.01 0.87 0.03 2.43 0.27 4.5 2.56 4.5 5.01 0 0.61 -0.02 0.68 -0.19 0.68 -0.11 0 -0.22 -0.03 -0.24 -0.07z"/>
         <path d="M11.06 6.68 c-0.3 -1.55 -0.48 -1.95 -1.14 -2.45 -0.24 -0.18 -0.69 -0.4 -1 -0.48 -1.03 -0.28 -1.07 -0.3 -1.07 -0.5 0 -0.18 0.06 -0.2 0.52 -0.19 1.01 0.03 2.21 0.79 2.77 1.77 0.28 0.48 0.51 1.47 0.42 1.83 -0.08 0.32 -0.44 0.33 -0.5 0.02z"/>
         <path d="M9.76 6.38 c-0.02 -0.07 -0.09 -0.32 -0.15 -0.55 -0.13 -0.46 -0.46 -0.76 -1.01 -0.9 -0.48 -0.13 -0.49 -0.47 -0.02 -0.51 0.76 -0.08 1.67 0.86 1.6 1.65 -0.02 0.27 -0.08 0.39 -0.21 0.41 -0.09 0.02 -0.19 -0.02 -0.21 -0.1z"/>
      </g>
   </symbol>

   <symbol id="watsup-phone" width="20px" height="20px" viewBox="0 0 20 20">
      <g id="layer101" fill="#ffffff" stroke="none">
         <path d="M1.76 17.8533 c0.04 -0.1067 0.36 -1.0667 0.7067 -2.1333 l0.64 -1.9333 -0.4 -1 c-0.7467 -1.8 -0.8933 -3.3733 -0.44 -5.1067 0.92 -3.6267 4.0267 -6.08 7.6667 -6.0933 2.3067 0 4.1333 0.7467 5.7467 2.3467 1.52 1.52 2.32 3.4533 2.32 5.6 0 2.2533 -0.76 4.0533 -2.3867 5.68 -1.2 1.2 -2.4267 1.8533 -4.1333 2.2 -1.44 0.28 -2.56 0.1867 -4.2267 -0.36 l-1.24 -0.4133 -1.9333 0.6133 c-1.0667 0.3467 -2.04 0.6533 -2.16 0.7067 -0.1733 0.0667 -0.2133 0.0267 -0.16 -0.1067z m9.9067 -1.92 c2.52 -0.6667 4.4533 -2.7867 4.8667 -5.36 0.36 -2.2133 -0.4 -4.36 -2.0933 -5.9067 -2.0667 -1.8933 -4.9067 -2.2533 -7.48 -0.9467 -3.2533 1.6667 -4.48 5.8133 -2.68 9.0533 l0.4 0.72 -0.4 1.1867 c-0.2133 0.6533 -0.3733 1.1867 -0.36 1.1867 0.0133 0 0.56 -0.1867 1.2267 -0.4 l1.1867 -0.4 0.6133 0.3333 c1.32 0.7067 3.2 0.92 4.72 0.5333z"/>
         <path d="M11.4 13.4133 c-1.1733 -0.3733 -2.1733 -0.96 -2.9867 -1.7333 -1.4 -1.3467 -2.4133 -3.0667 -2.4133 -4.1067 0 -0.5467 0.48 -1.5333 0.8667 -1.7867 0.1733 -0.12 0.52 -0.1867 0.76 -0.16 0.4 0.04 0.4667 0.1067 0.8 0.9067 0.4533 1.1067 0.4533 1.4267 0.0267 1.88 -0.2533 0.2533 -0.32 0.44 -0.2533 0.64 0.16 0.4933 1.56 1.88 2.2533 2.24 l0.6667 0.3467 0.5067 -0.5867 0.5067 -0.5867 1.04 0.5467 c0.9867 0.5333 1.0267 0.5733 0.9867 1 -0.0133 0.2533 -0.12 0.5867 -0.2267 0.7467 -0.4267 0.6533 -1.6267 0.96 -2.5333 0.6533z"/>
      </g>
   </symbol>
   <symbol id="watsup-phone-window" width="20px" height="20px" viewBox="0 0 20 20">
      <g id="layer101" fill="#ffffff" stroke="none">
         <path d="M1.32 13.39 c0.03 -0.08 0.27 -0.8 0.53 -1.6 l0.48 -1.45 -0.3 -0.75 c-0.56 -1.35 -0.67 -2.53 -0.33 -3.83 0.69 -2.72 3.02 -4.56 5.75 -4.57 1.73 0 3.1 0.56 4.31 1.76 1.14 1.14 1.74 2.59 1.74 4.2 0 1.69 -0.57 3.04 -1.79 4.26 -0.9 0.9 -1.82 1.39 -3.1 1.65 -1.08 0.21 -1.92 0.14 -3.17 -0.27 l-0.93 -0.31 -1.45 0.46 c-0.8 0.26 -1.53 0.49 -1.62 0.53 -0.13 0.05 -0.16 0.02 -0.12 -0.08z m7.43 -1.44 c1.89 -0.5 3.34 -2.09 3.65 -4.02 0.27 -1.66 -0.3 -3.27 -1.57 -4.43 -1.55 -1.42 -3.68 -1.69 -5.61 -0.71 -2.44 1.25 -3.36 4.36 -2.01 6.79 l0.3 0.54 -0.3 0.89 c-0.16 0.49 -0.28 0.89 -0.27 0.89 0.01 0 0.42 -0.14 0.92 -0.3 l0.89 -0.3 0.46 0.25 c0.99 0.53 2.4 0.69 3.54 0.4z"/>
         <path d="M8.55 10.06 c-0.88 -0.28 -1.63 -0.72 -2.24 -1.3 -1.05 -1.01 -1.81 -2.3 -1.81 -3.08 0 -0.41 0.36 -1.15 0.65 -1.34 0.13 -0.09 0.39 -0.14 0.57 -0.12 0.3 0.03 0.35 0.08 0.6 0.68 0.34 0.83 0.34 1.07 0.02 1.41 -0.19 0.19 -0.24 0.33 -0.19 0.48 0.12 0.37 1.17 1.41 1.69 1.68 l0.5 0.26 0.38 -0.44 0.38 -0.44 0.78 0.41 c0.74 0.4 0.77 0.43 0.74 0.75 -0.01 0.19 -0.09 0.44 -0.17 0.56 -0.32 0.49 -1.22 0.72 -1.9 0.49z"/>
      </g>
   </symbol>

   <symbol id="telegram-phone" width="20px" height="20px" viewBox="0 0 20 20">
      <g id="layer101" fill="#ffffff" stroke="none">
         <path d="M6.5467 19.24 c-0.52 -0.5067 -1.8933 -3.6267 -1.9733 -4.52 -0.04 -0.3733 0 -0.8 0.08 -0.96 0.1333 -0.2533 0.1067 -0.2933 -0.3467 -0.3733 -0.76 -0.1333 -3.12 -1.0933 -3.6 -1.4667 -0.5067 -0.3867 -0.7867 -1.1467 -0.6533 -1.84 0.1333 -0.6933 0.76 -1.24 2.4267 -2.0933 1.6133 -0.84 4.4 -2.3067 10.7733 -5.6533 2.92 -1.5333 4.44 -2.2533 4.8133 -2.3067 1.0933 -0.12 1.9333 0.68 1.9333 1.84 0 0.3333 -0.4267 2.16 -0.9467 4.0667 -2.6 9.5333 -2.9467 10.8 -3.0667 11.0133 -0.1867 0.36 -0.6667 0.6533 -1.08 0.6533 -0.2 0 -1.24 -0.36 -2.2933 -0.8 -1.0667 -0.44 -1.9867 -0.8 -2.0667 -0.8 -0.08 0 -0.24 0.2133 -0.3467 0.4933 -0.2933 0.6933 -1.6267 2.6667 -1.9733 2.9067 -0.4667 0.3333 -1.2267 0.2533 -1.68 -0.16z m1.7467 -2.4133 c0.3733 -0.6 0.64 -1.1733 0.6 -1.2667 -0.08 -0.2133 -2.3333 -1.4267 -2.6533 -1.4267 -0.16 0 -0.24 0.0933 -0.24 0.2933 0 0.4133 1.36 3.5867 1.52 3.5333 0.0667 -0.0267 0.4133 -0.5333 0.7733 -1.1333z m6.84 -2.12 c0.3333 -1.2 0.9867 -3.6267 2.7467 -10.16 0.36 -1.36 0.6533 -2.5867 0.6267 -2.7333 -0.0267 -0.2133 -0.12 -0.2667 -0.3733 -0.24 -0.1733 0.0133 -1.6133 0.72 -3.2 1.5467 -4.0667 2.1467 -7.44 3.92 -9.0667 4.7733 -4.4667 2.3333 -4.64 2.4533 -4.2533 2.84 0.3333 0.3333 2.1733 1.0267 2.92 1.0933 0.9067 0.0933 1.3867 -0.1067 2.4667 -0.9733 0.44 -0.36 1.4933 -1.1867 2.32 -1.8533 0.84 -0.6533 2.4933 -1.9733 3.6667 -2.9067 2.2133 -1.7733 2.6133 -2.0533 2.6133 -1.8533 0 0.0533 -1.68 1.92 -3.72 4.12 -2.0533 2.2133 -3.76 4.1467 -3.8133 4.2933 -0.12 0.4 0.12 0.7333 0.6933 0.9733 2.6267 1.1067 5.7333 2.36 5.8533 2.36 0.08 0.0133 0.32 -0.5733 0.52 -1.28z"/>
      </g>
   </symbol>
   <symbol id="telegram-phone-window" width="20px" height="20px" viewBox="0 0 20 20">
      <g id="layer101" fill="#ffffff" stroke="none">
         <path d="M4.91 14.43 c-0.39 -0.38 -1.42 -2.72 -1.48 -3.39 -0.03 -0.28 0 -0.6 0.06 -0.72 0.1 -0.19 0.08 -0.22 -0.26 -0.28 -0.57 -0.1 -2.34 -0.82 -2.7 -1.1 -0.38 -0.29 -0.59 -0.86 -0.49 -1.38 0.1 -0.52 0.57 -0.93 1.82 -1.57 1.21 -0.63 3.3 -1.73 8.08 -4.24 2.19 -1.15 3.33 -1.69 3.61 -1.73 0.82 -0.09 1.45 0.51 1.45 1.38 0 0.25 -0.32 1.62 -0.71 3.05 -1.95 7.15 -2.21 8.1 -2.3 8.26 -0.14 0.27 -0.5 0.49 -0.81 0.49 -0.15 0 -0.93 -0.27 -1.72 -0.6 -0.8 -0.33 -1.49 -0.6 -1.55 -0.6 -0.06 0 -0.18 0.16 -0.26 0.37 -0.22 0.52 -1.22 2 -1.48 2.18 -0.35 0.25 -0.92 0.19 -1.26 -0.12z m1.31 -1.81 c0.28 -0.45 0.48 -0.88 0.45 -0.95 -0.06 -0.16 -1.75 -1.07 -1.99 -1.07 -0.12 0 -0.18 0.07 -0.18 0.22 0 0.31 1.02 2.69 1.14 2.65 0.05 -0.02 0.31 -0.4 0.58 -0.85z m5.13 -1.59 c0.25 -0.9 0.74 -2.72 2.06 -7.62 0.27 -1.02 0.49 -1.94 0.47 -2.05 -0.02 -0.16 -0.09 -0.2 -0.28 -0.18 -0.13 0.01 -1.21 0.54 -2.4 1.16 -3.05 1.61 -5.58 2.94 -6.8 3.58 -3.35 1.75 -3.48 1.84 -3.19 2.13 0.25 0.25 1.63 0.77 2.19 0.82 0.68 0.07 1.04 -0.08 1.85 -0.73 0.33 -0.27 1.12 -0.89 1.74 -1.39 0.63 -0.49 1.87 -1.48 2.75 -2.18 1.66 -1.33 1.96 -1.54 1.96 -1.39 0 0.04 -1.26 1.44 -2.79 3.09 -1.54 1.66 -2.82 3.11 -2.86 3.22 -0.09 0.3 0.09 0.55 0.52 0.73 1.97 0.83 4.3 1.77 4.39 1.77 0.06 0.01 0.24 -0.43 0.39 -0.96z"/>
      </g>
   </symbol>

   <symbol id="search-blue" width="20" height="20" viewBox="0 0 20 20">
      <path fill-rule="evenodd" clip-rule="evenodd" d="M14.8158 12.8969L20 18.0811L18.0811 20L12.8969 14.8158C9.4382 17.2767 4.67067 16.6765 1.92988 13.4351C-0.810911 10.1937 -0.61038 5.39272 2.39117 2.39117C5.39272 -0.61038 10.1937 -0.810911 13.4351 1.92988C16.6765 4.67067 17.2767 9.4382 14.8158 12.8969ZM8.18934 1.85937C4.6934 1.85937 1.85937 4.6934 1.85937 8.18934C1.86336 11.6836 4.69505 14.5153 8.18934 14.5193C11.6853 14.5193 14.5193 11.6853 14.5193 8.18934C14.5193 4.6934 11.6853 1.85937 8.18934 1.85937Z" fill="#4479BC"/>
   </symbol>





</svg>
