<svg width="76" height="69" viewBox="0 0 76 69" fill="none" xmlns="http://www.w3.org/2000/svg">
<path d="M38.7696 8.30836C30.3591 -0.102136 16.7254 -0.102136 8.30401 8.30836C-0.106485 16.7189 -0.0961873 30.3634 8.30401 38.763L24.2746 54.7342L34.9571 65.4161C36.0123 66.4713 37.3909 67.0001 38.7696 67.0001" stroke="#E01F2D" stroke-width="3.23009"/>
<path d="M38.7661 8.30822C47.3686 -0.294896 61.4317 -0.0944012 69.7817 8.88548C77.7306 17.4329 77.114 30.8794 68.8598 39.133L42.5731 65.4196C41.5222 66.4706 40.1435 66.9963 38.7661 66.9963" stroke="#E01F2D" stroke-width="3.23009" stroke-linecap="round" stroke-linejoin="round" stroke-dasharray="12.92 12.92"/>
<path fill-rule="evenodd" clip-rule="evenodd" d="M24.2746 54.734L8.30403 38.7634C-0.0955641 30.3638 -0.106468 16.7192 8.30403 8.30815C16.7254 -0.10174 30.3591 -0.10174 38.7696 8.30815C20.387 1.02854 -1.43119 24.2357 24.2746 54.734Z" fill="#E01F2D" fill-opacity="0.2"/>
</svg>
