<svg width="194" height="33" viewBox="0 0 194 33" fill="none" xmlns="http://www.w3.org/2000/svg">
<g clip-path="url(#clip0)">
<path d="M15.707 31.1632L17.5082 33V2.73456C17.4757 2.70698 17.3881 2.63197 17.2972 2.55254C17.1836 2.45325 16.7617 2.10575 16.6157 2.00647C16.4697 1.90718 16.0802 1.64242 15.707 1.41076C15.3338 1.17909 14.7984 0.930879 14.2954 0.732308C13.7923 0.533738 12.9486 0.302073 12.4942 0.202787C12.0399 0.103502 11.261 0.0207644 10.7905 0.00421689C10.3199 -0.0123307 9.73577 0.0207644 9.18408 0.0869545C8.63238 0.153145 7.82107 0.351715 7.35051 0.500643C6.87994 0.649571 6.19844 0.930879 5.77656 1.146C5.35467 1.36111 4.73807 1.75826 4.28374 2.08921C3.8294 2.42016 3.39129 2.8173 2.96941 3.23099C2.54753 3.64467 2.27168 4.04182 1.97961 4.43896C1.68753 4.8361 1.37923 5.38217 1.16829 5.77931C0.957351 6.17645 0.584146 7.1362 0.43811 7.56644C0.292073 7.99668 0.12981 8.90679 0.0649051 9.40322C0 9.89964 0 10.5615 0 11.058C0 11.5544 0.12981 12.5142 0.227168 13.0106C0.324526 13.507 0.69773 14.6322 0.778862 14.8143C0.859993 14.9963 1.26565 15.8568 1.34678 15.9891C1.42791 16.1215 1.86602 16.8496 2.02829 17.0647C2.19055 17.2798 2.28791 17.3957 2.43394 17.5777C2.55077 17.7233 3.00186 18.201 3.2128 18.4216L5.63052 20.8872L9.752 25.0903L12.689 28.0854L14.5063 29.9387L15.707 31.1632Z" fill="#CE3C3D"/>
<path d="M19.293 31.1632L17.4918 33V2.73456C17.5243 2.70698 17.6119 2.63197 17.7028 2.55254C17.8164 2.45325 18.2383 2.10575 18.3843 2.00647C18.5303 1.90718 18.9198 1.64242 19.293 1.41076C19.6662 1.17909 20.2016 0.930879 20.7046 0.732308C21.2077 0.533738 22.0514 0.302073 22.5058 0.202787C22.9601 0.103502 23.739 0.0207644 24.2095 0.00421689C24.6801 -0.0123307 25.2642 0.0207644 25.8159 0.0869545C26.3676 0.153145 27.1789 0.351715 27.6495 0.500643C28.1201 0.649571 28.8016 0.930879 29.2234 1.146C29.6453 1.36111 30.2619 1.75826 30.7163 2.08921C31.1706 2.42016 31.6087 2.8173 32.0306 3.23099C32.4525 3.64467 32.7283 4.04182 33.0204 4.43896C33.3125 4.8361 33.6208 5.38217 33.8317 5.77931C34.0426 6.17645 34.4159 7.1362 34.5619 7.56644C34.7079 7.99668 34.8702 8.90679 34.9351 9.40322C35 9.89964 35 10.5615 35 11.058C35 11.5544 34.8702 12.5142 34.7728 13.0106C34.6755 13.507 34.3023 14.6322 34.2211 14.8143C34.14 14.9963 33.7343 15.8568 33.6532 15.9891C33.5721 16.1215 33.134 16.8496 32.9717 17.0647C32.8095 17.2798 32.7121 17.3957 32.5661 17.5777C32.4492 17.7233 31.9981 18.201 31.7872 18.4216L29.3695 20.8872L25.248 25.0903L22.311 28.0854L20.4937 29.9387L19.293 31.1632Z" fill="#CCCCCC"/>
<path d="M50.9134 16.3201L54.1294 24.0001H51.7294L49.7134 18.2881L47.6974 24.0001H45.3694L48.5374 16.3201L45.5854 8.97607H47.9854L49.7134 14.3761L51.4654 8.97607H53.8174L50.9134 16.3201ZM62.3866 13.6801H60.1786V11.3761C60.1786 11.0881 60.1306 10.9041 60.0346 10.8241C59.9546 10.7281 59.7706 10.6801 59.4826 10.6801H58.2586C57.9706 10.6801 57.7786 10.7281 57.6826 10.8241C57.5866 10.9041 57.5386 11.0881 57.5386 11.3761V21.6241C57.5386 21.9121 57.5866 22.1041 57.6826 22.2001C57.7786 22.2801 57.9706 22.3201 58.2586 22.3201H59.4826C59.7706 22.3201 59.9546 22.2801 60.0346 22.2001C60.1306 22.1041 60.1786 21.9121 60.1786 21.6241V19.3441H62.3866V21.8881C62.3866 23.3121 61.6346 24.0241 60.1306 24.0241H57.5866C56.0986 24.0241 55.3546 23.3121 55.3546 21.8881V11.0881C55.3546 9.68007 56.0986 8.97607 57.5866 8.97607H60.1306C61.6346 8.97607 62.3866 9.68007 62.3866 11.0881V13.6801ZM69.8734 8.97607H72.0334V24.0001H69.8734V17.4001H66.6814V24.0001H64.5214V8.97607H66.6814V15.6481H69.8734V8.97607ZM74.0493 22.3201V19.3681H76.4733V22.3201H74.0493ZM74.0493 16.9201V13.9681H76.4733V16.9201H74.0493ZM81.9589 8.97607H87.1669C88.6709 8.97607 89.4229 9.68007 89.4229 11.0881V14.9041C89.4229 15.7521 89.1029 16.2481 88.4629 16.3921C89.1029 16.5521 89.4229 17.0161 89.4229 17.7841V21.8881C89.4229 23.2961 88.6709 24.0001 87.1669 24.0001H81.9589V8.97607ZM87.2389 21.6001V17.9041C87.2389 17.6161 87.1909 17.4321 87.0949 17.3521C86.9989 17.2561 86.8069 17.2081 86.5189 17.2081H84.1189V22.2961H86.5189C86.8069 22.2961 86.9989 22.2561 87.0949 22.1761C87.1909 22.0801 87.2389 21.8881 87.2389 21.6001ZM87.2389 14.8081V11.3761C87.2389 11.0881 87.1909 10.9041 87.0949 10.8241C86.9989 10.7281 86.8069 10.6801 86.5189 10.6801H84.1189V15.5041H86.5189C86.8069 15.5041 86.9989 15.4641 87.0949 15.3841C87.1909 15.2881 87.2389 15.0961 87.2389 14.8081ZM96.7713 21.5521C96.7713 21.8401 96.7233 22.0241 96.6273 22.1041C96.5313 22.2001 96.3393 22.2481 96.0513 22.2481H93.9393V16.5121H96.0513C96.3393 16.5121 96.5313 16.5601 96.6273 16.6561C96.7233 16.7521 96.7713 16.9441 96.7713 17.2321V21.5521ZM93.9393 14.7841V8.97607H91.7793V24.0001H96.6992C98.1873 24.0001 98.9313 23.2961 98.9313 21.8881V16.8961C98.9313 15.4881 98.1873 14.7841 96.6992 14.7841H93.9393ZM103.251 24.0001H101.091V8.97607H103.251V24.0001ZM110.14 16.3201L113.356 24.0001H110.956L108.94 18.2881L106.924 24.0001H104.596L107.764 16.3201L104.812 8.97607H107.212L108.94 14.3761L110.692 8.97607H113.044L110.14 16.3201ZM119.573 21.5521V11.4241C119.573 11.1361 119.525 10.9521 119.429 10.8721C119.333 10.7761 119.141 10.7281 118.853 10.7281H117.461C117.173 10.7281 116.981 10.7761 116.885 10.8721C116.805 10.9521 116.765 11.1361 116.765 11.4241V21.5521C116.765 21.8401 116.805 22.0321 116.885 22.1281C116.981 22.2081 117.173 22.2481 117.461 22.2481H118.853C119.141 22.2481 119.333 22.2081 119.429 22.1281C119.525 22.0321 119.573 21.8401 119.573 21.5521ZM116.837 8.97607H119.501C120.989 8.97607 121.733 9.68007 121.733 11.0881V21.8881C121.733 23.2961 120.989 24.0001 119.501 24.0001H116.837C115.333 24.0001 114.581 23.2961 114.581 21.8881V11.0881C114.581 9.68007 115.333 8.97607 116.837 8.97607ZM126.667 9.02407L124.267 22.3681H123.091V26.0401H125.299V24.0481H130.483V26.0401H132.691V22.3681H131.587V9.02407H126.667ZM128.203 10.7281H129.379V22.3681H126.427L128.203 10.7281ZM142.975 13.4641L139.903 24.0001H137.623V8.97607H139.615V19.8241L142.783 8.97607H144.967V24.0001H142.975V13.4641ZM149.075 11.4241V13.6801H146.915V11.0881C146.915 9.68007 147.659 8.97607 149.147 8.97607H151.355C152.859 8.97607 153.611 9.68007 153.611 11.0881V14.8801C153.611 15.7281 153.291 16.2241 152.651 16.3681C153.291 16.5121 153.611 16.9761 153.611 17.7601V21.8881C153.611 23.2961 152.859 24.0001 151.355 24.0001H149.147C147.659 24.0001 146.915 23.2961 146.915 21.8881V19.3201H149.075V21.5521C149.075 21.8401 149.123 22.0321 149.219 22.1281C149.315 22.2081 149.507 22.2481 149.795 22.2481H150.731C151.019 22.2481 151.211 22.2081 151.307 22.1281C151.403 22.0321 151.451 21.8401 151.451 21.5521V17.9521C151.451 17.6641 151.403 17.4801 151.307 17.4001C151.211 17.3041 151.019 17.2561 150.731 17.2561H148.931V15.5281H150.731C151.019 15.5281 151.211 15.4881 151.307 15.4081C151.403 15.3121 151.451 15.1201 151.451 14.8321V11.4241C151.451 11.1361 151.403 10.9521 151.307 10.8721C151.211 10.7761 151.019 10.7281 150.731 10.7281H149.795C149.507 10.7281 149.315 10.7761 149.219 10.8721C149.123 10.9521 149.075 11.1361 149.075 11.4241ZM165.539 8.97607V10.7281H163.019V24.0001H160.859V10.7281H158.339V8.97607H165.539ZM169.08 22.2481H173.424V24.0001H166.896V8.97607H173.256V10.7281H169.08V15.3601H172.536V17.1121H169.08V22.2481ZM180.475 8.97607H182.635V24.0001H180.475V17.4001H177.283V24.0001H175.123V8.97607H177.283V15.6481H180.475V8.97607ZM190.483 13.4641L187.411 24.0001H185.131V8.97607H187.123V19.8241L190.291 8.97607H192.475V24.0001H190.483V13.4641Z" fill="#CA3636"/>
<path d="M50.9133 16.32L50.6344 16.2097L50.5895 16.3232L50.6366 16.4359L50.9133 16.32ZM54.1293 24V24.3H54.5802L54.4061 23.8841L54.1293 24ZM51.7293 24L51.4464 24.0998L51.5171 24.3H51.7293V24ZM49.7133 18.288L49.9962 18.1882L49.7133 17.3866L49.4304 18.1882L49.7133 18.288ZM47.6973 24V24.3H47.9096L47.9802 24.0998L47.6973 24ZM45.3693 24L45.092 23.8856L44.9211 24.3H45.3693V24ZM48.5373 16.32L48.8147 16.4344L48.8613 16.3215L48.8157 16.2081L48.5373 16.32ZM45.5853 8.97603V8.67603H45.1414L45.307 9.08792L45.5853 8.97603ZM47.9853 8.97603L48.2711 8.8846L48.2043 8.67603H47.9853V8.97603ZM49.7133 14.376L49.4276 14.4674L49.7114 15.3542L49.9987 14.4686L49.7133 14.376ZM51.4653 8.97603V8.67603H51.2473L51.18 8.88345L51.4653 8.97603ZM53.8173 8.97603L54.0963 9.08634L54.2586 8.67603H53.8173V8.97603ZM50.6366 16.4359L53.8526 24.1159L54.4061 23.8841L51.1901 16.2041L50.6366 16.4359ZM54.1293 23.7H51.7293V24.3H54.1293V23.7ZM52.0122 23.9002L49.9962 18.1882L49.4304 18.3878L51.4464 24.0998L52.0122 23.9002ZM49.4304 18.1882L47.4144 23.9002L47.9802 24.0998L49.9962 18.3878L49.4304 18.1882ZM47.6973 23.7H45.3693V24.3H47.6973V23.7ZM45.6467 24.1144L48.8147 16.4344L48.26 16.2056L45.092 23.8856L45.6467 24.1144ZM48.8157 16.2081L45.8637 8.86414L45.307 9.08792L48.259 16.4319L48.8157 16.2081ZM45.5853 9.27603H47.9853V8.67603H45.5853V9.27603ZM47.6996 9.06746L49.4276 14.4674L49.9991 14.2846L48.2711 8.8846L47.6996 9.06746ZM49.9987 14.4686L51.7507 9.06861L51.18 8.88345L49.428 14.2834L49.9987 14.4686ZM51.4653 9.27603H53.8173V8.67603H51.4653V9.27603ZM53.5384 8.86571L50.6344 16.2097L51.1923 16.4303L54.0963 9.08634L53.5384 8.86571ZM62.3865 13.68V13.98H62.6865V13.68H62.3865ZM60.1785 13.68H59.8785V13.98H60.1785V13.68ZM60.0345 10.824L59.804 11.0161L59.8215 11.037L59.8424 11.0545L60.0345 10.824ZM57.6825 10.824L57.8745 11.0545L57.885 11.0458L57.8946 11.0361L57.6825 10.824ZM57.6825 22.2L57.4703 22.4121L57.48 22.4218L57.4904 22.4305L57.6825 22.2ZM60.0345 22.2L59.8223 21.9879L60.0345 22.2ZM60.1785 19.344V19.044H59.8785V19.344H60.1785ZM62.3865 19.344H62.6865V19.044H62.3865V19.344ZM62.3865 13.38H60.1785V13.98H62.3865V13.38ZM60.4785 13.68V11.376H59.8785V13.68H60.4785ZM60.4785 11.376C60.4785 11.2181 60.4656 11.0722 60.4327 10.9463C60.4007 10.8234 60.3418 10.6896 60.2265 10.5935L59.8424 11.0545C59.8232 11.0384 59.8362 11.0366 59.8522 11.0977C59.8673 11.1558 59.8785 11.2459 59.8785 11.376H60.4785ZM60.2649 10.6319C60.1689 10.5167 60.0351 10.4578 59.9122 10.4257C59.7863 10.3929 59.6404 10.38 59.4825 10.38V10.98C59.6126 10.98 59.7027 10.9911 59.7607 11.0063C59.8219 11.0222 59.82 11.0353 59.804 11.0161L60.2649 10.6319ZM59.4825 10.38H58.2585V10.98H59.4825V10.38ZM58.2585 10.38C58.1 10.38 57.9536 10.393 57.8257 10.425C57.6996 10.4565 57.5705 10.5117 57.4703 10.6119L57.8946 11.0361C57.8904 11.0403 57.9053 11.0235 57.9712 11.007C58.0353 10.991 58.1289 10.98 58.2585 10.98V10.38ZM57.4904 10.5935C57.3752 10.6896 57.3162 10.8234 57.2842 10.9463C57.2513 11.0722 57.2385 11.2181 57.2385 11.376H57.8385C57.8385 11.2459 57.8496 11.1558 57.8647 11.0977C57.8807 11.0366 57.8938 11.0384 57.8745 11.0545L57.4904 10.5935ZM57.2385 11.376V21.624H57.8385V11.376H57.2385ZM57.2385 21.624C57.2385 21.7825 57.2514 21.9289 57.2834 22.0568C57.3149 22.1828 57.3702 22.312 57.4703 22.4121L57.8946 21.9879C57.8988 21.992 57.882 21.9772 57.8655 21.9112C57.8495 21.8471 57.8385 21.7535 57.8385 21.624H57.2385ZM57.4904 22.4305C57.5917 22.5149 57.7179 22.5588 57.8373 22.5837C57.9604 22.6093 58.1025 22.62 58.2585 22.62V22.02C58.1264 22.02 58.0286 22.0107 57.9596 21.9963C57.887 21.9812 57.8692 21.9651 57.8745 21.9695L57.4904 22.4305ZM58.2585 22.62H59.4825V22.02H58.2585V22.62ZM59.4825 22.62C59.6379 22.62 59.7793 22.6094 59.9002 22.5832C60.0149 22.5582 60.1471 22.5117 60.2466 22.4121L59.8223 21.9879C59.8419 21.9683 59.842 21.9818 59.7727 21.9968C59.7096 22.0106 59.615 22.02 59.4825 22.02V22.62ZM60.2466 22.4121C60.3468 22.312 60.402 22.1828 60.4335 22.0568C60.4655 21.9289 60.4785 21.7825 60.4785 21.624H59.8785C59.8785 21.7535 59.8674 21.8471 59.8514 21.9112C59.8349 21.9772 59.8182 21.992 59.8223 21.9879L60.2466 22.4121ZM60.4785 21.624V19.344H59.8785V21.624H60.4785ZM60.1785 19.644H62.3865V19.044H60.1785V19.644ZM62.0865 19.344V21.888H62.6865V19.344H62.0865ZM62.0865 21.888C62.0865 22.5494 61.9126 22.9915 61.6162 23.2722C61.3167 23.5557 60.8402 23.724 60.1305 23.724V24.324C60.9247 24.324 61.5762 24.1363 62.0287 23.7078C62.4843 23.2765 62.6865 22.6506 62.6865 21.888H62.0865ZM60.1305 23.724H57.5865V24.324H60.1305V23.724ZM57.5865 23.724C56.8855 23.724 56.4154 23.5561 56.1199 23.2733C55.8268 22.9928 55.6545 22.5503 55.6545 21.888H55.0545C55.0545 22.6497 55.2541 23.2752 55.705 23.7067C56.1535 24.1359 56.7994 24.324 57.5865 24.324V23.724ZM55.6545 21.888V11.088H55.0545V21.888H55.6545ZM55.6545 11.088C55.6545 10.4346 55.8263 9.99859 56.1187 9.72194C56.4141 9.44234 56.8847 9.27603 57.5865 9.27603V8.67603C56.8002 8.67603 56.1548 8.86172 55.7063 9.28612C55.2546 9.71346 55.0545 10.3334 55.0545 11.088H55.6545ZM57.5865 9.27603H60.1305V8.67603H57.5865V9.27603ZM60.1305 9.27603C60.841 9.27603 61.318 9.44271 61.6174 9.72304C61.9132 9.99988 62.0865 10.4355 62.0865 11.088H62.6865C62.6865 10.3325 62.4838 9.71218 62.0275 9.28502C61.5749 8.86135 60.924 8.67603 60.1305 8.67603V9.27603ZM62.0865 11.088V13.68H62.6865V11.088H62.0865ZM69.8733 8.97603V8.67603H69.5733V8.97603H69.8733ZM72.0333 8.97603H72.3333V8.67603H72.0333V8.97603ZM72.0333 24V24.3H72.3333V24H72.0333ZM69.8733 24H69.5733V24.3H69.8733V24ZM69.8733 17.4H70.1733V17.1H69.8733V17.4ZM66.6813 17.4V17.1H66.3813V17.4H66.6813ZM66.6813 24V24.3H66.9813V24H66.6813ZM64.5213 24H64.2213V24.3H64.5213V24ZM64.5213 8.97603V8.67603H64.2213V8.97603H64.5213ZM66.6813 8.97603H66.9813V8.67603H66.6813V8.97603ZM66.6813 15.648H66.3813V15.948H66.6813V15.648ZM69.8733 15.648V15.948H70.1733V15.648H69.8733ZM69.8733 9.27603H72.0333V8.67603H69.8733V9.27603ZM71.7333 8.97603V24H72.3333V8.97603H71.7333ZM72.0333 23.7H69.8733V24.3H72.0333V23.7ZM70.1733 24V17.4H69.5733V24H70.1733ZM69.8733 17.1H66.6813V17.7H69.8733V17.1ZM66.3813 17.4V24H66.9813V17.4H66.3813ZM66.6813 23.7H64.5213V24.3H66.6813V23.7ZM64.8213 24V8.97603H64.2213V24H64.8213ZM64.5213 9.27603H66.6813V8.67603H64.5213V9.27603ZM66.3813 8.97603V15.648H66.9813V8.97603H66.3813ZM66.6813 15.948H69.8733V15.348H66.6813V15.948ZM70.1733 15.648V8.97603H69.5733V15.648H70.1733ZM74.0491 22.32H73.7492V22.62H74.0491V22.32ZM74.0491 19.368V19.068H73.7492V19.368H74.0491ZM76.4731 19.368H76.7732V19.068H76.4731V19.368ZM76.4731 22.32V22.62H76.7732V22.32H76.4731ZM74.0491 16.92H73.7492V17.22H74.0491V16.92ZM74.0491 13.968V13.668H73.7492V13.968H74.0491ZM76.4731 13.968H76.7732V13.668H76.4731V13.968ZM76.4731 16.92V17.22H76.7732V16.92H76.4731ZM74.3492 22.32V19.368H73.7492V22.32H74.3492ZM74.0491 19.668H76.4731V19.068H74.0491V19.668ZM76.1732 19.368V22.32H76.7732V19.368H76.1732ZM76.4731 22.02H74.0491V22.62H76.4731V22.02ZM74.3492 16.92V13.968H73.7492V16.92H74.3492ZM74.0491 14.268H76.4731V13.668H74.0491V14.268ZM76.1732 13.968V16.92H76.7732V13.968H76.1732ZM76.4731 16.62H74.0491V17.22H76.4731V16.62ZM81.9588 8.97603V8.67603H81.6588V8.97603H81.9588ZM88.4628 16.392L88.397 16.0993L88.3901 16.683L88.4628 16.392ZM81.9588 24H81.6588V24.3H81.9588V24ZM87.0948 17.352L86.8827 17.5641L86.8923 17.5738L86.9028 17.5825L87.0948 17.352ZM84.1188 17.208V16.908H83.8188V17.208H84.1188ZM84.1188 22.296H83.8188V22.596H84.1188V22.296ZM87.0948 22.176L87.2869 22.4065L87.2973 22.3978L87.307 22.3881L87.0948 22.176ZM87.0948 10.824L86.8827 11.0361L86.8923 11.0458L86.9028 11.0545L87.0948 10.824ZM84.1188 10.68V10.38H83.8188V10.68H84.1188ZM84.1188 15.504H83.8188V15.804H84.1188V15.504ZM87.0948 15.384L87.2869 15.6145L87.2973 15.6058L87.307 15.5961L87.0948 15.384ZM81.9588 9.27603H87.1668V8.67603H81.9588V9.27603ZM87.1668 9.27603C87.8773 9.27603 88.3544 9.44271 88.6538 9.72304C88.9495 9.99988 89.1228 10.4355 89.1228 11.088H89.7228C89.7228 10.3325 89.5201 9.71218 89.0639 9.28502C88.6113 8.86135 87.9603 8.67603 87.1668 8.67603V9.27603ZM89.1228 11.088V14.904H89.7228V11.088H89.1228ZM89.1228 14.904C89.1228 15.2943 89.0486 15.5667 88.9307 15.7494C88.8183 15.9237 88.6496 16.0425 88.397 16.0993L88.5287 16.6847C88.9161 16.5975 89.2274 16.3963 89.4349 16.0746C89.6371 15.7613 89.7228 15.3617 89.7228 14.904H89.1228ZM88.3901 16.683C88.652 16.7485 88.8242 16.8684 88.9359 17.0303C89.0509 17.197 89.1228 17.4393 89.1228 17.784H89.7228C89.7228 17.3607 89.6348 16.987 89.4298 16.6897C89.2214 16.3876 88.9136 16.1955 88.5356 16.101L88.3901 16.683ZM89.1228 17.784V21.888H89.7228V17.784H89.1228ZM89.1228 21.888C89.1228 22.5405 88.9495 22.9762 88.6538 23.253C88.3544 23.5333 87.8773 23.7 87.1668 23.7V24.3C87.9603 24.3 88.6113 24.1147 89.0639 23.691C89.5201 23.2638 89.7228 22.6435 89.7228 21.888H89.1228ZM87.1668 23.7H81.9588V24.3H87.1668V23.7ZM82.2588 24V8.97603H81.6588V24H82.2588ZM87.5388 21.6V17.904H86.9388V21.6H87.5388ZM87.5388 17.904C87.5388 17.7461 87.526 17.6002 87.4931 17.4743C87.4611 17.3514 87.4021 17.2176 87.2869 17.1215L86.9028 17.5825C86.8835 17.5664 86.8966 17.5646 86.9126 17.6257C86.9277 17.6838 86.9388 17.7739 86.9388 17.904H87.5388ZM87.307 17.1399C87.2068 17.0397 87.0777 16.9845 86.9516 16.953C86.8237 16.921 86.6773 16.908 86.5188 16.908V17.508C86.6484 17.508 86.742 17.519 86.8061 17.535C86.872 17.5515 86.8869 17.5683 86.8827 17.5641L87.307 17.1399ZM86.5188 16.908H84.1188V17.508H86.5188V16.908ZM83.8188 17.208V22.296H84.4188V17.208H83.8188ZM84.1188 22.596H86.5188V21.996H84.1188V22.596ZM86.5188 22.596C86.6748 22.596 86.8169 22.5853 86.94 22.5597C87.0594 22.5348 87.1855 22.4909 87.2869 22.4065L86.9028 21.9455C86.9081 21.9411 86.8903 21.9572 86.8177 21.9723C86.7487 21.9867 86.6509 21.996 86.5188 21.996V22.596ZM87.307 22.3881C87.4071 22.288 87.4624 22.1588 87.4939 22.0328C87.5259 21.9049 87.5388 21.7585 87.5388 21.6H86.9388C86.9388 21.7295 86.9278 21.8231 86.9118 21.8872C86.8953 21.9532 86.8785 21.968 86.8827 21.9639L87.307 22.3881ZM87.5388 14.808V11.376H86.9388V14.808H87.5388ZM87.5388 11.376C87.5388 11.2181 87.526 11.0722 87.4931 10.9463C87.4611 10.8234 87.4021 10.6896 87.2869 10.5935L86.9028 11.0545C86.8835 11.0384 86.8966 11.0366 86.9126 11.0977C86.9277 11.1558 86.9388 11.2459 86.9388 11.376H87.5388ZM87.307 10.6119C87.2068 10.5117 87.0777 10.4565 86.9516 10.425C86.8237 10.393 86.6773 10.38 86.5188 10.38V10.98C86.6484 10.98 86.742 10.991 86.8061 11.007C86.872 11.0235 86.8869 11.0403 86.8827 11.0361L87.307 10.6119ZM86.5188 10.38H84.1188V10.98H86.5188V10.38ZM83.8188 10.68V15.504H84.4188V10.68H83.8188ZM84.1188 15.804H86.5188V15.204H84.1188V15.804ZM86.5188 15.804C86.6748 15.804 86.8169 15.7933 86.94 15.7677C87.0594 15.7428 87.1856 15.6989 87.2869 15.6145L86.9028 15.1535C86.9081 15.1491 86.8903 15.1652 86.8177 15.1803C86.7487 15.1947 86.6509 15.204 86.5188 15.204V15.804ZM87.307 15.5961C87.4071 15.496 87.4624 15.3668 87.4939 15.2408C87.5259 15.1129 87.5388 14.9665 87.5388 14.808H86.9388C86.9388 14.9375 86.9278 15.0311 86.9118 15.0952C86.8953 15.1612 86.8785 15.176 86.8827 15.1719L87.307 15.5961ZM96.6272 22.104L96.4351 21.8735L96.4246 21.8822L96.415 21.8919L96.6272 22.104ZM93.9392 22.248H93.6392V22.548H93.9392V22.248ZM93.9392 16.512V16.212H93.6392V16.512H93.9392ZM96.6272 16.656L96.8393 16.4439L96.6272 16.656ZM93.9392 14.784H93.6392V15.084H93.9392V14.784ZM93.9392 8.97603H94.2392V8.67603H93.9392V8.97603ZM91.7792 8.97603V8.67603H91.4792V8.97603H91.7792ZM91.7792 24H91.4792V24.3H91.7792V24ZM103.251 24V24.3H103.551V24H103.251ZM101.091 24H100.791V24.3H101.091V24ZM101.091 8.97603V8.67603H100.791V8.97603H101.091ZM103.251 8.97603H103.551V8.67603H103.251V8.97603ZM96.4711 21.552C96.4711 21.6821 96.46 21.7722 96.4449 21.8303C96.4289 21.8914 96.4158 21.8896 96.4351 21.8735L96.8192 22.3345C96.9345 22.2384 96.9934 22.1046 97.0254 21.9817C97.0583 21.8558 97.0712 21.7099 97.0712 21.552H96.4711ZM96.415 21.8919C96.4192 21.8877 96.4043 21.9045 96.3384 21.921C96.2743 21.937 96.1807 21.948 96.0512 21.948V22.548C96.2096 22.548 96.356 22.535 96.4839 22.503C96.61 22.4715 96.7391 22.4163 96.8393 22.3161L96.415 21.8919ZM96.0512 21.948H93.9392V22.548H96.0512V21.948ZM94.2392 22.248V16.512H93.6392V22.248H94.2392ZM93.9392 16.812H96.0512V16.212H93.9392V16.812ZM96.0512 16.812C96.1807 16.812 96.2743 16.823 96.3384 16.839C96.4043 16.8555 96.4192 16.8723 96.415 16.8681L96.8393 16.4439C96.7391 16.3437 96.61 16.2885 96.4839 16.257C96.356 16.225 96.2096 16.212 96.0512 16.212V16.812ZM96.415 16.8681C96.4109 16.864 96.4276 16.8788 96.4441 16.9448C96.4601 17.0089 96.4711 17.1025 96.4711 17.232H97.0712C97.0712 17.0735 97.0582 16.9271 97.0262 16.7992C96.9947 16.6732 96.9394 16.544 96.8393 16.4439L96.415 16.8681ZM96.4711 17.232V21.552H97.0712V17.232H96.4711ZM94.2392 14.784V8.97603H93.6392V14.784H94.2392ZM93.9392 8.67603H91.7792V9.27603H93.9392V8.67603ZM91.4792 8.97603V24H92.0792V8.97603H91.4792ZM91.7792 24.3H96.6991V23.7H91.7792V24.3ZM96.6991 24.3C97.4854 24.3 98.1308 24.1143 98.5793 23.6899C99.031 23.2626 99.2312 22.6426 99.2312 21.888H98.6312C98.6312 22.5414 98.4593 22.9774 98.167 23.2541C97.8715 23.5337 97.4009 23.7 96.6991 23.7V24.3ZM99.2312 21.888V16.896H98.6312V21.888H99.2312ZM99.2312 16.896C99.2312 16.1414 99.031 15.5214 98.5793 15.0941C98.1308 14.6697 97.4854 14.484 96.6991 14.484V15.084C97.4009 15.084 97.8715 15.2503 98.167 15.5299C98.4593 15.8066 98.6312 16.2426 98.6312 16.896H99.2312ZM96.6991 14.484H93.9392V15.084H96.6991V14.484ZM103.251 23.7H101.091V24.3H103.251V23.7ZM101.391 24V8.97603H100.791V24H101.391ZM101.091 9.27603H103.251V8.67603H101.091V9.27603ZM102.951 8.97603V24H103.551V8.97603H102.951ZM110.14 16.32L109.861 16.2097L109.816 16.3232L109.863 16.4359L110.14 16.32ZM113.356 24V24.3H113.807L113.633 23.8841L113.356 24ZM110.956 24L110.673 24.0998L110.744 24.3H110.956V24ZM108.94 18.288L109.223 18.1882L108.94 17.3866L108.657 18.1882L108.94 18.288ZM106.924 24V24.3H107.136L107.207 24.0998L106.924 24ZM104.596 24L104.319 23.8856L104.148 24.3H104.596V24ZM107.764 16.32L108.041 16.4344L108.088 16.3215L108.042 16.2081L107.764 16.32ZM104.812 8.97603V8.67603H104.368L104.534 9.08792L104.812 8.97603ZM107.212 8.97603L107.498 8.8846L107.431 8.67603H107.212V8.97603ZM108.94 14.376L108.654 14.4674L108.938 15.3542L109.225 14.4686L108.94 14.376ZM110.692 8.97603V8.67603H110.474L110.407 8.88345L110.692 8.97603ZM113.044 8.97603L113.323 9.08634L113.485 8.67603H113.044V8.97603ZM109.863 16.4359L113.079 24.1159L113.633 23.8841L110.417 16.2041L109.863 16.4359ZM113.356 23.7H110.956V24.3H113.356V23.7ZM111.239 23.9002L109.223 18.1882L108.657 18.3878L110.673 24.0998L111.239 23.9002ZM108.657 18.1882L106.641 23.9002L107.207 24.0998L109.223 18.3878L108.657 18.1882ZM106.924 23.7H104.596V24.3H106.924V23.7ZM104.873 24.1144L108.041 16.4344L107.487 16.2056L104.319 23.8856L104.873 24.1144ZM108.042 16.2081L105.09 8.86414L104.534 9.08792L107.486 16.4319L108.042 16.2081ZM104.812 9.27603H107.212V8.67603H104.812V9.27603ZM106.926 9.06746L108.654 14.4674L109.226 14.2846L107.498 8.8846L106.926 9.06746ZM109.225 14.4686L110.977 9.06861L110.407 8.88345L108.655 14.2834L109.225 14.4686ZM110.692 9.27603H113.044V8.67603H110.692V9.27603ZM112.765 8.86571L109.861 16.2097L110.419 16.4303L113.323 9.08634L112.765 8.86571ZM119.429 10.872L119.217 11.0841L119.227 11.0938L119.237 11.1025L119.429 10.872ZM116.885 10.872L116.673 10.6599L116.885 10.872ZM116.885 22.128L116.655 22.3201L116.672 22.341L116.693 22.3585L116.885 22.128ZM119.429 22.128L119.621 22.3585L119.632 22.3498L119.641 22.3401L119.429 22.128ZM119.873 21.552V11.424H119.273V21.552H119.873ZM119.873 11.424C119.873 11.2661 119.86 11.1202 119.827 10.9943C119.795 10.8714 119.736 10.7376 119.621 10.6415L119.237 11.1025C119.218 11.0864 119.231 11.0846 119.247 11.1457C119.262 11.2038 119.273 11.2939 119.273 11.424H119.873ZM119.641 10.6599C119.541 10.5597 119.412 10.5045 119.286 10.473C119.158 10.441 119.012 10.428 118.853 10.428V11.028C118.983 11.028 119.076 11.039 119.14 11.055C119.206 11.0715 119.221 11.0883 119.217 11.0841L119.641 10.6599ZM118.853 10.428H117.461V11.028H118.853V10.428ZM117.461 10.428C117.303 10.428 117.156 10.441 117.028 10.473C116.902 10.5045 116.773 10.5597 116.673 10.6599L117.097 11.0841C117.093 11.0883 117.108 11.0715 117.174 11.055C117.238 11.039 117.332 11.028 117.461 11.028V10.428ZM116.673 10.6599C116.573 10.7594 116.527 10.8915 116.502 11.0063C116.476 11.1271 116.465 11.2686 116.465 11.424H117.065C117.065 11.2914 117.075 11.1969 117.088 11.1337C117.103 11.0645 117.117 11.0646 117.097 11.0841L116.673 10.6599ZM116.465 11.424V21.552H117.065V11.424H116.465ZM116.465 21.552C116.465 21.7079 116.476 21.8501 116.501 21.9732C116.526 22.0926 116.57 22.2187 116.655 22.3201L117.116 21.9359C117.12 21.9413 117.104 21.9234 117.089 21.8508C117.074 21.7819 117.065 21.6841 117.065 21.552H116.465ZM116.693 22.3585C116.794 22.4429 116.921 22.4868 117.04 22.5117C117.163 22.5373 117.305 22.548 117.461 22.548V21.948C117.329 21.948 117.231 21.9387 117.162 21.9243C117.09 21.9092 117.072 21.8931 117.077 21.8975L116.693 22.3585ZM117.461 22.548H118.853V21.948H117.461V22.548ZM118.853 22.548C119.009 22.548 119.151 22.5373 119.274 22.5117C119.394 22.4868 119.52 22.4429 119.621 22.3585L119.237 21.8975C119.242 21.8931 119.225 21.9092 119.152 21.9243C119.083 21.9387 118.985 21.948 118.853 21.948V22.548ZM119.641 22.3401C119.741 22.24 119.797 22.1108 119.828 21.9848C119.86 21.8569 119.873 21.7105 119.873 21.552H119.273C119.273 21.6815 119.262 21.7751 119.246 21.8392C119.23 21.9052 119.213 21.92 119.217 21.9159L119.641 22.3401ZM116.837 9.27603H119.501V8.67603H116.837V9.27603ZM119.501 9.27603C120.203 9.27603 120.673 9.44234 120.969 9.72194C121.261 9.99859 121.433 10.4346 121.433 11.088H122.033C122.033 10.3334 121.833 9.71346 121.381 9.28612C120.933 8.86172 120.287 8.67603 119.501 8.67603V9.27603ZM121.433 11.088V21.888H122.033V11.088H121.433ZM121.433 21.888C121.433 22.5414 121.261 22.9774 120.969 23.2541C120.673 23.5337 120.203 23.7 119.501 23.7V24.3C120.287 24.3 120.933 24.1143 121.381 23.6899C121.833 23.2626 122.033 22.6426 122.033 21.888H121.433ZM119.501 23.7H116.837V24.3H119.501V23.7ZM116.837 23.7C116.127 23.7 115.65 23.5333 115.35 23.253C115.054 22.9762 114.881 22.5405 114.881 21.888H114.281C114.281 22.6435 114.484 23.2638 114.94 23.691C115.393 24.1147 116.044 24.3 116.837 24.3V23.7ZM114.881 21.888V11.088H114.281V21.888H114.881ZM114.881 11.088C114.881 10.4355 115.054 9.99988 115.35 9.72304C115.65 9.44271 116.127 9.27603 116.837 9.27603V8.67603C116.044 8.67603 115.393 8.86135 114.94 9.28502C114.484 9.71218 114.281 10.3325 114.281 11.088H114.881ZM126.667 9.02403V8.72403H126.416L126.372 8.97092L126.667 9.02403ZM124.267 22.368V22.668H124.518L124.562 22.4211L124.267 22.368ZM123.091 22.368V22.068H122.791V22.368H123.091ZM123.091 26.04H122.791V26.34H123.091V26.04ZM125.299 26.04V26.34H125.599V26.04H125.299ZM125.299 24.048V23.748H124.999V24.048H125.299ZM130.483 24.048H130.783V23.748H130.483V24.048ZM130.483 26.04H130.183V26.34H130.483V26.04ZM132.691 26.04V26.34H132.991V26.04H132.691ZM132.691 22.368H132.991V22.068H132.691V22.368ZM131.587 22.368H131.287V22.668H131.587V22.368ZM131.587 9.02403H131.887V8.72403H131.587V9.02403ZM128.203 10.728V10.428H127.945L127.906 10.6827L128.203 10.728ZM129.379 10.728H129.679V10.428H129.379V10.728ZM129.379 22.368V22.668H129.679V22.368H129.379ZM126.427 22.368L126.13 22.3228L126.078 22.668H126.427V22.368ZM126.372 8.97092L123.972 22.3149L124.562 22.4211L126.962 9.07713L126.372 8.97092ZM124.267 22.068H123.091V22.668H124.267V22.068ZM122.791 22.368V26.04H123.391V22.368H122.791ZM123.091 26.34H125.299V25.74H123.091V26.34ZM125.599 26.04V24.048H124.999V26.04H125.599ZM125.299 24.348H130.483V23.748H125.299V24.348ZM130.183 24.048V26.04H130.783V24.048H130.183ZM130.483 26.34H132.691V25.74H130.483V26.34ZM132.991 26.04V22.368H132.391V26.04H132.991ZM132.691 22.068H131.587V22.668H132.691V22.068ZM131.887 22.368V9.02403H131.287V22.368H131.887ZM131.587 8.72403H126.667V9.32403H131.587V8.72403ZM128.203 11.028H129.379V10.428H128.203V11.028ZM129.079 10.728V22.368H129.679V10.728H129.079ZM129.379 22.068H126.427V22.668H129.379V22.068ZM126.724 22.4132L128.5 10.7732L127.906 10.6827L126.13 22.3228L126.724 22.4132ZM142.975 13.464H143.275L142.687 13.38L142.975 13.464ZM139.903 24V24.3H140.128L140.191 24.084L139.903 24ZM137.623 24H137.323V24.3H137.623V24ZM137.623 8.97603V8.67603H137.323V8.97603H137.623ZM139.615 8.97603H139.915V8.67603H139.615V8.97603ZM139.615 19.824H139.315L139.903 19.9081L139.615 19.824ZM142.783 8.97603V8.67603H142.558L142.495 8.89193L142.783 8.97603ZM144.967 8.97603H145.267V8.67603H144.967V8.97603ZM144.967 24V24.3H145.267V24H144.967ZM142.975 24H142.675V24.3H142.975V24ZM142.687 13.38L139.615 23.916L140.191 24.084L143.263 13.548L142.687 13.38ZM139.903 23.7H137.623V24.3H139.903V23.7ZM137.923 24V8.97603H137.323V24H137.923ZM137.623 9.27603H139.615V8.67603H137.623V9.27603ZM139.315 8.97603V19.824H139.915V8.97603H139.315ZM139.903 19.9081L143.071 9.06013L142.495 8.89193L139.327 19.7399L139.903 19.9081ZM142.783 9.27603H144.967V8.67603H142.783V9.27603ZM144.667 8.97603V24H145.267V8.97603H144.667ZM144.967 23.7H142.975V24.3H144.967V23.7ZM143.275 24V13.464H142.675V24H143.275ZM149.075 13.68V13.98H149.375V13.68H149.075ZM146.915 13.68H146.615V13.98H146.915V13.68ZM152.651 16.368L152.585 16.0753V16.6607L152.651 16.368ZM146.915 19.32V19.02H146.615V19.32H146.915ZM149.075 19.32H149.375V19.02H149.075V19.32ZM149.219 22.128L149.007 22.3401L149.016 22.3498L149.027 22.3585L149.219 22.128ZM151.307 22.128L151.499 22.3585L151.509 22.3498L151.519 22.3401L151.307 22.128ZM151.307 17.4L151.095 17.6121L151.104 17.6218L151.115 17.6305L151.307 17.4ZM148.931 17.256H148.631V17.556H148.931V17.256ZM148.931 15.528V15.228H148.631V15.528H148.931ZM151.307 15.408L151.499 15.6385L151.509 15.6298L151.519 15.6201L151.307 15.408ZM151.307 10.872L151.095 11.0841L151.104 11.0938L151.115 11.1025L151.307 10.872ZM149.219 10.872L149.411 11.1025L149.421 11.0938L149.431 11.0841L149.219 10.872ZM148.775 11.424V13.68H149.375V11.424H148.775ZM149.075 13.38H146.915V13.98H149.075V13.38ZM147.215 13.68V11.088H146.615V13.68H147.215ZM147.215 11.088C147.215 10.4346 147.387 9.99859 147.679 9.72194C147.974 9.44234 148.445 9.27603 149.147 9.27603V8.67603C148.361 8.67603 147.715 8.86172 147.267 9.28612C146.815 9.71346 146.615 10.3334 146.615 11.088H147.215ZM149.147 9.27603H151.355V8.67603H149.147V9.27603ZM151.355 9.27603C152.065 9.27603 152.542 9.44271 152.842 9.72304C153.137 9.99988 153.311 10.4355 153.311 11.088H153.911C153.911 10.3325 153.708 9.71218 153.252 9.28502C152.799 8.86135 152.148 8.67603 151.355 8.67603V9.27603ZM153.311 11.088V14.88H153.911V11.088H153.311ZM153.311 14.88C153.311 15.2703 153.237 15.5427 153.119 15.7254C153.006 15.8997 152.838 16.0185 152.585 16.0753L152.717 16.6607C153.104 16.5735 153.415 16.3723 153.623 16.0506C153.825 15.7373 153.911 15.3377 153.911 14.88H153.311ZM152.585 16.6607C152.844 16.719 153.014 16.8345 153.124 16.9943C153.238 17.1601 153.311 17.4058 153.311 17.76H153.911C153.911 17.3302 153.823 16.9519 153.618 16.6537C153.408 16.3495 153.097 16.161 152.717 16.0753L152.585 16.6607ZM153.311 17.76V21.888H153.911V17.76H153.311ZM153.311 21.888C153.311 22.5405 153.137 22.9762 152.842 23.253C152.542 23.5333 152.065 23.7 151.355 23.7V24.3C152.148 24.3 152.799 24.1147 153.252 23.691C153.708 23.2638 153.911 22.6435 153.911 21.888H153.311ZM151.355 23.7H149.147V24.3H151.355V23.7ZM149.147 23.7C148.445 23.7 147.974 23.5337 147.679 23.2541C147.387 22.9774 147.215 22.5414 147.215 21.888H146.615C146.615 22.6426 146.815 23.2626 147.267 23.6899C147.715 24.1143 148.361 24.3 149.147 24.3V23.7ZM147.215 21.888V19.32H146.615V21.888H147.215ZM146.915 19.62H149.075V19.02H146.915V19.62ZM148.775 19.32V21.552H149.375V19.32H148.775ZM148.775 21.552C148.775 21.7105 148.788 21.8569 148.82 21.9848C148.851 22.1108 148.906 22.24 149.007 22.3401L149.431 21.9159C149.435 21.92 149.418 21.9052 149.402 21.8392C149.386 21.7751 149.375 21.6815 149.375 21.552H148.775ZM149.027 22.3585C149.128 22.4429 149.254 22.4868 149.374 22.5117C149.497 22.5373 149.639 22.548 149.795 22.548V21.948C149.663 21.948 149.565 21.9387 149.496 21.9243C149.423 21.9092 149.405 21.8931 149.411 21.8975L149.027 22.3585ZM149.795 22.548H150.731V21.948H149.795V22.548ZM150.731 22.548C150.887 22.548 151.029 22.5373 151.152 22.5117C151.271 22.4868 151.397 22.4429 151.499 22.3585L151.115 21.8975C151.12 21.8931 151.102 21.9092 151.03 21.9243C150.961 21.9387 150.863 21.948 150.731 21.948V22.548ZM151.519 22.3401C151.619 22.24 151.674 22.1108 151.706 21.9848C151.738 21.8569 151.751 21.7105 151.751 21.552H151.151C151.151 21.6815 151.14 21.7751 151.124 21.8392C151.107 21.9052 151.09 21.92 151.095 21.9159L151.519 22.3401ZM151.751 21.552V17.952H151.151V21.552H151.751ZM151.751 17.952C151.751 17.7941 151.738 17.6482 151.705 17.5223C151.673 17.3994 151.614 17.2656 151.499 17.1695L151.115 17.6305C151.095 17.6144 151.109 17.6126 151.124 17.6737C151.14 17.7318 151.151 17.8219 151.151 17.952H151.751ZM151.519 17.1879C151.419 17.0877 151.29 17.0325 151.164 17.001C151.036 16.969 150.889 16.956 150.731 16.956V17.556C150.86 17.556 150.954 17.567 151.018 17.583C151.084 17.5995 151.099 17.6163 151.095 17.6121L151.519 17.1879ZM150.731 16.956H148.931V17.556H150.731V16.956ZM149.231 17.256V15.528H148.631V17.256H149.231ZM148.931 15.828H150.731V15.228H148.931V15.828ZM150.731 15.828C150.887 15.828 151.029 15.8173 151.152 15.7917C151.271 15.7668 151.397 15.7229 151.499 15.6385L151.115 15.1775C151.12 15.1731 151.102 15.1892 151.03 15.2043C150.961 15.2187 150.863 15.228 150.731 15.228V15.828ZM151.519 15.6201C151.619 15.52 151.674 15.3908 151.706 15.2648C151.738 15.1369 151.751 14.9905 151.751 14.832H151.151C151.151 14.9615 151.14 15.0551 151.124 15.1192C151.107 15.1852 151.09 15.2 151.095 15.1959L151.519 15.6201ZM151.751 14.832V11.424H151.151V14.832H151.751ZM151.751 11.424C151.751 11.2661 151.738 11.1202 151.705 10.9943C151.673 10.8714 151.614 10.7376 151.499 10.6415L151.115 11.1025C151.095 11.0864 151.109 11.0846 151.124 11.1457C151.14 11.2038 151.151 11.2939 151.151 11.424H151.751ZM151.519 10.6599C151.419 10.5597 151.29 10.5045 151.164 10.473C151.036 10.441 150.889 10.428 150.731 10.428V11.028C150.86 11.028 150.954 11.039 151.018 11.055C151.084 11.0715 151.099 11.0883 151.095 11.0841L151.519 10.6599ZM150.731 10.428H149.795V11.028H150.731V10.428ZM149.795 10.428C149.636 10.428 149.49 10.441 149.362 10.473C149.236 10.5045 149.107 10.5597 149.007 10.6599L149.431 11.0841C149.427 11.0883 149.442 11.0715 149.508 11.055C149.572 11.039 149.665 11.028 149.795 11.028V10.428ZM149.027 10.6415C148.911 10.7376 148.853 10.8714 148.82 10.9943C148.788 11.1202 148.775 11.2661 148.775 11.424H149.375C149.375 11.2939 149.386 11.2038 149.401 11.1457C149.417 11.0846 149.43 11.0864 149.411 11.1025L149.027 10.6415ZM165.539 8.97603H165.839V8.67603H165.539V8.97603ZM165.539 10.728V11.028H165.839V10.728H165.539ZM163.019 10.728V10.428H162.719V10.728H163.019ZM163.019 24V24.3H163.319V24H163.019ZM160.859 24H160.559V24.3H160.859V24ZM160.859 10.728H161.159V10.428H160.859V10.728ZM158.339 10.728H158.039V11.028H158.339V10.728ZM158.339 8.97603V8.67603H158.039V8.97603H158.339ZM165.239 8.97603V10.728H165.839V8.97603H165.239ZM165.539 10.428H163.019V11.028H165.539V10.428ZM162.719 10.728V24H163.319V10.728H162.719ZM163.019 23.7H160.859V24.3H163.019V23.7ZM161.159 24V10.728H160.559V24H161.159ZM160.859 10.428H158.339V11.028H160.859V10.428ZM158.639 10.728V8.97603H158.039V10.728H158.639ZM158.339 9.27603H165.539V8.67603H158.339V9.27603ZM169.08 22.248H168.78V22.548H169.08V22.248ZM173.424 22.248H173.724V21.948H173.424V22.248ZM173.424 24V24.3H173.724V24H173.424ZM166.896 24H166.596V24.3H166.896V24ZM166.896 8.97603V8.67603H166.596V8.97603H166.896ZM173.256 8.97603H173.556V8.67603H173.256V8.97603ZM173.256 10.728V11.028H173.556V10.728H173.256ZM169.08 10.728V10.428H168.78V10.728H169.08ZM169.08 15.36H168.78V15.66H169.08V15.36ZM172.536 15.36H172.836V15.06H172.536V15.36ZM172.536 17.112V17.412H172.836V17.112H172.536ZM169.08 17.112V16.812H168.78V17.112H169.08ZM169.08 22.548H173.424V21.948H169.08V22.548ZM173.124 22.248V24H173.724V22.248H173.124ZM173.424 23.7H166.896V24.3H173.424V23.7ZM167.196 24V8.97603H166.596V24H167.196ZM166.896 9.27603H173.256V8.67603H166.896V9.27603ZM172.956 8.97603V10.728H173.556V8.97603H172.956ZM173.256 10.428H169.08V11.028H173.256V10.428ZM168.78 10.728V15.36H169.38V10.728H168.78ZM169.08 15.66H172.536V15.06H169.08V15.66ZM172.236 15.36V17.112H172.836V15.36H172.236ZM172.536 16.812H169.08V17.412H172.536V16.812ZM168.78 17.112V22.248H169.38V17.112H168.78ZM180.475 8.97603V8.67603H180.175V8.97603H180.475ZM182.635 8.97603H182.935V8.67603H182.635V8.97603ZM182.635 24V24.3H182.935V24H182.635ZM180.475 24H180.175V24.3H180.475V24ZM180.475 17.4H180.775V17.1H180.475V17.4ZM177.283 17.4V17.1H176.983V17.4H177.283ZM177.283 24V24.3H177.583V24H177.283ZM175.123 24H174.823V24.3H175.123V24ZM175.123 8.97603V8.67603H174.823V8.97603H175.123ZM177.283 8.97603H177.583V8.67603H177.283V8.97603ZM177.283 15.648H176.983V15.948H177.283V15.648ZM180.475 15.648V15.948H180.775V15.648H180.475ZM180.475 9.27603H182.635V8.67603H180.475V9.27603ZM182.335 8.97603V24H182.935V8.97603H182.335ZM182.635 23.7H180.475V24.3H182.635V23.7ZM180.775 24V17.4H180.175V24H180.775ZM180.475 17.1H177.283V17.7H180.475V17.1ZM176.983 17.4V24H177.583V17.4H176.983ZM177.283 23.7H175.123V24.3H177.283V23.7ZM175.423 24V8.97603H174.823V24H175.423ZM175.123 9.27603H177.283V8.67603H175.123V9.27603ZM176.983 8.97603V15.648H177.583V8.97603H176.983ZM177.283 15.948H180.475V15.348H177.283V15.948ZM180.775 15.648V8.97603H180.175V15.648H180.775ZM190.483 13.464H190.783L190.195 13.38L190.483 13.464ZM187.411 24V24.3H187.636L187.699 24.084L187.411 24ZM185.131 24H184.831V24.3H185.131V24ZM185.131 8.97603V8.67603H184.831V8.97603H185.131ZM187.123 8.97603H187.423V8.67603H187.123V8.97603ZM187.123 19.824H186.823L187.411 19.9081L187.123 19.824ZM190.291 8.97603V8.67603H190.066L190.003 8.89193L190.291 8.97603ZM192.475 8.97603H192.775V8.67603H192.475V8.97603ZM192.475 24V24.3H192.775V24H192.475ZM190.483 24H190.183V24.3H190.483V24ZM190.195 13.38L187.123 23.916L187.699 24.084L190.771 13.548L190.195 13.38ZM187.411 23.7H185.131V24.3H187.411V23.7ZM185.431 24V8.97603H184.831V24H185.431ZM185.131 9.27603H187.123V8.67603H185.131V9.27603ZM186.823 8.97603V19.824H187.423V8.97603H186.823ZM187.411 19.9081L190.579 9.06013L190.003 8.89193L186.835 19.7399L187.411 19.9081ZM190.291 9.27603H192.475V8.67603H190.291V9.27603ZM192.175 8.97603V24H192.775V8.97603H192.175ZM192.475 23.7H190.483V24.3H192.475V23.7ZM190.783 24V13.464H190.183V24H190.783Z" fill="#CA3636"/>
</g>
<defs>
<clipPath id="clip0">
<rect width="194" height="33" fill="white"/>
</clipPath>
</defs>
</svg>
