<svg width="101" height="64" viewBox="0 0 101 64" fill="none" xmlns="http://www.w3.org/2000/svg">
<path fill-rule="evenodd" clip-rule="evenodd" d="M12.741 15.2559C15.7071 15.2559 18.3923 16.4581 20.3361 18.4018C22.2798 20.3456 23.4821 23.0308 23.4821 25.9969V30.574C23.4821 33.9354 21.7204 36.885 19.0707 38.5512L19.071 55.6696C19.071 57.4175 18.3625 59 17.217 60.1455C16.0715 61.291 14.489 61.9995 12.741 61.9995C10.9931 61.9995 9.41059 61.291 8.2651 60.1455C7.11961 59 6.41111 57.4175 6.41111 55.6696L6.41137 38.5512C3.76165 36.885 2 33.9354 2 30.574V25.9969C2 23.0308 3.20223 20.3456 5.14598 18.4018C7.08972 16.4581 9.77498 15.2559 12.741 15.2559Z" fill="white" stroke="#8F9091" stroke-width="3.03525"/>
<path fill-rule="evenodd" clip-rule="evenodd" d="M12.7416 13.8665C16.4049 13.8665 19.6889 15.4903 21.9132 18.0574C20.873 22.3684 18.3844 26.3722 12.6165 26.3722C6.95093 26.3722 4.44935 22.5092 3.37622 18.2868C5.60117 15.5873 8.97041 13.8665 12.7416 13.8665Z" fill="#8F9091" fill-opacity="0.2"/>
<path fill-rule="evenodd" clip-rule="evenodd" d="M12.6164 2C14.3063 2 15.837 2.67678 16.9447 3.77296C18.0471 4.86391 18.7303 6.37068 18.7303 8.03575C18.7303 10.2436 18.5334 13.4773 17.044 15.7269C16.1589 17.0637 14.7626 17.9795 12.6164 17.9795C10.4701 17.9795 9.07379 17.0637 8.18875 15.7269C6.69934 13.4773 6.50244 10.2436 6.50244 8.03575C6.50244 6.37068 7.18558 4.86391 8.28801 3.77296C9.39573 2.67678 10.9264 2 12.6164 2Z" fill="#F9F9F9" stroke="#8F9091" stroke-width="3.03525"/>
<path fill-rule="evenodd" clip-rule="evenodd" d="M62.9066 15.2559C65.8726 15.2559 68.5579 16.4581 70.5016 18.4018C72.4454 20.3456 73.6476 23.0308 73.6476 25.9969V30.574C73.6476 33.9354 71.886 36.885 69.2362 38.5512L69.2365 55.6696C69.2365 57.4175 68.528 59 67.3825 60.1455C66.237 61.291 64.6545 61.9995 62.9066 61.9995C61.1586 61.9995 59.5761 61.291 58.4306 60.1455C57.2851 59 56.5766 57.4175 56.5766 55.6696L56.5769 38.5512C53.9272 36.885 52.1655 33.9354 52.1655 30.574V25.9969C52.1655 23.0308 53.3678 20.3456 55.3115 18.4018C57.2552 16.4581 59.9405 15.2559 62.9066 15.2559Z" fill="white" stroke="#8F9091" stroke-width="3.03525"/>
<path fill-rule="evenodd" clip-rule="evenodd" d="M62.9071 13.8665C66.5704 13.8665 69.8545 15.4903 72.0787 18.0574C71.0385 22.3684 68.55 26.3722 62.782 26.3722C57.1165 26.3722 54.6149 22.5092 53.5417 18.2868C55.7667 15.5873 59.1359 13.8665 62.9071 13.8665Z" fill="#8F9091" fill-opacity="0.2"/>
<path fill-rule="evenodd" clip-rule="evenodd" d="M62.7816 2C64.4716 2 66.0023 2.67678 67.11 3.77296C68.2124 4.86391 68.8956 6.37068 68.8956 8.03575C68.8956 10.2436 68.6987 13.4773 67.2092 15.7269C66.3242 17.0637 64.9279 17.9795 62.7816 17.9795C60.6354 17.9795 59.2391 17.0637 58.354 15.7269C56.8646 13.4773 56.6677 10.2436 56.6677 8.03575C56.6677 6.37068 57.3509 4.86391 58.4533 3.77296C59.561 2.67678 61.0917 2 62.7816 2Z" fill="#F9F9F9" stroke="#8F9091" stroke-width="3.03525"/>
<path fill-rule="evenodd" clip-rule="evenodd" d="M87.9893 15.2563C90.9554 15.2563 93.6406 16.4586 95.5844 18.4023C97.5281 20.3461 98.7304 23.0313 98.7304 25.9974V30.5745C98.7304 33.9359 96.9687 36.8855 94.319 38.5517L94.3192 55.6701C94.3192 57.418 93.6107 59.0005 92.4653 60.146C91.3198 61.2915 89.7373 62 87.9893 62C86.2414 62 84.6589 61.2915 83.5134 60.146C82.3679 59.0005 81.6594 57.418 81.6594 55.6701L81.6597 38.5517C79.0099 36.8855 77.2483 33.9359 77.2483 30.5745V25.9974C77.2483 23.0313 78.4505 20.3461 80.3943 18.4023C82.338 16.4586 85.0233 15.2563 87.9893 15.2563Z" fill="white" stroke="#DF2836" stroke-width="3.03525"/>
<path fill-rule="evenodd" clip-rule="evenodd" d="M87.9899 13.8665C91.6532 13.8665 94.9372 15.4903 97.1615 18.0574C96.1213 22.3684 93.6327 26.3722 87.8648 26.3722C82.1992 26.3722 79.6976 22.5092 78.6245 18.2868C80.8495 15.5873 84.2187 13.8665 87.9899 13.8665Z" fill="#E01F2D" fill-opacity="0.2"/>
<path fill-rule="evenodd" clip-rule="evenodd" d="M87.8642 2.00049C89.5541 2.00049 91.0848 2.67727 92.1925 3.77345C93.2949 4.86439 93.9781 6.37116 93.9781 8.03624C93.9781 10.2441 93.7812 13.4778 92.2918 15.7274C91.4067 17.0642 90.0104 17.98 87.8642 17.98C85.7179 17.98 84.3216 17.0642 83.4366 15.7274C81.9471 13.4778 81.7502 10.2441 81.7502 8.03624C81.7502 6.37116 82.4334 4.86439 83.5358 3.77345C84.6435 2.67727 86.1742 2.00049 87.8642 2.00049Z" fill="#F9F9F9" stroke="#E01F2D" stroke-width="3.03525"/>
<path fill-rule="evenodd" clip-rule="evenodd" d="M37.8243 15.2559C40.7903 15.2559 43.4756 16.4581 45.4193 18.4018C47.3631 20.3456 48.5653 23.0308 48.5653 25.9969V30.574C48.5653 33.9354 46.8037 36.885 44.154 38.5512L44.1542 55.6696C44.1542 57.4175 43.4457 59 42.3002 60.1455C41.1547 61.291 39.5722 61.9995 37.8243 61.9995C36.0763 61.9995 34.4938 61.291 33.3484 60.1455C32.2029 59 31.4944 57.4175 31.4944 55.6696L31.4946 38.5512C28.8449 36.885 27.0833 33.9354 27.0833 30.574V25.9969C27.0833 23.0308 28.2855 20.3456 30.2292 18.4018C32.173 16.4581 34.8582 15.2559 37.8243 15.2559Z" fill="white" stroke="#E01F2D" stroke-width="3.03525"/>
<path fill-rule="evenodd" clip-rule="evenodd" d="M37.8243 13.8665C41.4877 13.8665 44.7717 15.4903 46.996 18.0574C45.9558 22.3684 43.4672 26.3722 37.6993 26.3722C32.0337 26.3722 29.5321 22.5092 28.459 18.2868C30.6839 15.5873 34.0532 13.8665 37.8243 13.8665Z" fill="#E01F2D" fill-opacity="0.2"/>
<path fill-rule="evenodd" clip-rule="evenodd" d="M37.6991 2C39.3891 2 40.9197 2.67678 42.0275 3.77296C43.1299 4.86391 43.813 6.37068 43.813 8.03575C43.813 10.2436 43.6161 13.4773 42.1267 15.7269C41.2417 17.0637 39.8453 17.9795 37.6991 17.9795C35.5529 17.9795 34.1566 17.0637 33.2715 15.7269C31.7821 13.4773 31.5852 10.2436 31.5852 8.03575C31.5852 6.37068 32.2683 4.86391 33.3708 3.77296C34.4785 2.67678 36.0091 2 37.6991 2Z" fill="#F9F9F9" stroke="#E01F2D" stroke-width="3.03525"/>
</svg>
