<svg width="70" height="82" viewBox="0 0 70 82" fill="none" xmlns="http://www.w3.org/2000/svg">
<path d="M58.4161 11.781C71.8716 25.2365 71.8716 47.0531 58.4161 60.5086C44.9606 73.9646 23.144 73.9646 9.68848 60.5086" stroke="#E01F2D" stroke-width="2.42958" stroke-linejoin="round"/>
<path fill-rule="evenodd" clip-rule="evenodd" d="M34.0519 7.43188C18.194 7.43188 5.33862 20.2873 5.33862 36.1451C5.33862 52.003 18.194 64.8583 34.0519 64.8583C49.9102 64.8583 62.7651 52.003 62.7651 36.1451C62.7651 20.2873 49.9102 7.43188 34.0519 7.43188ZM34.0519 9.86146C48.5448 9.86146 60.3355 21.6522 60.3355 36.1451C60.3355 50.6375 48.5448 62.4288 34.0519 62.4288C19.5594 62.4288 7.7682 50.6375 7.7682 36.1451C7.7682 21.6522 19.5594 9.86146 34.0519 9.86146Z" fill="#E01F2D"/>
<path fill-rule="evenodd" clip-rule="evenodd" d="M62.7641 36.1445C62.7641 52.0048 49.9121 64.8572 34.0514 64.8572C18.1959 64.8572 5.33862 52.0048 5.33862 36.1445C5.33862 34.5701 5.46496 33.0298 5.70792 31.5234C7.92418 45.1777 19.7708 55.6103 34.0514 55.6103C48.3378 55.6103 60.1839 45.1777 62.3948 31.5234C62.6378 33.0298 62.7641 34.5701 62.7641 36.1445Z" fill="#E01F2D" fill-opacity="0.2"/>
<path d="M52.8525 16.3987C47.5089 16.3987 38.4587 20.3011 39.0972 27.2079C39.7362 34.1142 47.9025 30.9727 51.7136 36.0734C55.5246 41.1745 61.4756 38.6021 61.4756 38.6021" stroke="#E01F2D" stroke-width="2.42958" stroke-linejoin="round"/>
<path d="M9.68848 49.9027C13.5505 50.3565 15.2561 47.3555 19.0161 46.5751C22.7766 45.7952 23.0667 53.1175 29.7335 47.1053C36.4002 41.0935 53.0307 43.4356 54.3859 54.4397" stroke="#E01F2D" stroke-width="2.42958" stroke-linejoin="round"/>
<path d="M33.2782 8.84546C30.2062 14.9413 33.8301 15.3592 35.2665 21.1396C36.7111 26.9541 24.4583 41.8668 6.21509 29.0785" stroke="#E01F2D" stroke-width="2.42958" stroke-linejoin="round"/>
<path fill-rule="evenodd" clip-rule="evenodd" d="M18.2597 19.007C18.2597 19.007 24.3337 14.9079 24.3337 8.07394C24.3337 4.71967 21.614 2 18.2597 2C14.9055 2 12.1858 4.71967 12.1858 8.07394C12.1858 14.9079 18.2597 19.007 18.2597 19.007Z" fill="white"/>
<path fill-rule="evenodd" clip-rule="evenodd" d="M18.2597 19.007C18.2597 19.007 24.3337 14.9079 24.3337 8.07394C24.3337 4.71967 21.614 2 18.2597 2C14.9055 2 12.1858 4.71967 12.1858 8.07394C12.1858 14.9079 18.2597 19.007 18.2597 19.007Z" stroke="#E01F2D" stroke-width="2.42958" stroke-linejoin="round"/>
<path fill-rule="evenodd" clip-rule="evenodd" d="M20.689 8.07386C20.689 9.41596 19.6015 10.5034 18.2594 10.5034C16.9173 10.5034 15.8298 9.41596 15.8298 8.07386C15.8298 6.73225 16.9173 5.64429 18.2594 5.64429C19.6015 5.64429 20.689 6.73225 20.689 8.07386Z" fill="#E01F2D"/>
<path fill-rule="evenodd" clip-rule="evenodd" d="M49.8445 28.788C49.8445 28.788 55.9184 24.6889 55.9184 17.8549C55.9184 14.5002 53.1987 11.781 49.8445 11.781C46.4902 11.781 43.7705 14.5002 43.7705 17.8549C43.7705 24.6889 49.8445 28.788 49.8445 28.788Z" fill="white"/>
<path fill-rule="evenodd" clip-rule="evenodd" d="M49.8445 28.788C49.8445 28.788 55.9184 24.6889 55.9184 17.8549C55.9184 14.5002 53.1987 11.781 49.8445 11.781C46.4902 11.781 43.7705 14.5002 43.7705 17.8549C43.7705 24.6889 49.8445 28.788 49.8445 28.788Z" stroke="#E01F2D" stroke-width="2.42958" stroke-linejoin="round"/>
<path fill-rule="evenodd" clip-rule="evenodd" d="M52.2737 17.8554C52.2737 19.197 51.1862 20.2849 49.8441 20.2849C48.502 20.2849 47.4146 19.197 47.4146 17.8554C47.4146 16.5133 48.502 15.4258 49.8441 15.4258C51.1862 15.4258 52.2737 16.5133 52.2737 17.8554Z" fill="#E01F2D"/>
<path fill-rule="evenodd" clip-rule="evenodd" d="M26.7632 37.2915C26.7632 37.2915 32.8371 33.1923 32.8371 26.3584C32.8371 23.0036 30.1174 20.2844 26.7632 20.2844C23.4089 20.2844 20.6892 23.0036 20.6892 26.3584C20.6892 33.1923 26.7632 37.2915 26.7632 37.2915Z" fill="white"/>
<path fill-rule="evenodd" clip-rule="evenodd" d="M26.7632 37.2915C26.7632 37.2915 32.8371 33.1923 32.8371 26.3584C32.8371 23.0036 30.1174 20.2844 26.7632 20.2844C23.4089 20.2844 20.6892 23.0036 20.6892 26.3584C20.6892 33.1923 26.7632 37.2915 26.7632 37.2915Z" stroke="#E01F2D" stroke-width="2.42958" stroke-linejoin="round"/>
<path fill-rule="evenodd" clip-rule="evenodd" d="M29.1929 26.3588C29.1929 27.7004 28.1054 28.7884 26.7633 28.7884C25.4212 28.7884 24.3337 27.7004 24.3337 26.3588C24.3337 25.0167 25.4212 23.9292 26.7633 23.9292C28.1054 23.9292 29.1929 25.0167 29.1929 26.3588Z" fill="#E01F2D"/>
<path fill-rule="evenodd" clip-rule="evenodd" d="M8.07394 45.7954C8.07394 45.7954 14.1479 41.6962 14.1479 34.8623C14.1479 31.5075 11.4282 28.7883 8.07394 28.7883C4.71967 28.7883 2 31.5075 2 34.8623C2 41.6962 8.07394 45.7954 8.07394 45.7954Z" fill="white"/>
<path fill-rule="evenodd" clip-rule="evenodd" d="M8.07394 45.7954C8.07394 45.7954 14.1479 41.6962 14.1479 34.8623C14.1479 31.5075 11.4282 28.7883 8.07394 28.7883C4.71967 28.7883 2 31.5075 2 34.8623C2 41.6962 8.07394 45.7954 8.07394 45.7954Z" stroke="#E01F2D" stroke-width="2.42958" stroke-linejoin="round"/>
<path fill-rule="evenodd" clip-rule="evenodd" d="M10.5037 34.8622C10.5037 36.2038 9.41621 37.2918 8.07411 37.2918C6.73201 37.2918 5.64453 36.2038 5.64453 34.8622C5.64453 33.5201 6.73201 32.4326 8.07411 32.4326C9.41621 32.4326 10.5037 33.5201 10.5037 34.8622Z" fill="#E01F2D"/>
<path fill-rule="evenodd" clip-rule="evenodd" d="M41.3405 55.6088C41.3405 55.6088 47.4145 51.5097 47.4145 44.6758C47.4145 41.3215 44.6948 38.6018 41.3405 38.6018C37.9863 38.6018 35.2666 41.3215 35.2666 44.6758C35.2666 51.5097 41.3405 55.6088 41.3405 55.6088Z" fill="white"/>
<path fill-rule="evenodd" clip-rule="evenodd" d="M41.3405 55.6088C41.3405 55.6088 47.4145 51.5097 47.4145 44.6758C47.4145 41.3215 44.6948 38.6018 41.3405 38.6018C37.9863 38.6018 35.2666 41.3215 35.2666 44.6758C35.2666 51.5097 41.3405 55.6088 41.3405 55.6088Z" stroke="#E01F2D" stroke-width="2.42958" stroke-linejoin="round"/>
<path fill-rule="evenodd" clip-rule="evenodd" d="M43.7708 44.6757C43.7708 46.0178 42.6833 47.1052 41.3412 47.1052C39.9991 47.1052 38.9116 46.0178 38.9116 44.6757C38.9116 43.3341 39.9991 42.2461 41.3412 42.2461C42.6833 42.2461 43.7708 43.3341 43.7708 44.6757Z" fill="#E01F2D"/>
<path d="M34.052 70.6006V80.3189" stroke="#E01F2D" stroke-width="2.42958" stroke-linejoin="round"/>
<path d="M24.3337 80.3191H43.7704" stroke="#E01F2D" stroke-width="2.42958" stroke-linejoin="round"/>
</svg>
