<svg xmlns="http://www.w3.org/2000/svg" xmlns:xlink="http://www.w3.org/1999/xlink"><defs><symbol id="arrow-usage" viewBox="0 0 8 13"><path d="M2.776 0L0 .813 4.735 6.41 0 12.278 2.776 13 8 6.41 2.776 0z"/></symbol><symbol id="burger-close-usage" viewBox="0 0 14 14"><path d="M13.435 12.02L1.414 0 0 1.414l12.02 12.021z"/><path d="M.436 12.02L12.456 0l1.415 1.414-12.02 12.02z"/></symbol><symbol id="burger-open-usage" viewBox="0 0 17 14"><path d="M0 0h17v2H0zm0 6h17v2H0zm0 6h17v2H0z"/></symbol><symbol id="clasess-usage" viewBox="0 0 22 22"><path d="M10.998 11.26a4.306 4.306 0 004.455-4.127 4.306 4.306 0 00-4.455-4.13 4.307 4.307 0 00-4.456 4.13 4.306 4.306 0 004.456 4.127zm0-5.837a1.783 1.783 0 011.844 1.71 1.85 1.85 0 01-3.689 0 1.783 1.783 0 011.845-1.71zm4.295 11.517a1.146 1.146 0 01-.003 1.708 1.377 1.377 0 01-1.844 0l-2.449-2.268-2.447 2.268a1.379 1.379 0 01-1.846 0 1.148 1.148 0 010-1.71l2.49-2.31a8.72 8.72 0 01-2.586-.992 1.158 1.158 0 01-.41-1.668l.001-.002a1.366 1.366 0 011.8-.379 6.038 6.038 0 005.998 0h.001a1.366 1.366 0 011.799.38 1.16 1.16 0 01-.41 1.669 8.711 8.711 0 01-2.587.992l2.49 2.31.003.002z"/></symbol><symbol id="contacts-email-usage" viewBox="0 0 18 11"><path fill-rule="evenodd" clip-rule="evenodd" d="M0 1.082V10a1 1 0 001 1h16a1 1 0 001-1V1.082L9.5 6.749a.9.9 0 01-1 0L0 1.082zM16.377 0H1.623L9 4.918 16.377 0z" fill="#2AB8C4"/></symbol><symbol id="contacts-phone-usage" viewBox="0 0 14 18"><path d="M13.532 15.269a1.097 1.097 0 01-.198.266 9.067 9.067 0 01-2.03 1.454 5.37 5.37 0 01-.662.24l-.453-.091c-.209-.086-.422-.17-.623-.266a9.175 9.175 0 01-2.431-1.768c-1.227-1.19-2.246-2.543-3.191-3.962a23.986 23.986 0 01-2.229-4.054C1.301 6.09.975 5.072.903 3.984c-.018-.268-.006-.537-.01-.8l.094-.461c.34-.513.837-.846 1.35-1.156.38-.227.763-.434 1.152-.637A1.137 1.137 0 014.534.923a.795.795 0 01.42.431c.413 1.02.816 2.043 1.257 3.048a1.17 1.17 0 01-.156 1.234c-.137.19-.297.366-.45.547-.177.21-.354.42-.54.622a.176.176 0 00-.036.24c.324.576.621 1.167.97 1.731a21.682 21.682 0 002.17 3.021.24.24 0 00.307.082 35.4 35.4 0 011.292-.42c.308-.114.648-.107.952.019a.868.868 0 01.248.168c.834.824 1.665 1.65 2.493 2.48.267.263.295.748.071 1.143z" fill="#2AB8C4"/></symbol><symbol id="decor-404-usage" viewBox="0 0 432 563"><path d="M500 562.099H181.755V150.435h318.102L500 562.099zM219.727 524.37h242.302V188.165H219.727V524.37z"/><path d="M180.408.688C234.293 2.042 285.44 24.57 322.637 63.333c36.334 38.051 56.016 88.856 54.736 141.293-1.367 51.357-23.174 100.079-60.64 135.484-36.728 34.565-85.755 53.244-136.325 51.939-49.453-1.354-96.346-22.142-130.393-57.805C16.746 299.327-1.218 252.72.065 204.654c1.397-46.962 21.483-91.457 55.853-123.724 33.591-31.447 78.356-48.382 124.49-47.098-45.035 1.36-87.69 20.405-118.615 52.964-30.079 31.835-46.246 74.211-44.964 117.858 1.35 42.587 19.643 82.903 50.868 112.107 30.475 28.317 71.008 43.472 112.711 42.143 40.616-1.344 79.038-18.64 106.836-48.095 26.982-28.717 41.409-66.889 40.121-106.155-1.328-38.141-17.816-74.204-45.852-100.289a141.09 141.09 0 00-46.81-28.686 141.757 141.757 0 00-54.295-8.702V.687z"/></symbol><symbol id="delete-usage" viewBox="0 0 15 15"><path d="M6.82 0a2.735 2.735 0 00-2.722 2.729c-1.16-.013-2.284 0-3.436 0-.922.066-.854 1.39.035 1.364h.678v8.18A2.735 2.735 0 004.098 15h6.806a2.73 2.73 0 002.717-2.727v-8.18h.683c.928.02.928-1.385 0-1.364-1.138-.002-2.26 0-3.4 0C10.904 1.229 9.677 0 8.181 0H6.82zm0 1.365h1.361c.766 0 1.362.597 1.362 1.364H5.46c0-.767.595-1.364 1.361-1.364zM2.736 4.093h9.524v8.18a1.34 1.34 0 01-1.356 1.363H4.098a1.346 1.346 0 01-1.362-1.363v-8.18zm2.03 2.033a.682.682 0 00-.668.695v4.086c.02.89 1.341.89 1.361 0V6.821a.681.681 0 00-.694-.695zm2.723 0a.682.682 0 00-.669.695v4.086c-.02.93 1.381.93 1.361 0V6.821a.681.681 0 00-.692-.695zm2.721 0a.682.682 0 00-.667.695v4.086c.02.89 1.342.89 1.361 0V6.821a.681.681 0 00-.694-.695z" fill="#1F1C2D"/></symbol><symbol id="error-usage" viewBox="0 0 16 16"><path d="M15.825 13.296L9.135 1.558a1.304 1.304 0 00-2.27 0L.175 13.296a1.304 1.304 0 001.128 1.956h13.4a1.304 1.304 0 001.122-1.956zm-14.529.652L8 2.21l6.704 11.738H1.296z" fill="#1F1C2D"/><path d="M8 10.688a.652.652 0 00-.652.652v.652a.652.652 0 101.304 0v-.652A.652.652 0 008 10.688zM7.348 5.47v3.913a.652.652 0 001.304 0V5.47a.652.652 0 00-1.304 0z" fill="#1F1C2D"/></symbol><symbol id="facebook-usage" viewBox="0 0 22 22"><path d="M9.451 18.706h3.052v-7.348h2.06l.266-2.596h-2.326V7.236c0-.573.38-.707.647-.707h1.642V4.01L12.532 4c-2.51 0-3.08 1.88-3.08 3.082v1.68H8v2.596h1.451v7.348z"/></symbol><symbol id="header-phone-usage" viewBox="0 0 14 18"><path d="M10.26 16a6.925 6.925 0 01-1.616-.204c-1.826-.44-3.706-1.558-5.293-3.146C1.764 11.06.645 9.18.205 7.357c-.464-1.919-.133-3.56.93-4.624l.304-.304a1.47 1.47 0 012.076 0L5.26 4.174a1.469 1.469 0 010 2.076L4.23 7.28a12.154 12.154 0 001.96 2.53 12.165 12.165 0 002.53 1.96l1.03-1.03a1.467 1.467 0 012.076 0l1.744 1.744a1.468 1.468 0 010 2.076l-.304.304c-.75.75-1.787 1.136-3.006 1.136zM2.477 3.044a.418.418 0 00-.3.124l-.303.304c-.797.796-1.03 2.089-.655 3.638.396 1.641 1.415 3.347 2.87 4.8 1.454 1.455 3.159 2.473 4.8 2.87 1.55.375 2.842.142 3.639-.654l.303-.304a.424.424 0 000-.599l-1.744-1.744a.424.424 0 00-.599 0l-1.306 1.306a.522.522 0 01-.61.095c-1.07-.554-2.15-1.36-3.121-2.332-.972-.971-1.776-2.05-2.331-3.12a.522.522 0 01.094-.61l1.307-1.306a.423.423 0 000-.6L2.776 3.169a.42.42 0 00-.3-.124z" fill="#2AB8C4"/><path d="M10.818 9.72a.523.523 0 01-.522-.522A3.46 3.46 0 006.84 5.742a.522.522 0 010-1.045c2.482 0 4.5 2.02 4.5 4.501a.522.522 0 01-.522.523z" fill="#2AB8C4"/><path d="M13.026 9.72a.522.522 0 01-.522-.522A5.671 5.671 0 006.84 3.534a.522.522 0 010-1.045c3.699 0 6.708 3.01 6.708 6.71a.522.522 0 01-.522.522z" fill="#2AB8C4"/></symbol><symbol id="link-arrow-usage" viewBox="0 0 8 12"><path d="M0 10.59L4.58 6 0 1.41 1.41 0l6 6-6 6L0 10.59z"/></symbol><symbol id="loading-usage" viewBox="0 0 33 25"><path d="M16.374 13.312a1.1 1.1 0 00-.653.321l-2.934 2.936a1.102 1.102 0 001.203 1.819 1.1 1.1 0 00.356-.27l1.054-1.055v6.793a1.103 1.103 0 001.524 1.032 1.101 1.101 0 00.676-1.032v-6.794l1.054 1.056a1.1 1.1 0 101.558-1.549l-2.933-2.936a1.1 1.1 0 00-.905-.321z" fill="#2AB8C4"/><path d="M13.933 0C9.006 0 5.482 4.144 5.477 8.556 2.351 9.11 0 11.906 0 15.048c0 3.987 3.086 6.973 6.6 6.973h3.667a1.099 1.099 0 001.03-1.526 1.102 1.102 0 00-1.03-.676H6.6c-2.279 0-4.4-1.899-4.4-4.771 0-2.254 1.995-4.405 4.4-4.405a1.098 1.098 0 001.089-1.261c-.49-3.487 2.24-7.18 6.244-7.18 1.2 0 2.242.299 3.128.803a1.1 1.1 0 001.606-1.25 1.101 1.101 0 00-.517-.665C16.947.405 15.514 0 13.933 0zm8.605 3.544a5.805 5.805 0 00-2.497.608 1.1 1.1 0 00-.288 1.868 1.1 1.1 0 001.273.093 3.7 3.7 0 013.53.15c1.054.633 1.844 1.78 1.844 3.646a1.102 1.102 0 00.917 1.079c2.004.336 3.483 2.387 3.483 4.427 0 2.455-1.886 4.404-5.133 4.404h-2.934a1.099 1.099 0 00-1.03 1.526 1.103 1.103 0 001.03.676h2.934c4.21 0 7.333-2.947 7.333-6.606 0-2.801-1.77-5.51-4.503-6.377-.25-2.107-1.328-3.773-2.819-4.668a5.866 5.866 0 00-2.773-.826c-.121-.005-.245-.002-.367 0z" fill="#1F1C2D"/></symbol><symbol id="logo-usage" viewBox="0 0 140 35"><path d="M108.186 11.97h-2.269l-1.137 1.957 1.137 1.958h2.269l1.136-1.957-1.136-1.958z" fill="#17E2D7"/><path d="M108.11 19.087h-2.115v12.83h2.115v-12.83zm-42.935-.509a6.979 6.979 0 00-3.146.75 6.946 6.946 0 00-2.466 2.085 6.907 6.907 0 00-1.015 6.184 6.92 6.92 0 001.67 2.759 6.983 6.983 0 008.97.802l-1.222-1.724a4.811 4.811 0 01-2.79.883 4.864 4.864 0 01-3.021-1.06 4.826 4.826 0 01-1.7-2.702H72.13v-1.053a6.915 6.915 0 00-2.039-4.894 6.977 6.977 0 00-4.916-2.03zm-4.72 5.875a4.817 4.817 0 011.699-2.706 4.855 4.855 0 016.05 0 4.817 4.817 0 011.698 2.706h-9.447zm24.675 1.149a4.195 4.195 0 01-1.208 3.033 4.232 4.232 0 01-3.021 1.263 4.246 4.246 0 01-3.021-1.263 4.21 4.21 0 01-1.208-3.033v-6.515h-2.113v6.515a6.3 6.3 0 001.857 4.465 6.358 6.358 0 004.486 1.85 6.357 6.357 0 004.485-1.85 6.3 6.3 0 001.858-4.465v-6.515H85.13v6.515zm10.884-6.515a6.364 6.364 0 00-4.482 1.852 6.308 6.308 0 00-1.86 4.463v6.515h2.114v-6.515a4.202 4.202 0 011.269-2.922 4.24 4.24 0 015.92 0 4.2 4.2 0 011.269 2.922v6.515h2.113v-6.515a6.305 6.305 0 00-1.86-4.463 6.363 6.363 0 00-4.483-1.852zm37.643 0a6.362 6.362 0 00-4.482 1.852 6.308 6.308 0 00-1.86 4.463v6.515h2.114v-6.515a4.2 4.2 0 011.238-2.977 4.24 4.24 0 015.98 0 4.204 4.204 0 011.238 2.977v6.515H140v-6.515a6.31 6.31 0 00-1.86-4.463 6.365 6.365 0 00-4.483-1.852zm-15.493-.509c-1.375 0-2.72.406-3.863 1.167a6.933 6.933 0 00-2.562 3.107 6.908 6.908 0 001.508 7.546 6.984 6.984 0 007.579 1.5 6.946 6.946 0 003.121-2.55 6.903 6.903 0 001.172-3.846 6.915 6.915 0 00-2.039-4.894 6.978 6.978 0 00-4.916-2.03zm0 11.742a4.854 4.854 0 01-2.688-.812 4.827 4.827 0 01-1.783-2.162 4.799 4.799 0 011.049-5.251 4.85 4.85 0 015.275-1.045 4.83 4.83 0 012.171 1.775c.532.792.816 1.724.816 2.677a4.819 4.819 0 01-1.422 3.401 4.86 4.86 0 01-3.418 1.414v.003zm-62.559-9.973a5.603 5.603 0 00-1.65-3.962 5.652 5.652 0 00-3.98-1.646h-7.387v17.266h2.123v-6.05H50l3.637 6.096 1.826-1.08-3.262-5.47a5.632 5.632 0 002.477-2.07 5.596 5.596 0 00.927-3.084zm-5.63 3.494h-5.264v-6.988h5.264a3.52 3.52 0 012.482 1.024 3.486 3.486 0 010 4.94 3.517 3.517 0 01-2.482 1.024z"/><path d="M30.22 34.828H10.986V9.897h19.227l.009 24.93zm-16.94-2.285h14.646V12.182H13.28v20.36z" fill="#90A5B2"/><path d="M10.904.828a12.334 12.334 0 018.597 3.794 11.98 11.98 0 013.308 8.557c-.082 3.11-1.4 6.06-3.665 8.205a11.575 11.575 0 01-8.24 3.145 11.315 11.315 0 01-7.881-3.5 10.965 10.965 0 01-3.02-7.848A10.724 10.724 0 013.38 5.688a10.568 10.568 0 017.524-2.853 10.307 10.307 0 00-7.17 3.208 9.977 9.977 0 00-2.717 7.138 9.726 9.726 0 003.075 6.789 9.55 9.55 0 006.812 2.552 9.294 9.294 0 006.458-2.912 8.97 8.97 0 002.425-6.43 8.718 8.718 0 00-2.772-6.073 8.526 8.526 0 00-6.11-2.264V.828z" fill="#17E2D7"/></symbol><symbol id="pin-usage" viewBox="0 0 39 52"><path d="M3.112 30.078l.097.14c.12.18.244.353.369.543l14.116 20.294a2.206 2.206 0 003.618 0l14.083-20.278c.136-.19.266-.374.396-.542l.086-.13a19.523 19.523 0 00-6.416-27.367 19.49 19.49 0 00-27.088 7.446 19.524 19.524 0 00.75 19.921l-.011-.027zm16.39-18.684a8.12 8.12 0 017.507 5.02 8.135 8.135 0 01-1.761 8.86 8.123 8.123 0 01-13.87-5.75c0-2.156.856-4.224 2.38-5.749a8.122 8.122 0 015.745-2.381z" fill="#2AB8C4"/></symbol><symbol id="success-usage" viewBox="0 0 69 67"><path fill-rule="evenodd" clip-rule="evenodd" d="M46.566 59.06c12.907-6.584 18.365-21.426 14.152-35.054-.951-3.08 3.851-4.384 4.796-1.327 4.319 13.973-.19 29.175-12.033 37.934C32.865 75.859 2.89 62.176.198 36.849-2.726 9.34 27.36-8.774 50.778 4.38c2.797 1.57.286 5.878-2.51 4.308C35.26 1.381 18.643 4.564 10.046 17.06 2.676 27.773 3.53 42.5 12.04 52.31c8.485 9.781 22.997 12.63 34.525 6.75zM31.742 40.947L64.849 2.266c2.09-2.44 5.591 1.104 3.516 3.528L33.54 46.484c-.843.985-2.667.95-3.517 0l-14.75-16.468c-2.136-2.384 1.372-5.922 3.516-3.528l12.953 14.46z" fill="#2AB8C4"/></symbol><symbol id="tel-usage" viewBox="0 0 22 22"><path d="M9.278 12.788l-.265 3.722c.38 0 .543-.162.74-.358l1.775-1.696 3.679 2.694c.675.376 1.15.178 1.332-.621l2.414-11.315h.001c.214-.998-.36-1.388-1.018-1.143L3.743 9.505c-.969.376-.954.916-.165 1.16l3.629 1.13 8.428-5.275c.397-.262.758-.117.461.146l-6.818 6.122z"/></symbol><symbol id="vk-usage" viewBox="0 0 22 22"><path fill-rule="evenodd" clip-rule="evenodd" d="M20.898 15.847a.592.592 0 00-.076-.144 10.58 10.58 0 00-1.98-2.422l-.031-.016v-.016h-.03a18.036 18.036 0 01-.838-.898.904.904 0 01-.153-.882c.265-.515.582-.999.945-1.443.29-.385.503-.69.67-.93 1.203-1.668 1.721-2.743 1.569-3.208l-.06-.112a.6.6 0 00-.32-.176 1.497 1.497 0 00-.671-.032l-3.001.016a.341.341 0 00-.213.016.95.95 0 00-.137.032l-.046.016-.046.048a.35.35 0 00-.106.112.561.561 0 00-.107.193c-.31.847-.681 1.667-1.112 2.453a21.8 21.8 0 01-.716 1.17c-.16.26-.339.506-.533.739a4.086 4.086 0 01-.396.385.434.434 0 01-.274.112l-.183-.048a.727.727 0 01-.229-.257 1.444 1.444 0 01-.122-.433c-.015-.176-.03-.32-.03-.449V9.16c.015-.225.015-.385.015-.465 0-.273 0-.578.015-.898.016-.32.016-.578.03-.77v-.61a3.935 3.935 0 00-.03-.497 3.117 3.117 0 00-.106-.352.695.695 0 00-.213-.257 1.168 1.168 0 00-.35-.144 5.714 5.714 0 00-1.417-.145 6.818 6.818 0 00-2.484.257 1.326 1.326 0 00-.396.337c-.121.16-.137.24-.045.256.34.03.657.196.883.465l.061.145c.065.16.11.326.137.497.061.263.097.531.107.802.03.453.03.91 0 1.363-.046.385-.076.673-.107.882a1.87 1.87 0 01-.137.513c-.06.128-.106.209-.122.24l-.06.065a.819.819 0 01-.275.048.708.708 0 01-.365-.144 3.601 3.601 0 01-.427-.433 4.682 4.682 0 01-.503-.738 15.04 15.04 0 01-.579-1.139l-.167-.32a23.507 23.507 0 01-.427-.899c-.182-.4-.35-.77-.487-1.122a.657.657 0 00-.244-.353l-.06-.032a.398.398 0 00-.168-.096 1.223 1.223 0 00-.229-.064l-2.864.016a.694.694 0 00-.594.208l-.03.064a.278.278 0 00-.03.177.76.76 0 00.06.288A37.62 37.62 0 002.42 9.288c.487.962.914 1.716 1.28 2.31.365.593.73 1.122 1.096 1.651.366.53.625.85.747.994.089.114.186.221.29.321l.258.257c.231.23.475.444.731.641.32.24.686.481 1.082.722.431.254.892.448 1.371.577.49.144 1 .204 1.508.177h1.204a.744.744 0 00.548-.241l.046-.048a1.06 1.06 0 00.106-.513 3.54 3.54 0 01.076-.834c.028-.203.09-.398.183-.577.055-.118.127-.227.213-.321a.895.895 0 01.183-.16.25.25 0 01.076-.033.657.657 0 01.595.16c.238.184.453.4.64.642.197.24.426.53.7.85.226.25.47.481.731.69l.213.128c.17.11.355.192.549.24.184.075.384.097.579.064l2.665-.047c.21.009.42-.035.61-.129a.528.528 0 00.259-.305.991.991 0 00.015-.368 2.874 2.874 0 00-.076-.289z"/></symbol></defs><view id="view-arrow-usage" viewBox="10 10 12.31 20"></view><view id="view-burger-close-usage" viewBox="50 10 20 20"></view><view id="view-burger-open-usage" viewBox="90 10 24.29 20"></view><view id="view-clasess-usage" viewBox="150 10 20 20"></view><view id="view-contacts-email-usage" viewBox="190 10 32.73 20"></view><view id="view-contacts-phone-usage" viewBox="250 10 15.56 20"></view><view id="view-decor-404-usage" viewBox="290 10 15.35 20"></view><view id="view-delete-usage" viewBox="330 10 20 20"></view><view id="view-error-usage" viewBox="370 10 20 20"></view><view id="view-facebook-usage" viewBox="410 10 20 20"></view><view id="view-header-phone-usage" viewBox="450 10 15.56 20"></view><view id="view-link-arrow-usage" viewBox="490 10 13.33 20"></view><view id="view-loading-usage" viewBox="530 10 26.4 20"></view><view id="view-logo-usage" viewBox="590 10 80 20"></view><view id="view-pin-usage" viewBox="690 10 15 20"></view><view id="view-success-usage" viewBox="730 10 20.6 20"></view><view id="view-tel-usage" viewBox="790 10 20 20"></view><view id="view-vk-usage" viewBox="830 10 20 20"></view><use id="arrow-usage" xlink:href="#arrow-usage" width="12.31" height="20" x="10" y="10"></use><use id="burger-close-usage" xlink:href="#burger-close-usage" width="20" height="20" x="50" y="10"></use><use id="burger-open-usage" xlink:href="#burger-open-usage" width="24.29" height="20" x="90" y="10"></use><use id="clasess-usage" xlink:href="#clasess-usage" width="20" height="20" x="150" y="10"></use><use id="contacts-email-usage" xlink:href="#contacts-email-usage" width="32.73" height="20" x="190" y="10"></use><use id="contacts-phone-usage" xlink:href="#contacts-phone-usage" width="15.56" height="20" x="250" y="10"></use><use id="decor-404-usage" xlink:href="#decor-404-usage" width="15.35" height="20" x="290" y="10"></use><use id="delete-usage" xlink:href="#delete-usage" width="20" height="20" x="330" y="10"></use><use id="error-usage" xlink:href="#error-usage" width="20" height="20" x="370" y="10"></use><use id="facebook-usage" xlink:href="#facebook-usage" width="20" height="20" x="410" y="10"></use><use id="header-phone-usage" xlink:href="#header-phone-usage" width="15.56" height="20" x="450" y="10"></use><use id="link-arrow-usage" xlink:href="#link-arrow-usage" width="13.33" height="20" x="490" y="10"></use><use id="loading-usage" xlink:href="#loading-usage" width="26.4" height="20" x="530" y="10"></use><use id="logo-usage" xlink:href="#logo-usage" width="80" height="20" x="590" y="10"></use><use id="pin-usage" xlink:href="#pin-usage" width="15" height="20" x="690" y="10"></use><use id="success-usage" xlink:href="#success-usage" width="20.6" height="20" x="730" y="10"></use><use id="tel-usage" xlink:href="#tel-usage" width="20" height="20" x="790" y="10"></use><use id="vk-usage" xlink:href="#vk-usage" width="20" height="20" x="830" y="10"></use></svg>